%TF.GenerationSoftware,Altium Limited,Altium Designer,24.9.1 (31)*%
G04 Layer_Physical_Order=2*
G04 Layer_Color=16711680*
%FSLAX45Y45*%
%MOMM*%
%TF.SameCoordinates,1ED834A1-E46C-4F5A-A45D-C8FB9AE456DD*%
%TF.FilePolarity,Positive*%
%TF.FileFunction,Copper,L2,Bot,Signal*%
%TF.Part,Single*%
G01*
G75*
%TA.AperFunction,Conductor*%
%ADD26C,0.25400*%
%ADD27C,0.50800*%
%TA.AperFunction,ComponentPad*%
%ADD30O,4.06400X2.54000*%
%ADD31O,2.54000X4.06400*%
%ADD32R,1.60000X1.60000*%
%ADD33C,1.22200*%
%ADD34R,1.22200X1.22200*%
%ADD35C,1.81500*%
%ADD36R,1.81500X1.81500*%
%TA.AperFunction,ViaPad*%
%ADD37C,1.00000*%
%ADD38C,1.00000*%
G36*
X5836153Y38847D02*
X38847D01*
Y3371153D01*
X5836153D01*
Y38847D01*
D02*
G37*
%LPC*%
G36*
X5664200Y3152779D02*
Y3116620D01*
X5700359D01*
X5693888Y3132243D01*
X5679823Y3146308D01*
X5664200Y3152779D01*
D02*
G37*
G36*
X5638800D02*
X5623177Y3146308D01*
X5609112Y3132243D01*
X5602641Y3116620D01*
X5638800D01*
Y3152779D01*
D02*
G37*
G36*
X4521200D02*
Y3116620D01*
X4557359D01*
X4550888Y3132243D01*
X4536823Y3146308D01*
X4521200Y3152779D01*
D02*
G37*
G36*
X4495800D02*
X4480177Y3146308D01*
X4466112Y3132243D01*
X4459641Y3116620D01*
X4495800D01*
Y3152779D01*
D02*
G37*
G36*
X4140200D02*
Y3116620D01*
X4176359D01*
X4169888Y3132243D01*
X4155823Y3146308D01*
X4140200Y3152779D01*
D02*
G37*
G36*
X4114800D02*
X4099177Y3146308D01*
X4085112Y3132243D01*
X4078641Y3116620D01*
X4114800D01*
Y3152779D01*
D02*
G37*
G36*
X3759200D02*
Y3116620D01*
X3795359D01*
X3788888Y3132243D01*
X3774823Y3146308D01*
X3759200Y3152779D01*
D02*
G37*
G36*
X3733800D02*
X3718177Y3146308D01*
X3704112Y3132243D01*
X3697641Y3116620D01*
X3733800D01*
Y3152779D01*
D02*
G37*
G36*
X3378200D02*
Y3116620D01*
X3414359D01*
X3407888Y3132243D01*
X3393823Y3146308D01*
X3378200Y3152779D01*
D02*
G37*
G36*
X3352800D02*
X3337177Y3146308D01*
X3323112Y3132243D01*
X3316641Y3116620D01*
X3352800D01*
Y3152779D01*
D02*
G37*
G36*
X2616200D02*
Y3116620D01*
X2652359D01*
X2645888Y3132243D01*
X2631823Y3146308D01*
X2616200Y3152779D01*
D02*
G37*
G36*
X2590800D02*
X2575177Y3146308D01*
X2561112Y3132243D01*
X2554641Y3116620D01*
X2590800D01*
Y3152779D01*
D02*
G37*
G36*
X2235200D02*
Y3116620D01*
X2271359D01*
X2264888Y3132243D01*
X2250823Y3146308D01*
X2235200Y3152779D01*
D02*
G37*
G36*
X2209800D02*
X2194177Y3146308D01*
X2180112Y3132243D01*
X2173641Y3116620D01*
X2209800D01*
Y3152779D01*
D02*
G37*
G36*
X711200D02*
Y3116620D01*
X747359D01*
X740888Y3132243D01*
X726823Y3146308D01*
X711200Y3152779D01*
D02*
G37*
G36*
X685800D02*
X670177Y3146308D01*
X656112Y3132243D01*
X649641Y3116620D01*
X685800D01*
Y3152779D01*
D02*
G37*
G36*
X330200D02*
Y3116620D01*
X366359D01*
X359888Y3132243D01*
X345823Y3146308D01*
X330200Y3152779D01*
D02*
G37*
G36*
X304800D02*
X289177Y3146308D01*
X275112Y3132243D01*
X268641Y3116620D01*
X304800D01*
Y3152779D01*
D02*
G37*
G36*
X1009639Y3141100D02*
Y3104941D01*
X1045798D01*
X1039327Y3120564D01*
X1025262Y3134629D01*
X1009639Y3141100D01*
D02*
G37*
G36*
X984239D02*
X968616Y3134629D01*
X954551Y3120564D01*
X948080Y3104941D01*
X984239D01*
Y3141100D01*
D02*
G37*
G36*
X5700359Y3091220D02*
X5664200D01*
Y3055061D01*
X5679823Y3061532D01*
X5693888Y3075597D01*
X5700359Y3091220D01*
D02*
G37*
G36*
X5638800D02*
X5602641D01*
X5609112Y3075597D01*
X5623177Y3061532D01*
X5638800Y3055061D01*
Y3091220D01*
D02*
G37*
G36*
X4557359D02*
X4521200D01*
Y3055061D01*
X4536823Y3061532D01*
X4550888Y3075597D01*
X4557359Y3091220D01*
D02*
G37*
G36*
X4495800D02*
X4459641D01*
X4466112Y3075597D01*
X4480177Y3061532D01*
X4495800Y3055061D01*
Y3091220D01*
D02*
G37*
G36*
X4176359D02*
X4140200D01*
Y3055061D01*
X4155823Y3061532D01*
X4169888Y3075597D01*
X4176359Y3091220D01*
D02*
G37*
G36*
X4114800D02*
X4078641D01*
X4085112Y3075597D01*
X4099177Y3061532D01*
X4114800Y3055061D01*
Y3091220D01*
D02*
G37*
G36*
X3795359D02*
X3759200D01*
Y3055061D01*
X3774823Y3061532D01*
X3788888Y3075597D01*
X3795359Y3091220D01*
D02*
G37*
G36*
X3733800D02*
X3697641D01*
X3704112Y3075597D01*
X3718177Y3061532D01*
X3733800Y3055061D01*
Y3091220D01*
D02*
G37*
G36*
X3414359D02*
X3378200D01*
Y3055061D01*
X3393823Y3061532D01*
X3407888Y3075597D01*
X3414359Y3091220D01*
D02*
G37*
G36*
X3352800D02*
X3316641D01*
X3323112Y3075597D01*
X3337177Y3061532D01*
X3352800Y3055061D01*
Y3091220D01*
D02*
G37*
G36*
X2652359D02*
X2616200D01*
Y3055061D01*
X2631823Y3061532D01*
X2645888Y3075597D01*
X2652359Y3091220D01*
D02*
G37*
G36*
X2590800D02*
X2554641D01*
X2561112Y3075597D01*
X2575177Y3061532D01*
X2590800Y3055061D01*
Y3091220D01*
D02*
G37*
G36*
X2271359D02*
X2235200D01*
Y3055061D01*
X2250823Y3061532D01*
X2264888Y3075597D01*
X2271359Y3091220D01*
D02*
G37*
G36*
X2209800D02*
X2173641D01*
X2180112Y3075597D01*
X2194177Y3061532D01*
X2209800Y3055061D01*
Y3091220D01*
D02*
G37*
G36*
X747359D02*
X711200D01*
Y3055061D01*
X726823Y3061532D01*
X740888Y3075597D01*
X747359Y3091220D01*
D02*
G37*
G36*
X685800D02*
X649641D01*
X656112Y3075597D01*
X670177Y3061532D01*
X685800Y3055061D01*
Y3091220D01*
D02*
G37*
G36*
X366359D02*
X330200D01*
Y3055061D01*
X345823Y3061532D01*
X359888Y3075597D01*
X366359Y3091220D01*
D02*
G37*
G36*
X304800D02*
X268641D01*
X275112Y3075597D01*
X289177Y3061532D01*
X304800Y3055061D01*
Y3091220D01*
D02*
G37*
G36*
X1045798Y3079541D02*
X1009639D01*
Y3043382D01*
X1025262Y3049853D01*
X1039327Y3063918D01*
X1045798Y3079541D01*
D02*
G37*
G36*
X984239D02*
X948080D01*
X954551Y3063918D01*
X968616Y3049853D01*
X984239Y3043382D01*
Y3079541D01*
D02*
G37*
G36*
X810200Y2930596D02*
X746700D01*
Y2815200D01*
X936624D01*
X933931Y2835654D01*
X921134Y2866548D01*
X900777Y2893078D01*
X874248Y2913434D01*
X843354Y2926231D01*
X810200Y2930596D01*
D02*
G37*
G36*
X721300D02*
X657800D01*
X624646Y2926231D01*
X593752Y2913434D01*
X567223Y2893078D01*
X546866Y2866548D01*
X534069Y2835654D01*
X531376Y2815200D01*
X721300D01*
Y2930596D01*
D02*
G37*
G36*
X185000Y2776720D02*
Y2740561D01*
X221159D01*
X214688Y2756184D01*
X200623Y2770249D01*
X185000Y2776720D01*
D02*
G37*
G36*
X159600D02*
X143977Y2770249D01*
X129912Y2756184D01*
X123441Y2740561D01*
X159600D01*
Y2776720D01*
D02*
G37*
G36*
X221159Y2715161D02*
X185000D01*
Y2679002D01*
X200623Y2685473D01*
X214688Y2699538D01*
X221159Y2715161D01*
D02*
G37*
G36*
X159600D02*
X123441D01*
X129912Y2699538D01*
X143977Y2685473D01*
X159600Y2679002D01*
Y2715161D01*
D02*
G37*
G36*
X936624Y2789800D02*
X746700D01*
Y2674404D01*
X810200D01*
X843354Y2678769D01*
X874248Y2691566D01*
X900777Y2711923D01*
X921134Y2738452D01*
X933931Y2769347D01*
X936624Y2789800D01*
D02*
G37*
G36*
X721300D02*
X531376D01*
X534069Y2769347D01*
X546866Y2738452D01*
X567223Y2711923D01*
X593752Y2691566D01*
X624646Y2678769D01*
X657800Y2674404D01*
X721300D01*
Y2789800D01*
D02*
G37*
G36*
X804639Y2521100D02*
Y2484941D01*
X840798D01*
X834327Y2500564D01*
X820262Y2514629D01*
X804639Y2521100D01*
D02*
G37*
G36*
X779239D02*
X763616Y2514629D01*
X749551Y2500564D01*
X743080Y2484941D01*
X779239D01*
Y2521100D01*
D02*
G37*
G36*
X5636547Y2606280D02*
X5616694D01*
X5597517Y2601141D01*
X5580324Y2591215D01*
X5566285Y2577176D01*
X5561984Y2569726D01*
X2575774D01*
X2560908Y2566769D01*
X2548305Y2558348D01*
X2487539Y2497582D01*
X2479118Y2484979D01*
X2476161Y2470113D01*
Y1664629D01*
X2468711Y1660328D01*
X2454673Y1646289D01*
X2444746Y1629096D01*
X2439608Y1609919D01*
Y1590066D01*
X2444746Y1570889D01*
X2454673Y1553696D01*
X2468711Y1539657D01*
X2485904Y1529731D01*
X2505081Y1524593D01*
X2524934D01*
X2544111Y1529731D01*
X2561304Y1539657D01*
X2575343Y1553696D01*
X2585269Y1570889D01*
X2590408Y1590066D01*
Y1609919D01*
X2585269Y1629096D01*
X2575343Y1646289D01*
X2561304Y1660328D01*
X2553854Y1664629D01*
Y2454023D01*
X2591865Y2492033D01*
X4965090D01*
X4966762Y2479333D01*
X4960897Y2477762D01*
X4943703Y2467835D01*
X4929665Y2453796D01*
X4919738Y2436603D01*
X4914600Y2417426D01*
Y2397573D01*
X4919738Y2378397D01*
X4929665Y2361203D01*
X4943703Y2347165D01*
X4951153Y2342863D01*
Y1428590D01*
X4929510Y1406947D01*
X4635193D01*
X4632900Y1408828D01*
Y1424927D01*
X4627762Y1444103D01*
X4617835Y1461297D01*
X4603796Y1475335D01*
X4586603Y1485262D01*
X4567426Y1490400D01*
X4547573D01*
X4528397Y1485262D01*
X4511203Y1475335D01*
X4500585Y1464717D01*
X3894045D01*
X3887584Y1471178D01*
X3870390Y1481104D01*
X3851214Y1486243D01*
X3831360D01*
X3812184Y1481104D01*
X3794990Y1471178D01*
X3780952Y1457139D01*
X3771025Y1439946D01*
X3765887Y1420769D01*
Y1400916D01*
X3771025Y1381739D01*
X3780952Y1364546D01*
X3794990Y1350508D01*
X3812184Y1340581D01*
X3831360Y1335443D01*
X3851214D01*
X3870390Y1340581D01*
X3887584Y1350508D01*
X3898202Y1361126D01*
X4504742D01*
X4511203Y1354665D01*
X4528397Y1344738D01*
X4536706Y1342512D01*
X4540502Y1328347D01*
X4522531Y1310376D01*
X4514111Y1297774D01*
X4511154Y1282908D01*
Y1228293D01*
X4498454Y1220960D01*
X4491003Y1225262D01*
X4471826Y1230400D01*
X4451973D01*
X4432797Y1225262D01*
X4415603Y1215335D01*
X4407063Y1206795D01*
X3696795D01*
Y1670164D01*
X3705335Y1678704D01*
X3715262Y1695897D01*
X3720400Y1715074D01*
Y1734927D01*
X3715262Y1754103D01*
X3705335Y1771297D01*
X3691297Y1785335D01*
X3674103Y1795262D01*
X3654927Y1800400D01*
X3635074D01*
X3615897Y1795262D01*
X3598703Y1785335D01*
X3584665Y1771297D01*
X3574738Y1754103D01*
X3569600Y1734927D01*
Y1715074D01*
X3574738Y1695897D01*
X3584665Y1678704D01*
X3593205Y1670164D01*
Y1208638D01*
X3297994D01*
X3289454Y1217178D01*
X3272261Y1227104D01*
X3253084Y1232243D01*
X3233231D01*
X3214054Y1227104D01*
X3196861Y1217178D01*
X3188321Y1208638D01*
X2874179D01*
X2865639Y1217178D01*
X2848446Y1227104D01*
X2829269Y1232243D01*
X2809416D01*
X2790240Y1227104D01*
X2773046Y1217178D01*
X2764506Y1208638D01*
X1976679D01*
X1968139Y1217178D01*
X1950946Y1227104D01*
X1931769Y1232243D01*
X1911916D01*
X1892739Y1227104D01*
X1875546Y1217178D01*
X1861508Y1203139D01*
X1851581Y1185946D01*
X1846443Y1166769D01*
Y1146916D01*
X1851581Y1127739D01*
X1861508Y1110546D01*
X1875546Y1096508D01*
X1892739Y1086581D01*
X1911916Y1081443D01*
X1931769D01*
X1950946Y1086581D01*
X1968139Y1096508D01*
X1976679Y1105048D01*
X2003654D01*
Y748591D01*
X1778910Y523847D01*
X1435972D01*
X1435258Y523961D01*
X1433487Y524429D01*
X1431467Y525174D01*
X1429175Y526255D01*
X1426615Y527724D01*
X1423802Y529622D01*
X1420760Y531978D01*
X1417513Y534815D01*
X1413642Y538575D01*
X1411667Y539854D01*
X1406186Y545335D01*
X1388993Y555262D01*
X1369816Y560400D01*
X1349963D01*
X1330786Y555262D01*
X1313593Y545335D01*
X1299554Y531297D01*
X1289628Y514103D01*
X1284489Y494927D01*
Y475073D01*
X1289628Y455897D01*
X1299554Y438703D01*
X1313593Y424665D01*
X1330786Y414738D01*
X1349963Y409600D01*
X1369816D01*
X1388993Y414738D01*
X1406186Y424665D01*
X1411667Y430146D01*
X1413642Y431425D01*
X1417513Y435186D01*
X1420758Y438020D01*
X1423802Y440378D01*
X1426616Y442276D01*
X1429176Y443745D01*
X1431468Y444826D01*
X1433487Y445571D01*
X1435259Y446040D01*
X1435972Y446154D01*
X1795000D01*
X1809866Y449111D01*
X1822469Y457531D01*
X2069969Y705031D01*
X2078390Y717634D01*
X2081347Y732500D01*
Y1105048D01*
X2764506D01*
X2773046Y1096508D01*
X2790240Y1086581D01*
X2809416Y1081443D01*
X2829269D01*
X2848446Y1086581D01*
X2865639Y1096508D01*
X2874179Y1105048D01*
X3188321D01*
X3196861Y1096508D01*
X3214054Y1086581D01*
X3233231Y1081443D01*
X3253084D01*
X3272261Y1086581D01*
X3289454Y1096508D01*
X3297994Y1105048D01*
X3637578D01*
X3646843Y1103205D01*
X4407063D01*
X4415603Y1094665D01*
X4432797Y1084738D01*
X4451973Y1079600D01*
X4471826D01*
X4491003Y1084738D01*
X4498454Y1089040D01*
X4511154Y1081707D01*
Y1006091D01*
X4508909Y1003847D01*
X2790000D01*
X2775134Y1000890D01*
X2762531Y992469D01*
X2666519Y896456D01*
X2658098Y883854D01*
X2655141Y868988D01*
Y548624D01*
X2647691Y544323D01*
X2633653Y530284D01*
X2623726Y513091D01*
X2618588Y493914D01*
Y474061D01*
X2623726Y454885D01*
X2633653Y437691D01*
X2647691Y423653D01*
X2664884Y413726D01*
X2684061Y408588D01*
X2703914D01*
X2723091Y413726D01*
X2740284Y423653D01*
X2754323Y437691D01*
X2764249Y454885D01*
X2769388Y474061D01*
Y493914D01*
X2764249Y513091D01*
X2754323Y530284D01*
X2740284Y544323D01*
X2732834Y548624D01*
Y852897D01*
X2806091Y926154D01*
X3400582D01*
X3405843Y913454D01*
X3397612Y905223D01*
X3391141Y889600D01*
X3488859D01*
X3482388Y905223D01*
X3474157Y913454D01*
X3479418Y926154D01*
X4525000D01*
X4539866Y929111D01*
X4552469Y937532D01*
X4577469Y962531D01*
X4585889Y975134D01*
X4588847Y990000D01*
Y1163812D01*
X4601547Y1169829D01*
X4603246Y1168438D01*
Y774764D01*
X4606203Y759898D01*
X4614623Y747295D01*
X4778056Y583862D01*
Y428000D01*
X4988856D01*
Y638800D01*
X4832994D01*
X4680939Y790855D01*
Y1174325D01*
X4681053Y1175039D01*
X4681521Y1176810D01*
X4682266Y1178830D01*
X4683348Y1181122D01*
X4684816Y1183682D01*
X4686714Y1186495D01*
X4689070Y1189536D01*
X4691907Y1192784D01*
X4695667Y1196654D01*
X4696946Y1198629D01*
X4702427Y1204111D01*
X4712354Y1221304D01*
X4717492Y1240481D01*
Y1260334D01*
X4712354Y1279511D01*
X4702427Y1296704D01*
X4688389Y1310743D01*
X4678324Y1316554D01*
X4681727Y1329254D01*
X4945600D01*
X4960466Y1332211D01*
X4973069Y1340632D01*
X5017469Y1385031D01*
X5025889Y1397634D01*
X5028846Y1412500D01*
Y2342863D01*
X5036297Y2347165D01*
X5050335Y2361203D01*
X5060262Y2378397D01*
X5065400Y2397573D01*
Y2417426D01*
X5060262Y2436603D01*
X5050335Y2453796D01*
X5036297Y2467835D01*
X5019103Y2477762D01*
X5013238Y2479333D01*
X5014910Y2492033D01*
X5561984D01*
X5566285Y2484583D01*
X5580324Y2470544D01*
X5597517Y2460618D01*
X5616694Y2455480D01*
X5636547D01*
X5655724Y2460618D01*
X5672917Y2470544D01*
X5686955Y2484583D01*
X5696882Y2501776D01*
X5702020Y2520953D01*
Y2540806D01*
X5696882Y2559983D01*
X5686955Y2577176D01*
X5672917Y2591215D01*
X5655724Y2601141D01*
X5636547Y2606280D01*
D02*
G37*
G36*
X238700Y2624124D02*
Y2434200D01*
X354096D01*
Y2497700D01*
X349731Y2530854D01*
X336934Y2561748D01*
X316577Y2588278D01*
X290048Y2608634D01*
X259154Y2621431D01*
X238700Y2624124D01*
D02*
G37*
G36*
X213300D02*
X192846Y2621431D01*
X161952Y2608634D01*
X135423Y2588278D01*
X115066Y2561748D01*
X102269Y2530854D01*
X97904Y2497700D01*
Y2434200D01*
X213300D01*
Y2624124D01*
D02*
G37*
G36*
X840798Y2459541D02*
X804639D01*
Y2423382D01*
X820262Y2429853D01*
X834327Y2443918D01*
X840798Y2459541D01*
D02*
G37*
G36*
X779239D02*
X743080D01*
X749551Y2443918D01*
X763616Y2429853D01*
X779239Y2423382D01*
Y2459541D01*
D02*
G37*
G36*
X4521200Y2390779D02*
Y2354620D01*
X4557359D01*
X4550888Y2370243D01*
X4536823Y2384308D01*
X4521200Y2390779D01*
D02*
G37*
G36*
X4495800D02*
X4480177Y2384308D01*
X4466112Y2370243D01*
X4459641Y2354620D01*
X4495800D01*
Y2390779D01*
D02*
G37*
G36*
X4140200D02*
Y2354620D01*
X4176359D01*
X4169888Y2370243D01*
X4155823Y2384308D01*
X4140200Y2390779D01*
D02*
G37*
G36*
X4114800D02*
X4099177Y2384308D01*
X4085112Y2370243D01*
X4078641Y2354620D01*
X4114800D01*
Y2390779D01*
D02*
G37*
G36*
X2997200D02*
Y2354620D01*
X3033359D01*
X3026888Y2370243D01*
X3012823Y2384308D01*
X2997200Y2390779D01*
D02*
G37*
G36*
X2971800D02*
X2956177Y2384308D01*
X2942112Y2370243D01*
X2935641Y2354620D01*
X2971800D01*
Y2390779D01*
D02*
G37*
G36*
X2235200D02*
Y2354620D01*
X2271359D01*
X2264888Y2370243D01*
X2250823Y2384308D01*
X2235200Y2390779D01*
D02*
G37*
G36*
X2209800D02*
X2194177Y2384308D01*
X2180112Y2370243D01*
X2173641Y2354620D01*
X2209800D01*
Y2390779D01*
D02*
G37*
G36*
X1854200D02*
Y2354620D01*
X1890359D01*
X1883888Y2370243D01*
X1869823Y2384308D01*
X1854200Y2390779D01*
D02*
G37*
G36*
X1828800D02*
X1813177Y2384308D01*
X1799112Y2370243D01*
X1792641Y2354620D01*
X1828800D01*
Y2390779D01*
D02*
G37*
G36*
X4557359Y2329220D02*
X4521200D01*
Y2293061D01*
X4536823Y2299532D01*
X4550888Y2313597D01*
X4557359Y2329220D01*
D02*
G37*
G36*
X4495800D02*
X4459641D01*
X4466112Y2313597D01*
X4480177Y2299532D01*
X4495800Y2293061D01*
Y2329220D01*
D02*
G37*
G36*
X4176359D02*
X4140200D01*
Y2293061D01*
X4155823Y2299532D01*
X4169888Y2313597D01*
X4176359Y2329220D01*
D02*
G37*
G36*
X4114800D02*
X4078641D01*
X4085112Y2313597D01*
X4099177Y2299532D01*
X4114800Y2293061D01*
Y2329220D01*
D02*
G37*
G36*
X3033359D02*
X2997200D01*
Y2293061D01*
X3012823Y2299532D01*
X3026888Y2313597D01*
X3033359Y2329220D01*
D02*
G37*
G36*
X2971800D02*
X2935641D01*
X2942112Y2313597D01*
X2956177Y2299532D01*
X2971800Y2293061D01*
Y2329220D01*
D02*
G37*
G36*
X2271359D02*
X2235200D01*
Y2293061D01*
X2250823Y2299532D01*
X2264888Y2313597D01*
X2271359Y2329220D01*
D02*
G37*
G36*
X2209800D02*
X2173641D01*
X2180112Y2313597D01*
X2194177Y2299532D01*
X2209800Y2293061D01*
Y2329220D01*
D02*
G37*
G36*
X1890359D02*
X1854200D01*
Y2293061D01*
X1869823Y2299532D01*
X1883888Y2313597D01*
X1890359Y2329220D01*
D02*
G37*
G36*
X1828800D02*
X1792641D01*
X1799112Y2313597D01*
X1813177Y2299532D01*
X1828800Y2293061D01*
Y2329220D01*
D02*
G37*
G36*
X354096Y2408800D02*
X238700D01*
Y2218876D01*
X259154Y2221569D01*
X290048Y2234366D01*
X316577Y2254723D01*
X336934Y2281252D01*
X349731Y2312147D01*
X354096Y2345300D01*
Y2408800D01*
D02*
G37*
G36*
X213300D02*
X97904D01*
Y2345300D01*
X102269Y2312147D01*
X115066Y2281252D01*
X135423Y2254723D01*
X161952Y2234366D01*
X192846Y2221569D01*
X213300Y2218876D01*
Y2408800D01*
D02*
G37*
G36*
X184639Y2111100D02*
Y2074941D01*
X220798D01*
X214327Y2090564D01*
X200262Y2104629D01*
X184639Y2111100D01*
D02*
G37*
G36*
X159239D02*
X143616Y2104629D01*
X129551Y2090564D01*
X123080Y2074941D01*
X159239D01*
Y2111100D01*
D02*
G37*
G36*
X810200Y2320637D02*
X657800D01*
X627924Y2317695D01*
X599197Y2308981D01*
X572721Y2294829D01*
X549516Y2275785D01*
X530471Y2252579D01*
X516320Y2226103D01*
X507605Y2197376D01*
X504663Y2167500D01*
X507605Y2137624D01*
X516320Y2108897D01*
X530471Y2082422D01*
X549516Y2059216D01*
X572721Y2040171D01*
X599197Y2026020D01*
X627924Y2017305D01*
X657800Y2014363D01*
X810200D01*
X840076Y2017305D01*
X868803Y2026020D01*
X895279Y2040171D01*
X918485Y2059216D01*
X937529Y2082422D01*
X951681Y2108897D01*
X960395Y2137624D01*
X963337Y2167500D01*
X960395Y2197376D01*
X951681Y2226103D01*
X937529Y2252579D01*
X918485Y2275785D01*
X895279Y2294829D01*
X868803Y2308981D01*
X840076Y2317695D01*
X810200Y2320637D01*
D02*
G37*
G36*
X220798Y2049541D02*
X184639D01*
Y2013382D01*
X200262Y2019853D01*
X214327Y2033918D01*
X220798Y2049541D01*
D02*
G37*
G36*
X159239D02*
X123080D01*
X129551Y2033918D01*
X143616Y2019853D01*
X159239Y2013382D01*
Y2049541D01*
D02*
G37*
G36*
X4711700Y2009779D02*
Y1973620D01*
X4747859D01*
X4741388Y1989243D01*
X4727323Y2003308D01*
X4711700Y2009779D01*
D02*
G37*
G36*
X4686300D02*
X4670677Y2003308D01*
X4656612Y1989243D01*
X4650141Y1973620D01*
X4686300D01*
Y2009779D01*
D02*
G37*
G36*
X2044700D02*
Y1973620D01*
X2080859D01*
X2074388Y1989243D01*
X2060323Y2003308D01*
X2044700Y2009779D01*
D02*
G37*
G36*
X2019300D02*
X2003677Y2003308D01*
X1989612Y1989243D01*
X1983141Y1973620D01*
X2019300D01*
Y2009779D01*
D02*
G37*
G36*
X1663700D02*
Y1973620D01*
X1699859D01*
X1693388Y1989243D01*
X1679323Y2003308D01*
X1663700Y2009779D01*
D02*
G37*
G36*
X1638300D02*
X1622677Y2003308D01*
X1608612Y1989243D01*
X1602141Y1973620D01*
X1638300D01*
Y2009779D01*
D02*
G37*
G36*
X5195936Y2091464D02*
X5173161D01*
X5151161Y2085569D01*
X5131436Y2074181D01*
X5115331Y2058076D01*
X5103943Y2038352D01*
X5098048Y2016352D01*
Y1993576D01*
X5103943Y1971576D01*
X5115331Y1951852D01*
X5131436Y1935747D01*
X5151161Y1924359D01*
X5173161Y1918464D01*
X5195936D01*
X5217936Y1924359D01*
X5237661Y1935747D01*
X5253766Y1951852D01*
X5265154Y1971576D01*
X5271048Y1993576D01*
Y2016352D01*
X5265154Y2038352D01*
X5253766Y2058076D01*
X5237661Y2074181D01*
X5217936Y2085569D01*
X5195936Y2091464D01*
D02*
G37*
G36*
X4747859Y1948220D02*
X4711700D01*
Y1912061D01*
X4727323Y1918532D01*
X4741388Y1932597D01*
X4747859Y1948220D01*
D02*
G37*
G36*
X4686300D02*
X4650141D01*
X4656612Y1932597D01*
X4670677Y1918532D01*
X4686300Y1912061D01*
Y1948220D01*
D02*
G37*
G36*
X2080859D02*
X2044700D01*
Y1912061D01*
X2060323Y1918532D01*
X2074388Y1932597D01*
X2080859Y1948220D01*
D02*
G37*
G36*
X2019300D02*
X1983141D01*
X1989612Y1932597D01*
X2003677Y1918532D01*
X2019300Y1912061D01*
Y1948220D01*
D02*
G37*
G36*
X1699859D02*
X1663700D01*
Y1912061D01*
X1679323Y1918532D01*
X1693388Y1932597D01*
X1699859Y1948220D01*
D02*
G37*
G36*
X1638300D02*
X1602141D01*
X1608612Y1932597D01*
X1622677Y1918532D01*
X1638300Y1912061D01*
Y1948220D01*
D02*
G37*
G36*
X5499648Y1812064D02*
X5451248D01*
Y1763664D01*
X5499648D01*
Y1812064D01*
D02*
G37*
G36*
X5425848D02*
X5377448D01*
Y1763664D01*
X5425848D01*
Y1812064D01*
D02*
G37*
G36*
X5499648Y1738264D02*
X5451248D01*
Y1689864D01*
X5499648D01*
Y1738264D01*
D02*
G37*
G36*
X5425848D02*
X5377448D01*
Y1689864D01*
X5425848D01*
Y1738264D01*
D02*
G37*
G36*
X1092200Y1628779D02*
Y1592620D01*
X1128359D01*
X1121888Y1608243D01*
X1107823Y1622308D01*
X1092200Y1628779D01*
D02*
G37*
G36*
X1066800D02*
X1051177Y1622308D01*
X1037112Y1608243D01*
X1030641Y1592620D01*
X1066800D01*
Y1628779D01*
D02*
G37*
G36*
X711200D02*
Y1592620D01*
X747359D01*
X740888Y1608243D01*
X726823Y1622308D01*
X711200Y1628779D01*
D02*
G37*
G36*
X685800D02*
X670177Y1622308D01*
X656112Y1608243D01*
X649641Y1592620D01*
X685800D01*
Y1628779D01*
D02*
G37*
G36*
X1128359Y1567220D02*
X1092200D01*
Y1531061D01*
X1107823Y1537532D01*
X1121888Y1551597D01*
X1128359Y1567220D01*
D02*
G37*
G36*
X1066800D02*
X1030641D01*
X1037112Y1551597D01*
X1051177Y1537532D01*
X1066800Y1531061D01*
Y1567220D01*
D02*
G37*
G36*
X747359D02*
X711200D01*
Y1531061D01*
X726823Y1537532D01*
X740888Y1551597D01*
X747359Y1567220D01*
D02*
G37*
G36*
X685800D02*
X649641D01*
X656112Y1551597D01*
X670177Y1537532D01*
X685800Y1531061D01*
Y1567220D01*
D02*
G37*
G36*
X3263493Y2281833D02*
X3243640D01*
X3224463Y2276695D01*
X3207270Y2266768D01*
X3193232Y2252730D01*
X3183305Y2235537D01*
X3178167Y2216360D01*
Y2196507D01*
X3183305Y2177330D01*
X3193232Y2160137D01*
X3201772Y2151597D01*
Y1468403D01*
X3196006Y1462638D01*
X2421494D01*
X2416297Y1467835D01*
X2399103Y1477762D01*
X2379927Y1482900D01*
X2360074D01*
X2340897Y1477762D01*
X2323704Y1467835D01*
X2311961Y1456093D01*
X2009657D01*
X1710607Y1755143D01*
X1709620Y1756356D01*
X1707931Y1758672D01*
X1706703Y1760594D01*
X1705908Y1762062D01*
X1705499Y1762999D01*
X1705438Y1763190D01*
X1705382Y1764077D01*
X1704937Y1765758D01*
Y1772889D01*
X1699799Y1792066D01*
X1689873Y1809259D01*
X1675834Y1823298D01*
X1658641Y1833224D01*
X1639464Y1838362D01*
X1619611D01*
X1600434Y1833224D01*
X1583241Y1823298D01*
X1569202Y1809259D01*
X1559276Y1792066D01*
X1554138Y1772889D01*
Y1753036D01*
X1559276Y1733859D01*
X1569202Y1716666D01*
X1583241Y1702627D01*
X1600434Y1692701D01*
X1619611Y1687563D01*
X1626742D01*
X1628422Y1687118D01*
X1629310Y1687062D01*
X1629501Y1687001D01*
X1630438Y1686592D01*
X1631905Y1685797D01*
X1633828Y1684569D01*
X1635897Y1683060D01*
X1637895Y1681355D01*
X1951578Y1367673D01*
X1968381Y1356445D01*
X1988202Y1352503D01*
X2318366D01*
X2323704Y1347165D01*
X2340897Y1337238D01*
X2360074Y1332100D01*
X2379927D01*
X2399103Y1337238D01*
X2416297Y1347165D01*
X2428179Y1359048D01*
X3196006D01*
X3204546Y1350508D01*
X3221739Y1340581D01*
X3240916Y1335443D01*
X3260769D01*
X3279946Y1340581D01*
X3297139Y1350508D01*
X3311178Y1364546D01*
X3321104Y1381739D01*
X3326243Y1400916D01*
Y1420769D01*
X3321104Y1439946D01*
X3311178Y1457139D01*
X3305362Y1462955D01*
Y2151597D01*
X3313902Y2160137D01*
X3323829Y2177330D01*
X3328967Y2196507D01*
Y2216360D01*
X3323829Y2235537D01*
X3313902Y2252730D01*
X3299863Y2266768D01*
X3282670Y2276695D01*
X3263493Y2281833D01*
D02*
G37*
G36*
X705540Y1428741D02*
Y1350893D01*
X783388D01*
X777406Y1373221D01*
X765458Y1393914D01*
X748562Y1410811D01*
X727868Y1422758D01*
X705540Y1428741D01*
D02*
G37*
G36*
X680140D02*
X657812Y1422758D01*
X637118Y1410811D01*
X620222Y1393914D01*
X608275Y1373221D01*
X602292Y1350893D01*
X680140D01*
Y1428741D01*
D02*
G37*
G36*
X4987700Y1308859D02*
Y1272700D01*
X5023859D01*
X5017388Y1288323D01*
X5003323Y1302388D01*
X4987700Y1308859D01*
D02*
G37*
G36*
X4962300D02*
X4946677Y1302388D01*
X4932612Y1288323D01*
X4926141Y1272700D01*
X4962300D01*
Y1308859D01*
D02*
G37*
G36*
X783388Y1325493D02*
X705540D01*
Y1247644D01*
X727868Y1253627D01*
X748562Y1265575D01*
X765458Y1282471D01*
X777406Y1303165D01*
X783388Y1325493D01*
D02*
G37*
G36*
X680140D02*
X602292D01*
X608275Y1303165D01*
X620222Y1282471D01*
X637118Y1265575D01*
X657812Y1253627D01*
X680140Y1247644D01*
Y1325493D01*
D02*
G37*
G36*
X901700Y1247779D02*
Y1211620D01*
X937859D01*
X931388Y1227243D01*
X917323Y1241308D01*
X901700Y1247779D01*
D02*
G37*
G36*
X876300D02*
X860677Y1241308D01*
X846612Y1227243D01*
X840141Y1211620D01*
X876300D01*
Y1247779D01*
D02*
G37*
G36*
X5023859Y1247300D02*
X4987700D01*
Y1211141D01*
X5003323Y1217612D01*
X5017388Y1231677D01*
X5023859Y1247300D01*
D02*
G37*
G36*
X4962300D02*
X4926141D01*
X4932612Y1231677D01*
X4946677Y1217612D01*
X4962300Y1211141D01*
Y1247300D01*
D02*
G37*
G36*
X937859Y1186220D02*
X901700D01*
Y1150061D01*
X917323Y1156532D01*
X931388Y1170597D01*
X937859Y1186220D01*
D02*
G37*
G36*
X876300D02*
X840141D01*
X846612Y1170597D01*
X860677Y1156532D01*
X876300Y1150061D01*
Y1186220D01*
D02*
G37*
G36*
X5449936Y2345464D02*
X5427161D01*
X5405161Y2339569D01*
X5385436Y2328181D01*
X5369331Y2312076D01*
X5357943Y2292352D01*
X5352048Y2270352D01*
Y2247576D01*
X5357943Y2225576D01*
X5369331Y2205852D01*
X5385436Y2189747D01*
X5391607Y2186184D01*
X5390517Y2172149D01*
X5377987Y2159619D01*
X5368060Y2142425D01*
X5362922Y2123249D01*
Y2103396D01*
X5368060Y2084219D01*
X5377987Y2067026D01*
X5392026Y2052987D01*
X5409219Y2043060D01*
X5428396Y2037922D01*
X5440472D01*
X5533791Y1944604D01*
Y1934783D01*
X5524738Y1919103D01*
X5519600Y1899927D01*
Y1880073D01*
X5524738Y1860897D01*
X5534665Y1843703D01*
X5543205Y1835163D01*
Y1606454D01*
X5503375Y1566625D01*
X5492148Y1549821D01*
X5488205Y1530000D01*
Y1202337D01*
X5479665Y1193797D01*
X5469738Y1176603D01*
X5466320Y1163847D01*
X4965000D01*
X4950134Y1160889D01*
X4937532Y1152469D01*
X4922531Y1137468D01*
X4914111Y1124866D01*
X4911153Y1110000D01*
Y812379D01*
X4914111Y797513D01*
X4922531Y784911D01*
X4937410Y770031D01*
X4950013Y761611D01*
X4964879Y758654D01*
X5056153D01*
Y308590D01*
X5038910Y291347D01*
X5030121D01*
X5030120Y291346D01*
X3606091D01*
X3441267Y456170D01*
X3440842Y456756D01*
X3439923Y458338D01*
X3439019Y460297D01*
X3438165Y462678D01*
X3437393Y465526D01*
X3436745Y468860D01*
X3436261Y472674D01*
X3435970Y476980D01*
X3435892Y482373D01*
X3435400Y484675D01*
Y492426D01*
X3430262Y511603D01*
X3420335Y528797D01*
X3406296Y542835D01*
X3389103Y552762D01*
X3369926Y557900D01*
X3350073D01*
X3330897Y552762D01*
X3313703Y542835D01*
X3299665Y528797D01*
X3289738Y511603D01*
X3284600Y492426D01*
Y472573D01*
X3289738Y453397D01*
X3299665Y436203D01*
X3313703Y422165D01*
X3330897Y412238D01*
X3350073Y407100D01*
X3357825D01*
X3360127Y406608D01*
X3365520Y406530D01*
X3369822Y406239D01*
X3373640Y405754D01*
X3376973Y405107D01*
X3379824Y404334D01*
X3382203Y403481D01*
X3384161Y402577D01*
X3385744Y401657D01*
X3386330Y401233D01*
X3562531Y225031D01*
X3575134Y216610D01*
X3590000Y213653D01*
X5030121D01*
X5030122Y213654D01*
X5055000D01*
X5069866Y216611D01*
X5082469Y225032D01*
X5122469Y265031D01*
X5130889Y277634D01*
X5133846Y292500D01*
Y777500D01*
X5130889Y792366D01*
X5122469Y804969D01*
X5102469Y824969D01*
X5089866Y833389D01*
X5075000Y836347D01*
X4988847D01*
Y861707D01*
X5001547Y869040D01*
X5008997Y864738D01*
X5028174Y859600D01*
X5048027D01*
X5067203Y864738D01*
X5084397Y874665D01*
X5098435Y888703D01*
X5102737Y896153D01*
X5570450D01*
X5571232Y896044D01*
X5573522Y895535D01*
X5575880Y894831D01*
X5583159Y891901D01*
X5586445Y890276D01*
X5595498Y885049D01*
X5600368Y881873D01*
X5602566Y880991D01*
X5613397Y874738D01*
X5632573Y869600D01*
X5652427D01*
X5671603Y874738D01*
X5688797Y884665D01*
X5702835Y898703D01*
X5712762Y915897D01*
X5717900Y935073D01*
Y954926D01*
X5712762Y974103D01*
X5702835Y991296D01*
X5688797Y1005335D01*
X5671603Y1015262D01*
X5652427Y1020400D01*
X5632573D01*
X5613397Y1015262D01*
X5596203Y1005335D01*
X5582165Y991296D01*
X5580139Y987787D01*
X5579241Y986921D01*
X5576546Y983039D01*
X5574430Y980415D01*
X5572462Y978340D01*
X5570678Y976767D01*
X5569094Y975625D01*
X5567700Y974830D01*
X5566448Y974292D01*
X5565252Y973936D01*
X5564735Y973846D01*
X5102737D01*
X5098435Y981296D01*
X5084397Y995335D01*
X5067203Y1005262D01*
X5048027Y1010400D01*
X5028174D01*
X5008997Y1005262D01*
X5001547Y1000960D01*
X4988847Y1008293D01*
Y1086154D01*
X5495455D01*
X5510897Y1077238D01*
X5530074Y1072100D01*
X5549927D01*
X5569103Y1077238D01*
X5586297Y1087165D01*
X5600335Y1101204D01*
X5610262Y1118397D01*
X5615400Y1137574D01*
Y1157427D01*
X5610262Y1176603D01*
X5600335Y1193797D01*
X5591795Y1202337D01*
Y1508546D01*
X5631625Y1548375D01*
X5642853Y1565179D01*
X5646795Y1585000D01*
Y1835163D01*
X5655335Y1843703D01*
X5665262Y1860897D01*
X5670400Y1880073D01*
Y1899927D01*
X5665262Y1919103D01*
X5655335Y1936297D01*
X5641297Y1950335D01*
X5637381Y1952596D01*
Y1966058D01*
X5633439Y1985880D01*
X5622211Y2002683D01*
X5513722Y2111172D01*
Y2123249D01*
X5508584Y2142425D01*
X5498657Y2159619D01*
X5486293Y2171983D01*
X5485301Y2186075D01*
X5491661Y2189747D01*
X5507766Y2205852D01*
X5519154Y2225576D01*
X5525048Y2247576D01*
Y2270352D01*
X5519154Y2292352D01*
X5507766Y2312076D01*
X5491661Y2328181D01*
X5471936Y2339569D01*
X5449936Y2345464D01*
D02*
G37*
G36*
X808990Y1200343D02*
X576690D01*
Y968043D01*
X808990D01*
Y1200343D01*
D02*
G37*
G36*
X2235200Y866779D02*
Y830620D01*
X2271359D01*
X2264888Y846243D01*
X2250823Y860308D01*
X2235200Y866779D01*
D02*
G37*
G36*
X2209800D02*
X2194177Y860308D01*
X2180112Y846243D01*
X2173641Y830620D01*
X2209800D01*
Y866779D01*
D02*
G37*
G36*
X1854200D02*
Y830620D01*
X1890359D01*
X1883888Y846243D01*
X1869823Y860308D01*
X1854200Y866779D01*
D02*
G37*
G36*
X1828800D02*
X1813177Y860308D01*
X1799112Y846243D01*
X1792641Y830620D01*
X1828800D01*
Y866779D01*
D02*
G37*
G36*
X1092200D02*
Y830620D01*
X1128359D01*
X1121888Y846243D01*
X1107823Y860308D01*
X1092200Y866779D01*
D02*
G37*
G36*
X1066800D02*
X1051177Y860308D01*
X1037112Y846243D01*
X1030641Y830620D01*
X1066800D01*
Y866779D01*
D02*
G37*
G36*
X711200D02*
Y830620D01*
X747359D01*
X740888Y846243D01*
X726823Y860308D01*
X711200Y866779D01*
D02*
G37*
G36*
X685800D02*
X670177Y860308D01*
X656112Y846243D01*
X649641Y830620D01*
X685800D01*
Y866779D01*
D02*
G37*
G36*
X3488859Y864200D02*
X3452700D01*
Y828041D01*
X3468323Y834512D01*
X3482388Y848577D01*
X3488859Y864200D01*
D02*
G37*
G36*
X3427300D02*
X3391141D01*
X3397612Y848577D01*
X3411677Y834512D01*
X3427300Y828041D01*
Y864200D01*
D02*
G37*
G36*
X2271359Y805220D02*
X2235200D01*
Y769061D01*
X2250823Y775532D01*
X2264888Y789597D01*
X2271359Y805220D01*
D02*
G37*
G36*
X2209800D02*
X2173641D01*
X2180112Y789597D01*
X2194177Y775532D01*
X2209800Y769061D01*
Y805220D01*
D02*
G37*
G36*
X1890359D02*
X1854200D01*
Y769061D01*
X1869823Y775532D01*
X1883888Y789597D01*
X1890359Y805220D01*
D02*
G37*
G36*
X1828800D02*
X1792641D01*
X1799112Y789597D01*
X1813177Y775532D01*
X1828800Y769061D01*
Y805220D01*
D02*
G37*
G36*
X1128359D02*
X1092200D01*
Y769061D01*
X1107823Y775532D01*
X1121888Y789597D01*
X1128359Y805220D01*
D02*
G37*
G36*
X1066800D02*
X1030641D01*
X1037112Y789597D01*
X1051177Y775532D01*
X1066800Y769061D01*
Y805220D01*
D02*
G37*
G36*
X747359D02*
X711200D01*
Y769061D01*
X726823Y775532D01*
X740888Y789597D01*
X747359Y805220D01*
D02*
G37*
G36*
X685800D02*
X649641D01*
X656112Y789597D01*
X670177Y775532D01*
X685800Y769061D01*
Y805220D01*
D02*
G37*
G36*
X5557139Y798600D02*
Y762441D01*
X5593298D01*
X5586827Y778064D01*
X5572762Y792129D01*
X5557139Y798600D01*
D02*
G37*
G36*
X5531739D02*
X5516116Y792129D01*
X5502051Y778064D01*
X5495580Y762441D01*
X5531739D01*
Y798600D01*
D02*
G37*
G36*
X5593298Y737041D02*
X5557139D01*
Y700882D01*
X5572762Y707353D01*
X5586827Y721418D01*
X5593298Y737041D01*
D02*
G37*
G36*
X5531739D02*
X5495580D01*
X5502051Y721418D01*
X5516116Y707353D01*
X5531739Y700882D01*
Y737041D01*
D02*
G37*
G36*
X4449639Y626100D02*
Y589941D01*
X4485798D01*
X4479327Y605564D01*
X4465262Y619629D01*
X4449639Y626100D01*
D02*
G37*
G36*
X4424239D02*
X4408616Y619629D01*
X4394551Y605564D01*
X4388080Y589941D01*
X4424239D01*
Y626100D01*
D02*
G37*
G36*
X4485798Y564541D02*
X4449639D01*
Y528382D01*
X4465262Y534853D01*
X4479327Y548918D01*
X4485798Y564541D01*
D02*
G37*
G36*
X4424239D02*
X4388080D01*
X4394551Y548918D01*
X4408616Y534853D01*
X4424239Y528382D01*
Y564541D01*
D02*
G37*
G36*
X3062139Y486100D02*
Y449941D01*
X3098298D01*
X3091827Y465564D01*
X3077762Y479629D01*
X3062139Y486100D01*
D02*
G37*
G36*
X3036739D02*
X3021116Y479629D01*
X3007051Y465564D01*
X3000580Y449941D01*
X3036739D01*
Y486100D01*
D02*
G37*
G36*
X3568700Y485779D02*
Y449620D01*
X3604859D01*
X3598388Y465243D01*
X3584323Y479308D01*
X3568700Y485779D01*
D02*
G37*
G36*
X3543300D02*
X3527677Y479308D01*
X3513612Y465243D01*
X3507141Y449620D01*
X3543300D01*
Y485779D01*
D02*
G37*
G36*
X2425700D02*
Y449620D01*
X2461859D01*
X2455388Y465243D01*
X2441323Y479308D01*
X2425700Y485779D01*
D02*
G37*
G36*
X2400300D02*
X2384677Y479308D01*
X2370612Y465243D01*
X2364141Y449620D01*
X2400300D01*
Y485779D01*
D02*
G37*
G36*
X901700D02*
Y449620D01*
X937859D01*
X931388Y465243D01*
X917323Y479308D01*
X901700Y485779D01*
D02*
G37*
G36*
X876300D02*
X860677Y479308D01*
X846612Y465243D01*
X840141Y449620D01*
X876300D01*
Y485779D01*
D02*
G37*
G36*
X520700D02*
Y449620D01*
X556859D01*
X550388Y465243D01*
X536323Y479308D01*
X520700Y485779D01*
D02*
G37*
G36*
X495300D02*
X479677Y479308D01*
X465612Y465243D01*
X459141Y449620D01*
X495300D01*
Y485779D01*
D02*
G37*
G36*
X3098298Y424541D02*
X3062139D01*
Y388382D01*
X3077762Y394853D01*
X3091827Y408918D01*
X3098298Y424541D01*
D02*
G37*
G36*
X3036739D02*
X3000580D01*
X3007051Y408918D01*
X3021116Y394853D01*
X3036739Y388382D01*
Y424541D01*
D02*
G37*
G36*
X3604859Y424220D02*
X3568700D01*
Y388061D01*
X3584323Y394532D01*
X3598388Y408597D01*
X3604859Y424220D01*
D02*
G37*
G36*
X3543300D02*
X3507141D01*
X3513612Y408597D01*
X3527677Y394532D01*
X3543300Y388061D01*
Y424220D01*
D02*
G37*
G36*
X2461859D02*
X2425700D01*
Y388061D01*
X2441323Y394532D01*
X2455388Y408597D01*
X2461859Y424220D01*
D02*
G37*
G36*
X2400300D02*
X2364141D01*
X2370612Y408597D01*
X2384677Y394532D01*
X2400300Y388061D01*
Y424220D01*
D02*
G37*
G36*
X937859D02*
X901700D01*
Y388061D01*
X917323Y394532D01*
X931388Y408597D01*
X937859Y424220D01*
D02*
G37*
G36*
X876300D02*
X840141D01*
X846612Y408597D01*
X860677Y394532D01*
X876300Y388061D01*
Y424220D01*
D02*
G37*
G36*
X556859D02*
X520700D01*
Y388061D01*
X536323Y394532D01*
X550388Y408597D01*
X556859Y424220D01*
D02*
G37*
G36*
X495300D02*
X459141D01*
X465612Y408597D01*
X479677Y394532D01*
X495300Y388061D01*
Y424220D01*
D02*
G37*
%LPD*%
G36*
X5608481Y2513100D02*
X5607394Y2514065D01*
X5606124Y2514928D01*
X5604671Y2515690D01*
X5603035Y2516351D01*
X5601217Y2516910D01*
X5599216Y2517367D01*
X5597032Y2517722D01*
X5594665Y2517976D01*
X5589383Y2518180D01*
Y2543580D01*
X5592116Y2543630D01*
X5597032Y2544037D01*
X5599216Y2544392D01*
X5601217Y2544850D01*
X5603035Y2545408D01*
X5604671Y2546069D01*
X5606124Y2546831D01*
X5607394Y2547694D01*
X5608481Y2548660D01*
Y2513100D01*
D02*
G37*
G36*
X2527758Y1634497D02*
X2528165Y1629581D01*
X2528520Y1627397D01*
X2528978Y1625396D01*
X2529536Y1623577D01*
X2530197Y1621942D01*
X2530959Y1620489D01*
X2531822Y1619219D01*
X2532788Y1618132D01*
X2497228D01*
X2498193Y1619219D01*
X2499056Y1620489D01*
X2499818Y1621942D01*
X2500479Y1623577D01*
X2501038Y1625396D01*
X2501495Y1627397D01*
X2501850Y1629581D01*
X2502104Y1631948D01*
X2502308Y1637230D01*
X2527708D01*
X2527758Y1634497D01*
D02*
G37*
G36*
X4672855Y1210339D02*
X4669064Y1205999D01*
X4665719Y1201681D01*
X4662820Y1197384D01*
X4660367Y1193108D01*
X4658360Y1188853D01*
X4656799Y1184620D01*
X4655684Y1180408D01*
X4655015Y1176217D01*
X4654792Y1172047D01*
X4629392D01*
X4629169Y1176217D01*
X4628500Y1180408D01*
X4627385Y1184620D01*
X4625824Y1188853D01*
X4623817Y1193108D01*
X4621364Y1197384D01*
X4618465Y1201681D01*
X4615120Y1205999D01*
X4611329Y1210339D01*
X4607092Y1214700D01*
X4677092D01*
X4672855Y1210339D01*
D02*
G37*
G36*
X1399958Y515763D02*
X1404297Y511972D01*
X1408616Y508627D01*
X1412913Y505728D01*
X1417189Y503275D01*
X1421444Y501268D01*
X1425677Y499707D01*
X1429889Y498592D01*
X1434080Y497923D01*
X1438250Y497700D01*
Y472300D01*
X1434080Y472077D01*
X1429889Y471408D01*
X1425677Y470293D01*
X1421444Y468732D01*
X1417189Y466725D01*
X1412913Y464272D01*
X1408616Y461373D01*
X1404297Y458028D01*
X1399958Y454237D01*
X1395596Y450000D01*
Y520000D01*
X1399958Y515763D01*
D02*
G37*
G36*
X1679707Y1759711D02*
X1680277Y1756833D01*
X1681245Y1753828D01*
X1682611Y1750697D01*
X1684375Y1747440D01*
X1686537Y1744056D01*
X1689097Y1740546D01*
X1692055Y1736909D01*
X1699165Y1729256D01*
X1663244Y1693335D01*
X1659354Y1697089D01*
X1651954Y1703403D01*
X1648444Y1705963D01*
X1645060Y1708125D01*
X1641803Y1709889D01*
X1638672Y1711255D01*
X1635667Y1712223D01*
X1632789Y1712793D01*
X1630038Y1712965D01*
X1679535Y1762462D01*
X1679707Y1759711D01*
D02*
G37*
G36*
X5614514Y903566D02*
X5609056Y907125D01*
X5598674Y913120D01*
X5593750Y915555D01*
X5584437Y919302D01*
X5580048Y920614D01*
X5575837Y921551D01*
X5571804Y922112D01*
X5567950Y922300D01*
X5562573Y947700D01*
X5566936Y947945D01*
X5571172Y948678D01*
X5575282Y949901D01*
X5579265Y951612D01*
X5583123Y953813D01*
X5586854Y956503D01*
X5590458Y959681D01*
X5593937Y963349D01*
X5597289Y967506D01*
X5600514Y972151D01*
X5614514Y903566D01*
D02*
G37*
G36*
X3410085Y475920D02*
X3410473Y470171D01*
X3411162Y464752D01*
X3412150Y459664D01*
X3413439Y454905D01*
X3415028Y450478D01*
X3416918Y446380D01*
X3419108Y442614D01*
X3421598Y439177D01*
X3424389Y436071D01*
X3406429Y418111D01*
X3403323Y420901D01*
X3399886Y423392D01*
X3396119Y425582D01*
X3392022Y427471D01*
X3387594Y429061D01*
X3382836Y430350D01*
X3377748Y431338D01*
X3372329Y432027D01*
X3366580Y432415D01*
X3360500Y432502D01*
X3409997Y482000D01*
X3410085Y475920D01*
D02*
G37*
D26*
X5038100Y935000D02*
X5632500D01*
X5642500Y945000D01*
X5519813Y1147500D02*
X5540000D01*
X5497313Y1125000D02*
X5519813Y1147500D01*
X4950000Y1110000D02*
X4965000Y1125000D01*
X5497313D01*
X5095000Y292500D02*
Y777500D01*
X5055000Y252500D02*
X5095000Y292500D01*
X5075000Y797500D02*
X5095000Y777500D01*
X4950000Y812379D02*
Y1110000D01*
Y812379D02*
X4964879Y797500D01*
X5075000D01*
X4945600Y1368100D02*
X4990000Y1412500D01*
X4635192Y1368100D02*
X4945600D01*
X4990000Y1412500D02*
Y2407500D01*
X2693988Y868988D02*
X2790000Y965000D01*
X2693988Y483988D02*
Y868988D01*
X2790000Y965000D02*
X4525000D01*
X4642092Y774764D02*
X4883456Y533400D01*
X4642092Y774764D02*
Y1250407D01*
X4550000Y1282908D02*
X4635192Y1368100D01*
X4525000Y965000D02*
X4550000Y990000D01*
Y1282908D01*
X1795000Y485000D02*
X2042500Y732500D01*
X1359889Y485000D02*
X1795000D01*
X2042500Y732500D02*
Y1156843D01*
X2515008Y1599992D02*
Y2470113D01*
X2575774Y2530880D01*
X5626620D01*
X3360000Y482500D02*
X3590000Y252500D01*
X5030121D01*
X5030121Y252500D02*
X5055000D01*
X5030121Y252500D02*
X5030121Y252500D01*
D27*
X3841287Y1410843D02*
X3843366Y1412921D01*
X4555421D02*
X4557500Y1415000D01*
X3843366Y1412921D02*
X4555421D01*
X3646843Y1155000D02*
X4461900D01*
X5438322Y2113322D02*
X5585586Y1966058D01*
Y1899414D02*
X5595000Y1890000D01*
X5585586Y1899414D02*
Y1966058D01*
X2366798Y1404298D02*
X2373343Y1410843D01*
X1988202Y1404298D02*
X2366798D01*
X2373343Y1410843D02*
X3250843D01*
X1629538Y1762962D02*
X1988202Y1404298D01*
X2042500Y1156843D02*
X2819343D01*
X3243157D01*
X5540000Y1147500D02*
Y1530000D01*
X5595000Y1585000D01*
X3645000Y1156843D02*
X3646843Y1155000D01*
X3243157Y1156843D02*
X3645000D01*
Y1725000D01*
X5595000Y1585000D02*
Y1890000D01*
X1921843Y1156843D02*
X2042500D01*
X3253567Y1413567D02*
Y2206433D01*
X3250843Y1410843D02*
X3253567Y1413567D01*
D30*
X734000Y2167500D02*
D03*
Y2802500D02*
D03*
D31*
X226000Y2421500D02*
D03*
D32*
X4883456Y533400D02*
D03*
D33*
X5438548Y2258964D02*
D03*
X5184548Y2004964D02*
D03*
D34*
X5438548Y1750964D02*
D03*
D35*
X692840Y1338193D02*
D03*
D36*
Y1084193D02*
D03*
D37*
X996939Y3092241D02*
D03*
X791939Y2472241D02*
D03*
X5544439Y749741D02*
D03*
X4436939Y577241D02*
D03*
X171939Y2062241D02*
D03*
X3049439Y437241D02*
D03*
X317500Y3103920D02*
D03*
X172300Y2727861D02*
D03*
X3440000Y876900D02*
D03*
X4975000Y1260000D02*
D03*
X5651500Y3103920D02*
D03*
X4699000Y1960920D02*
D03*
X4508500Y3103920D02*
D03*
Y2341920D02*
D03*
X4127500Y3103920D02*
D03*
Y2341920D02*
D03*
X3746500Y3103920D02*
D03*
X3556000Y436920D02*
D03*
X3365500Y3103920D02*
D03*
X2984500Y2341920D02*
D03*
X2603500Y3103920D02*
D03*
X2413000Y436920D02*
D03*
X2222500Y3103920D02*
D03*
Y2341920D02*
D03*
X2032000Y1960920D02*
D03*
X2222500Y817920D02*
D03*
X1841500Y2341920D02*
D03*
X1651000Y1960920D02*
D03*
X1841500Y817920D02*
D03*
X1079500Y1579920D02*
D03*
X889000Y1198920D02*
D03*
X1079500Y817920D02*
D03*
X889000Y436920D02*
D03*
X698500Y3103920D02*
D03*
Y1579920D02*
D03*
Y817920D02*
D03*
X508000Y436920D02*
D03*
D38*
X5642500Y945000D02*
D03*
X5038100Y935000D02*
D03*
X4642092Y1250407D02*
D03*
X4557500Y1415000D02*
D03*
X4461900Y1155000D02*
D03*
X3841287Y1410843D02*
D03*
X5438322Y2113322D02*
D03*
X2370000Y1407500D02*
D03*
X2819343Y1156843D02*
D03*
X5540000Y1147500D02*
D03*
X1359889Y485000D02*
D03*
X3645000Y1725000D02*
D03*
X3250843Y1410843D02*
D03*
X2515008Y1599992D02*
D03*
X4990000Y2407500D02*
D03*
X3360000Y482500D02*
D03*
X2693988Y483988D02*
D03*
X3243157Y1156843D02*
D03*
X5626620Y2530880D02*
D03*
X5595000Y1890000D02*
D03*
X1921843Y1156843D02*
D03*
X3253567Y2206433D02*
D03*
X1629538Y1762962D02*
D03*
%TF.MD5,cf69b47841e9b0c0ece3ce66a73cb5c1*%
M02*
