%TF.GenerationSoftware,Altium Limited,Altium Designer,24.9.1 (31)*%
G04 Layer_Physical_Order=1*
G04 Layer_Color=255*
%FSLAX45Y45*%
%MOMM*%
%TF.SameCoordinates,1ED834A1-E46C-4F5A-A45D-C8FB9AE456DD*%
%TF.FilePolarity,Positive*%
%TF.FileFunction,Copper,L1,Top,Signal*%
%TF.Part,Single*%
G01*
G75*
%TA.AperFunction,SMDPad,CuDef*%
%ADD10R,1.00000X0.95000*%
%ADD11C,1.50000*%
%ADD12R,1.60000X2.60000*%
%ADD13R,1.10000X1.20000*%
G04:AMPARAMS|DCode=14|XSize=1.97mm|YSize=0.6mm|CornerRadius=0.075mm|HoleSize=0mm|Usage=FLASHONLY|Rotation=0.000|XOffset=0mm|YOffset=0mm|HoleType=Round|Shape=RoundedRectangle|*
%AMROUNDEDRECTD14*
21,1,1.97000,0.45000,0,0,0.0*
21,1,1.82000,0.60000,0,0,0.0*
1,1,0.15000,0.91000,-0.22500*
1,1,0.15000,-0.91000,-0.22500*
1,1,0.15000,-0.91000,0.22500*
1,1,0.15000,0.91000,0.22500*
%
%ADD14ROUNDEDRECTD14*%
%ADD15O,1.80000X0.60000*%
%ADD16R,2.10000X1.55000*%
%ADD17R,1.60000X2.50000*%
%ADD18R,0.55000X0.90000*%
%ADD19R,1.40000X0.60000*%
%ADD20R,1.80000X0.60000*%
%ADD21R,1.10000X0.35000*%
%ADD22R,2.15000X3.25000*%
%ADD23R,2.15000X0.90000*%
G04:AMPARAMS|DCode=24|XSize=1.32mm|YSize=0.6mm|CornerRadius=0.075mm|HoleSize=0mm|Usage=FLASHONLY|Rotation=180.000|XOffset=0mm|YOffset=0mm|HoleType=Round|Shape=RoundedRectangle|*
%AMROUNDEDRECTD24*
21,1,1.32000,0.45000,0,0,180.0*
21,1,1.17000,0.60000,0,0,180.0*
1,1,0.15000,-0.58500,0.22500*
1,1,0.15000,0.58500,0.22500*
1,1,0.15000,0.58500,-0.22500*
1,1,0.15000,-0.58500,-0.22500*
%
%ADD24ROUNDEDRECTD24*%
%ADD25R,3.55600X1.52400*%
%TA.AperFunction,Conductor*%
%ADD26C,0.25400*%
%ADD27C,0.50800*%
%ADD28C,1.27000*%
%ADD29C,0.76200*%
%TA.AperFunction,ComponentPad*%
%ADD30O,4.06400X2.54000*%
%ADD31O,2.54000X4.06400*%
%ADD32R,1.60000X1.60000*%
%ADD33C,1.22200*%
%ADD34R,1.22200X1.22200*%
%ADD35C,1.81500*%
%ADD36R,1.81500X1.81500*%
%TA.AperFunction,ViaPad*%
%ADD37C,1.00000*%
%ADD38C,1.00000*%
G36*
X2895457Y3129021D02*
X2895100Y3130920D01*
X2894029Y3132619D01*
X2892244Y3134118D01*
X2889745Y3135418D01*
X2886532Y3136517D01*
X2882606Y3137416D01*
X2877965Y3138116D01*
X2872610Y3138616D01*
X2859758Y3139016D01*
Y3189816D01*
X2866541Y3189915D01*
X2877965Y3190715D01*
X2882606Y3191415D01*
X2886532Y3192314D01*
X2889745Y3193413D01*
X2892244Y3194713D01*
X2894029Y3196212D01*
X2895100Y3197911D01*
X2895457Y3199810D01*
Y3129021D01*
D02*
G37*
G36*
X5044528Y3012673D02*
X5044274Y3015086D01*
X5043512Y3017245D01*
X5042242Y3019150D01*
X5040464Y3020801D01*
X5038178Y3022198D01*
X5035384Y3023341D01*
X5032082Y3024230D01*
X5028272Y3024865D01*
X5023954Y3025246D01*
X5019128Y3025373D01*
Y3050773D01*
X5023954Y3050900D01*
X5028272Y3051281D01*
X5032082Y3051916D01*
X5035384Y3052805D01*
X5038178Y3053948D01*
X5040464Y3055345D01*
X5042242Y3056996D01*
X5043512Y3058901D01*
X5044274Y3061060D01*
X5044528Y3063473D01*
Y3012673D01*
D02*
G37*
G36*
X5836153Y1984494D02*
X5786154Y1963783D01*
X5743515Y2006422D01*
X5740353Y2022321D01*
X5729125Y2039125D01*
X5712321Y2050353D01*
X5692500Y2054295D01*
X5651795D01*
Y2335000D01*
X5647853Y2354822D01*
X5636625Y2371625D01*
X5600083Y2408167D01*
X5610881Y2438922D01*
X5623480Y2455480D01*
X5636547D01*
X5655724Y2460618D01*
X5672917Y2470544D01*
X5686955Y2484583D01*
X5696882Y2501776D01*
X5702020Y2520953D01*
Y2540806D01*
X5696882Y2559983D01*
X5686955Y2577176D01*
X5672917Y2591215D01*
X5655724Y2601141D01*
X5636547Y2606280D01*
X5623666D01*
X5616694Y2606280D01*
X5582425Y2604240D01*
X5538148Y2637380D01*
Y2699781D01*
X5574702D01*
Y2845582D01*
X5323901D01*
X5300575Y2845582D01*
X5299606Y2845775D01*
X5273902Y2845582D01*
X5224712Y2824477D01*
X5111125D01*
X5061936Y2845582D01*
X5036231Y2845775D01*
X5035262Y2845582D01*
X5011936Y2845582D01*
X4875382D01*
Y2990445D01*
X4884164Y2999226D01*
X5018823D01*
Y2965173D01*
X5154744D01*
X5169623Y2965173D01*
X5209102Y2990573D01*
X5219623Y2990573D01*
X5231523D01*
Y3038073D01*
Y3085573D01*
X5209102Y3085573D01*
X5169623Y3110973D01*
X5154744Y3110973D01*
X5018823D01*
Y3076919D01*
X4868073D01*
X4853207Y3073962D01*
X4840604Y3065541D01*
X4809067Y3034004D01*
X4800646Y3021402D01*
X4797689Y3006536D01*
Y2845582D01*
X4761136D01*
Y2699781D01*
X4927139D01*
X4933195Y2649782D01*
X4891451Y2603780D01*
X4813676D01*
X4790350Y2603780D01*
X4789381Y2603973D01*
X4763676Y2603780D01*
X4733934Y2591019D01*
X4683934Y2617509D01*
Y2676461D01*
X4682939Y2681466D01*
Y2946462D01*
X4417139D01*
Y2851116D01*
X4380432Y2848229D01*
X3964039D01*
X3940831Y2845173D01*
X3919205Y2836216D01*
X3909751Y2828962D01*
X3907641D01*
X3901539Y2830175D01*
X3895436Y2828962D01*
X3857812Y2828962D01*
X3856843Y2829155D01*
X3831139Y2828962D01*
X3781805Y2810357D01*
X3621237D01*
X3618771Y2810522D01*
X3612884Y2811268D01*
X3609470Y2811966D01*
Y2828962D01*
X3608902D01*
X3608635Y2837867D01*
Y2903144D01*
X3610011D01*
X3610204Y2928850D01*
X3610010Y2929818D01*
X3610010Y2953145D01*
Y3043945D01*
X3504210D01*
Y2953145D01*
X3504210Y2929818D01*
X3504017Y2928850D01*
X3504210Y2903145D01*
X3504615Y2878962D01*
X3503669Y2828962D01*
X3503476Y2803257D01*
X3503670Y2802288D01*
X3503670Y2778962D01*
Y2688162D01*
X3559470D01*
X3582796Y2688162D01*
X3583765Y2687968D01*
X3609470Y2688162D01*
X3658803Y2706766D01*
X3781805D01*
X3831138Y2688162D01*
X3856843Y2687968D01*
X3857812Y2688162D01*
X3881139Y2688162D01*
X3909751D01*
X3919205Y2680908D01*
X3940831Y2671950D01*
X3964039Y2668895D01*
X4314054D01*
Y2254159D01*
X4313721Y2250368D01*
X4312820Y2244927D01*
X4311786Y2241063D01*
X4311524Y2240418D01*
X4285449D01*
Y2069618D01*
X4445449D01*
X4446249Y2069618D01*
X4495449D01*
X4496249Y2069618D01*
X4656249D01*
Y2100607D01*
X4657135Y2100970D01*
X4660943Y2101995D01*
X4666330Y2102893D01*
X4670071Y2103223D01*
X4729182D01*
X4778516Y2084618D01*
X4804221Y2084425D01*
X4805190Y2084618D01*
X4828516Y2084618D01*
X4884316D01*
Y2136004D01*
X4934316Y2172187D01*
X4943435Y2169186D01*
X4944883Y2167718D01*
X4976416D01*
X5003916D01*
X5003916Y2200018D01*
X5050954Y2207169D01*
X5354995D01*
X5355228Y2207148D01*
X5358658Y2206615D01*
X5360562Y2203387D01*
X5369729Y2184123D01*
X5372335Y2176340D01*
X5372869Y2174111D01*
X5375017Y2160497D01*
X5369418Y2144777D01*
X5368060Y2142425D01*
X5362922Y2123249D01*
Y2103396D01*
X5337110Y2061328D01*
X5327602Y2054295D01*
X5269410D01*
X5269055Y2054328D01*
X5265331Y2054931D01*
X5262038Y2055722D01*
X5259160Y2056666D01*
X5256647Y2057740D01*
X5254448Y2058930D01*
X5252501Y2060237D01*
X5250734Y2061693D01*
X5248217Y2064219D01*
X5246412Y2065430D01*
X5237661Y2074181D01*
X5217936Y2085569D01*
X5195936Y2091464D01*
X5173161D01*
X5151161Y2085569D01*
X5131436Y2074181D01*
X5115331Y2058076D01*
X5103943Y2038352D01*
X5098048Y2016352D01*
Y1993576D01*
X5103943Y1971576D01*
X5115331Y1951852D01*
X5131436Y1935747D01*
X5151161Y1924359D01*
X5173161Y1918464D01*
X5195936D01*
X5217936Y1924359D01*
X5237661Y1935747D01*
X5242023Y1940109D01*
X5243313Y1940838D01*
X5246110Y1943245D01*
X5248192Y1944735D01*
X5250480Y1946086D01*
X5253024Y1947308D01*
X5255867Y1948396D01*
X5259050Y1949339D01*
X5262601Y1950114D01*
X5266540Y1950699D01*
X5266613Y1950705D01*
X5485248D01*
X5495550Y1942461D01*
X5519809Y1900705D01*
X5519600Y1899927D01*
Y1883143D01*
X5519600Y1880073D01*
X5523682Y1864342D01*
X5518903Y1845669D01*
X5504807Y1818099D01*
X5503957Y1817370D01*
X5464907Y1812064D01*
X5451328Y1812064D01*
X5451248D01*
Y1763664D01*
X5499649D01*
Y1764075D01*
X5499648Y1764079D01*
X5499649Y1777396D01*
X5505279Y1798470D01*
X5539778Y1822280D01*
X5562018Y1820524D01*
X5565897Y1819738D01*
X5573301Y1817755D01*
X5585073Y1814600D01*
X5604927D01*
X5624103Y1819738D01*
X5641297Y1829665D01*
X5655335Y1843703D01*
X5665262Y1860897D01*
X5670400Y1880073D01*
Y1890294D01*
X5714182Y1913963D01*
X5746154Y1888819D01*
Y1622720D01*
X5696154Y1605029D01*
X5694866Y1605889D01*
X5680001Y1608846D01*
X5240000D01*
X5225134Y1605889D01*
X5212531Y1597468D01*
X5175031Y1559968D01*
X5166610Y1547366D01*
X5166410Y1546360D01*
X5152211Y1502241D01*
X5001347D01*
Y1595000D01*
X4998390Y1609866D01*
X4989969Y1622469D01*
X4954969Y1657469D01*
X4942366Y1665889D01*
X4927500Y1668847D01*
X4054825D01*
X4007387Y1675033D01*
Y1776018D01*
X4008031Y1776280D01*
X4011896Y1777314D01*
X4017338Y1778215D01*
X4021129Y1778548D01*
X4271627D01*
X4275368Y1778218D01*
X4280755Y1777320D01*
X4284564Y1776295D01*
X4285449Y1775932D01*
Y1744943D01*
X4445449D01*
X4446249Y1744943D01*
X4495449D01*
X4496249Y1744943D01*
X4656249D01*
Y1791497D01*
X4779056D01*
Y1758523D01*
X4884856D01*
Y1899323D01*
X4779056D01*
Y1899323D01*
X4777657Y1899447D01*
X4771179Y1905367D01*
X4750339Y1948220D01*
X4645910D01*
X4609474Y1915743D01*
X4496249D01*
X4495449Y1915743D01*
X4446249D01*
X4445449Y1915743D01*
X4285449D01*
Y1884754D01*
X4284563Y1884391D01*
X4280755Y1883366D01*
X4275368Y1882468D01*
X4271627Y1882138D01*
X4021128D01*
X4017337Y1882471D01*
X4011896Y1883372D01*
X4008032Y1884406D01*
X4007387Y1884669D01*
Y1975833D01*
X3796587D01*
Y1879844D01*
X3795702Y1879482D01*
X3791893Y1878456D01*
X3786506Y1877559D01*
X3782765Y1877228D01*
X3529989D01*
X3520840Y1887325D01*
X3496629Y1930804D01*
X3496629Y1930805D01*
X3502595Y1939733D01*
X3415000D01*
X3327404D01*
X3333370Y1930805D01*
X3333370Y1930804D01*
X3335918Y1929102D01*
X3336589Y1896791D01*
X3331603Y1876429D01*
X3315058Y1865374D01*
X3302814Y1847049D01*
X3298514Y1825433D01*
X3302814Y1803817D01*
X3315058Y1785492D01*
X3333384Y1773248D01*
X3355000Y1768948D01*
X3474999D01*
X3487157Y1771366D01*
X3524942Y1773638D01*
X3530718D01*
X3532110Y1773020D01*
X3569600Y1734926D01*
Y1715074D01*
X3541059Y1674266D01*
X3532621Y1668847D01*
X3202500D01*
X3187634Y1665889D01*
X3175031Y1657469D01*
X3127531Y1609969D01*
X3119111Y1597366D01*
X3101391Y1591334D01*
X3088554Y1593887D01*
X2906555D01*
X2893718Y1591334D01*
X2882835Y1584062D01*
X2875563Y1573179D01*
X2873010Y1560343D01*
Y1515343D01*
X2875563Y1502506D01*
X2882835Y1487217D01*
Y1461469D01*
X2875563Y1446179D01*
X2873010Y1433343D01*
Y1388343D01*
X2875563Y1375506D01*
X2877236Y1371990D01*
X2868324Y1342285D01*
X2855596Y1322689D01*
X2703854D01*
Y1395570D01*
X2740408D01*
Y1541370D01*
X2625962D01*
X2616600Y1548161D01*
X2590408Y1590066D01*
Y1609919D01*
X2585269Y1629096D01*
X2575343Y1646289D01*
X2561304Y1660328D01*
X2544111Y1670254D01*
X2531487Y1673637D01*
X2524934Y1675393D01*
X2498960Y1687519D01*
X2482065Y1720989D01*
Y1771108D01*
X2482710Y1771370D01*
X2486574Y1772404D01*
X2492016Y1773306D01*
X2495807Y1773638D01*
X2749233D01*
X2761854Y1773283D01*
X2770505Y1772556D01*
X2772795Y1772236D01*
X2773627Y1772067D01*
X2774440Y1771810D01*
X2777075Y1771519D01*
X2790000Y1768948D01*
X2910000D01*
X2931615Y1773248D01*
X2949941Y1785492D01*
X2962185Y1803817D01*
X2966485Y1825433D01*
X2962185Y1847049D01*
X2949941Y1865374D01*
X2933396Y1876429D01*
X2928410Y1896791D01*
X2929081Y1929102D01*
X2931629Y1930804D01*
X2931629Y1930805D01*
X2937595Y1939733D01*
X2850000D01*
X2762404D01*
X2768370Y1930805D01*
X2768370Y1930804D01*
X2770819Y1929168D01*
X2769569Y1897644D01*
X2763313Y1878627D01*
X2740057Y1877228D01*
X2531017D01*
X2482065Y1921537D01*
Y1975033D01*
X2482065Y1975833D01*
Y2025033D01*
X2482065Y2025833D01*
Y2121108D01*
X2482710Y2121370D01*
X2486574Y2122404D01*
X2492016Y2123305D01*
X2495807Y2123638D01*
X2548113D01*
X2628942Y2042808D01*
X2645746Y2031581D01*
X2665567Y2027638D01*
X2735011D01*
X2744159Y2017542D01*
X2768370Y1974062D01*
X2768370Y1974061D01*
X2762404Y1965133D01*
X2850000D01*
X2937595D01*
X2931629Y1974061D01*
X2931629Y1974063D01*
X2929081Y1975764D01*
X2928410Y2008075D01*
X2933396Y2028438D01*
X2949941Y2039492D01*
X2962185Y2057817D01*
X2966485Y2079433D01*
X2962185Y2101049D01*
X2955001Y2111801D01*
X2949941Y2120986D01*
Y2164881D01*
X2955001Y2174066D01*
X2962185Y2184817D01*
X2966485Y2206433D01*
X2963024Y2223830D01*
X2962185Y2228049D01*
X2961609Y2228936D01*
X2955500Y2239666D01*
X2953449Y2252907D01*
X2968155Y2284035D01*
X2980506Y2290130D01*
X2994446Y2291919D01*
X2996330Y2292700D01*
X3012823Y2299532D01*
X3026888Y2313597D01*
X3033359Y2329220D01*
X2935641D01*
X2941183Y2315839D01*
X2934251Y2286662D01*
X2908288Y2263069D01*
X2904518Y2262919D01*
X2900895Y2262919D01*
X2790000D01*
X2768384Y2258619D01*
X2750059Y2246374D01*
X2737814Y2228049D01*
X2733514Y2206433D01*
X2735185Y2198037D01*
X2707112Y2149741D01*
X2706063Y2148542D01*
X2677108Y2143790D01*
X2673749Y2144500D01*
X2606192Y2212058D01*
X2589388Y2223286D01*
X2569567Y2227228D01*
X2531017D01*
X2482065Y2271536D01*
Y2282937D01*
X2482440Y2325888D01*
X2529198Y2332756D01*
X2760000D01*
X2784776Y2337684D01*
X2805781Y2351719D01*
X2851106Y2397043D01*
X2865140Y2418048D01*
X2870069Y2442824D01*
Y2544972D01*
X2900724D01*
Y2627637D01*
X2950724Y2648348D01*
X2962012Y2637060D01*
X2970414Y2631446D01*
X2980324Y2629475D01*
X3170325D01*
X3180235Y2631446D01*
X3188637Y2637060D01*
X3202011Y2650434D01*
X3248205Y2631300D01*
Y2574758D01*
X3252147Y2554937D01*
X3263375Y2538133D01*
X3293133Y2508376D01*
X3293133Y2508375D01*
X3309937Y2497147D01*
X3329758Y2493205D01*
X3346902D01*
X3349368Y2493039D01*
X3355256Y2492294D01*
X3358670Y2491596D01*
Y2474600D01*
X3359369D01*
X3359774Y2463132D01*
Y2275831D01*
X3359442Y2272040D01*
X3358540Y2266598D01*
X3357555Y2262919D01*
X3355000D01*
X3342842Y2260500D01*
X3308214Y2258418D01*
X3299863Y2266768D01*
X3282670Y2276695D01*
X3263493Y2281833D01*
X3243640D01*
X3224463Y2276695D01*
X3207270Y2266768D01*
X3193232Y2252730D01*
X3183305Y2235537D01*
X3178167Y2216360D01*
Y2196507D01*
X3183305Y2177330D01*
X3193232Y2160137D01*
X3207270Y2146098D01*
X3224463Y2136171D01*
X3243640Y2131033D01*
X3263493D01*
X3278467Y2119615D01*
X3300980Y2092073D01*
X3301013Y2091994D01*
X3298514Y2079433D01*
X3302814Y2057817D01*
X3315058Y2039492D01*
X3331603Y2028438D01*
X3336589Y2008075D01*
X3335918Y1975764D01*
X3333370Y1974062D01*
X3333370Y1974061D01*
X3327404Y1965133D01*
X3415000D01*
X3502595D01*
X3496629Y1974061D01*
X3496629Y1974063D01*
X3494081Y1975764D01*
X3493410Y2008075D01*
X3498396Y2028438D01*
X3514941Y2039492D01*
X3527185Y2057817D01*
X3531485Y2079433D01*
X3527185Y2101049D01*
X3524851Y2104542D01*
X3524852Y2105028D01*
X3543959Y2151358D01*
X3546935Y2154638D01*
X3648933D01*
X3668754Y2158581D01*
X3685558Y2169808D01*
X3734125Y2218376D01*
X3745353Y2235179D01*
X3749295Y2255000D01*
Y2444925D01*
X3791871Y2473970D01*
X3831138Y2459161D01*
X3856843Y2458968D01*
X3857812Y2459161D01*
X3881139Y2459162D01*
X4096938D01*
Y2599962D01*
X3881139D01*
X3857812Y2599962D01*
X3856843Y2600155D01*
X3831139Y2599962D01*
X3781805Y2581357D01*
X3749561D01*
X3729740Y2577414D01*
X3712937Y2566186D01*
X3660875Y2514125D01*
X3649648Y2497321D01*
X3645705Y2477500D01*
Y2276455D01*
X3627479Y2258228D01*
X3515766D01*
X3503146Y2258583D01*
X3494494Y2259310D01*
X3492204Y2259631D01*
X3491372Y2259800D01*
X3490559Y2260057D01*
X3487924Y2260348D01*
X3474999Y2262919D01*
X3465584D01*
X3464599Y2266598D01*
X3463697Y2272040D01*
X3463365Y2275831D01*
Y2474600D01*
X3464470D01*
X3464663Y2500305D01*
X3464470Y2501273D01*
X3464469Y2524600D01*
Y2615400D01*
X3385344D01*
X3384374Y2615593D01*
X3353985Y2647534D01*
X3351795Y2662552D01*
Y2676930D01*
X3384070Y2713562D01*
X3398870Y2713562D01*
Y2758562D01*
Y2803562D01*
X3384070D01*
X3351795Y2840193D01*
Y2857500D01*
X3347853Y2877321D01*
X3336625Y2894125D01*
X3293753Y2936997D01*
X3276949Y2948225D01*
X3257128Y2952167D01*
X2950720D01*
X2900725Y2955773D01*
X2863028Y2985476D01*
X2857120Y3000016D01*
Y3049122D01*
X2869448Y3094016D01*
X2975247D01*
Y3234815D01*
X2869448D01*
Y3216211D01*
X2859758D01*
X2839937Y3212268D01*
X2823134Y3201040D01*
X2823133Y3201040D01*
X2768700Y3146607D01*
X2757472Y3129803D01*
X2753529Y3109982D01*
Y3000252D01*
X2748928Y2993365D01*
X2744985Y2973544D01*
X2700574Y2952365D01*
X2698258Y2952167D01*
X2597685D01*
Y3007726D01*
X2607228Y3035696D01*
X2631823Y3061532D01*
X2637888Y3067597D01*
X2645888Y3075597D01*
X2652359Y3091220D01*
X2552092D01*
X2530040Y3048935D01*
X2524223Y3043944D01*
X2491886D01*
Y2953144D01*
X2491885Y2929816D01*
X2491692Y2928849D01*
X2491885Y2903144D01*
X2491885D01*
X2492990Y2902039D01*
Y2828962D01*
X2491885D01*
X2491692Y2803257D01*
X2491885Y2802289D01*
X2491886Y2778962D01*
Y2688162D01*
X2597685D01*
Y2802288D01*
X2597878Y2803257D01*
Y2803258D01*
X2598274Y2804866D01*
X2617739Y2837687D01*
X2643638Y2848577D01*
X2659929D01*
X2709924Y2844972D01*
X2735630Y2844779D01*
X2736598Y2844972D01*
X2759925Y2844972D01*
X2834077D01*
X2865191Y2794972D01*
X2864134Y2792826D01*
X2848257Y2780372D01*
X2838024D01*
Y2750372D01*
Y2720372D01*
X2848257D01*
X2853196Y2716987D01*
X2855150Y2695775D01*
X2843315Y2669956D01*
X2829122Y2660383D01*
X2805325Y2665116D01*
X2780548Y2660188D01*
X2773939Y2655772D01*
X2709925D01*
Y2544972D01*
X2740580D01*
Y2469642D01*
X2733182Y2462244D01*
X2601304D01*
X2571745Y2500000D01*
X2571745Y2512244D01*
Y2532300D01*
X2544245D01*
Y2545000D01*
X2531545D01*
Y2590000D01*
X2530950D01*
X2516746Y2590000D01*
X2470260Y2598486D01*
X2462650Y2608404D01*
X2444079Y2622654D01*
X2422453Y2631612D01*
X2399245Y2634667D01*
X2101789D01*
Y2775280D01*
X1890989D01*
Y2755973D01*
X1882750Y2743206D01*
X1840989Y2722230D01*
X1837715Y2724267D01*
X1832138Y2732088D01*
X1831795Y2737372D01*
Y3190000D01*
X1827853Y3209821D01*
X1816625Y3226625D01*
X1736625Y3306625D01*
X1719821Y3317853D01*
X1700000Y3321795D01*
X1701550Y3371153D01*
X5836153D01*
Y1984494D01*
D02*
G37*
G36*
X2830820Y2958305D02*
X2831583Y2947029D01*
X2832250Y2942448D01*
X2833108Y2938572D01*
X2834156Y2935401D01*
X2835396Y2932934D01*
X2836825Y2931172D01*
X2838446Y2930115D01*
X2840257Y2929762D01*
X2770392D01*
X2772203Y2930115D01*
X2773824Y2931172D01*
X2775254Y2932934D01*
X2776493Y2935401D01*
X2777541Y2938572D01*
X2778399Y2942448D01*
X2779067Y2947029D01*
X2779543Y2952314D01*
X2779925Y2965000D01*
X2830725D01*
X2830820Y2958305D01*
D02*
G37*
G36*
X2571639Y2928535D02*
X2571334Y2927595D01*
X2571065Y2926027D01*
X2570832Y2923833D01*
X2570347Y2913488D01*
X2570185Y2897500D01*
X2519385D01*
X2519367Y2903456D01*
X2517931Y2928535D01*
X2517590Y2928849D01*
X2571980D01*
X2571639Y2928535D01*
D02*
G37*
G36*
X3583913Y2928342D02*
X3583562Y2926818D01*
X3583252Y2924278D01*
X3582756Y2916150D01*
X3582240Y2878050D01*
X3531440D01*
X3529915Y2928850D01*
X3584305D01*
X3583913Y2928342D01*
D02*
G37*
G36*
X2875528Y2929251D02*
X2877052Y2928521D01*
X2879592Y2927877D01*
X2883148Y2927319D01*
X2887720Y2926846D01*
X2907532Y2925944D01*
X2925820Y2925772D01*
Y2874972D01*
X2916168Y2874929D01*
X2877052Y2872223D01*
X2875528Y2871493D01*
X2875020Y2870677D01*
Y2930067D01*
X2875528Y2929251D01*
D02*
G37*
G36*
X2735630Y2870677D02*
X2735122Y2871493D01*
X2733598Y2872223D01*
X2731058Y2872868D01*
X2727502Y2873426D01*
X2722930Y2873898D01*
X2703118Y2874800D01*
X2684830Y2874972D01*
Y2925772D01*
X2694482Y2925815D01*
X2733598Y2928521D01*
X2735122Y2929251D01*
X2735630Y2930067D01*
Y2870677D01*
D02*
G37*
G36*
X4849363Y2840393D02*
X4849744Y2836023D01*
X4850379Y2832167D01*
X4851268Y2828826D01*
X4852411Y2825998D01*
X4853808Y2823685D01*
X4855459Y2821885D01*
X4857364Y2820600D01*
X4859523Y2819829D01*
X4861936Y2819572D01*
X4811136D01*
X4813549Y2819829D01*
X4815708Y2820600D01*
X4817613Y2821885D01*
X4819264Y2823685D01*
X4820661Y2825998D01*
X4821804Y2828826D01*
X4822693Y2832167D01*
X4823328Y2836023D01*
X4823709Y2840393D01*
X4823836Y2845277D01*
X4849236D01*
X4849363Y2840393D01*
D02*
G37*
G36*
X2571980Y2803257D02*
X2517590D01*
X2517931Y2803765D01*
X2518237Y2805289D01*
X2518506Y2807829D01*
X2518937Y2815957D01*
X2519385Y2854057D01*
X2570185D01*
X2571980Y2803257D01*
D02*
G37*
G36*
X3583765Y2803257D02*
X3529375D01*
X3529767Y2803765D01*
X3530118Y2805289D01*
X3530428Y2807829D01*
X3530924Y2815957D01*
X3531440Y2854057D01*
X3582240D01*
X3583765Y2803257D01*
D02*
G37*
G36*
X5299606Y2725486D02*
X5299098Y2729628D01*
X5297574Y2733333D01*
X5295034Y2736602D01*
X5291478Y2739435D01*
X5286906Y2741833D01*
X5281318Y2743794D01*
X5274714Y2745320D01*
X5267094Y2746410D01*
X5258458Y2747064D01*
X5248806Y2747282D01*
Y2798082D01*
X5258458Y2798299D01*
X5267094Y2798953D01*
X5274714Y2800043D01*
X5281318Y2801569D01*
X5286906Y2803530D01*
X5291478Y2805928D01*
X5295034Y2808761D01*
X5297574Y2812030D01*
X5299098Y2815736D01*
X5299606Y2819877D01*
Y2725486D01*
D02*
G37*
G36*
X5036739Y2815736D02*
X5038263Y2812030D01*
X5040803Y2808761D01*
X5044359Y2805928D01*
X5048931Y2803530D01*
X5054519Y2801569D01*
X5061123Y2800043D01*
X5068743Y2798953D01*
X5077379Y2798299D01*
X5087031Y2798082D01*
Y2747282D01*
X5077379Y2747064D01*
X5068743Y2746410D01*
X5061123Y2745320D01*
X5054519Y2743794D01*
X5048931Y2741833D01*
X5044359Y2739435D01*
X5040803Y2736602D01*
X5038263Y2733333D01*
X5036739Y2729628D01*
X5036231Y2725486D01*
Y2819877D01*
X5036739Y2815736D01*
D02*
G37*
G36*
X3856843Y2713867D02*
X3856335Y2717533D01*
X3854811Y2720813D01*
X3852271Y2723707D01*
X3848715Y2726216D01*
X3844143Y2728338D01*
X3838555Y2730075D01*
X3831951Y2731425D01*
X3824331Y2732390D01*
X3815695Y2732969D01*
X3806043Y2733162D01*
Y2783962D01*
X3815695Y2784155D01*
X3831951Y2785698D01*
X3838555Y2787049D01*
X3844143Y2788785D01*
X3848715Y2790908D01*
X3852271Y2793416D01*
X3854811Y2796311D01*
X3856335Y2799591D01*
X3856843Y2803257D01*
Y2713867D01*
D02*
G37*
G36*
X3584273Y2799591D02*
X3585797Y2796311D01*
X3588337Y2793416D01*
X3591893Y2790908D01*
X3596465Y2788785D01*
X3602053Y2787049D01*
X3608657Y2785698D01*
X3616277Y2784734D01*
X3624913Y2784155D01*
X3634565Y2783962D01*
Y2733162D01*
X3624913Y2732969D01*
X3608657Y2731425D01*
X3602053Y2730075D01*
X3596465Y2728338D01*
X3591893Y2726216D01*
X3588337Y2723707D01*
X3585797Y2720813D01*
X3584273Y2717533D01*
X3583765Y2713867D01*
Y2803257D01*
X3584273Y2799591D01*
D02*
G37*
G36*
X5522289Y2725534D02*
X5520130Y2724763D01*
X5518225Y2723478D01*
X5516574Y2721678D01*
X5515177Y2719365D01*
X5514034Y2716537D01*
X5513145Y2713196D01*
X5512510Y2709340D01*
X5512129Y2704970D01*
X5512002Y2700086D01*
X5486602D01*
X5486475Y2704970D01*
X5486094Y2709340D01*
X5485459Y2713196D01*
X5484570Y2716537D01*
X5483427Y2719365D01*
X5482030Y2721678D01*
X5480379Y2723478D01*
X5478474Y2724763D01*
X5476315Y2725534D01*
X5473902Y2725791D01*
X5524702D01*
X5522289Y2725534D01*
D02*
G37*
G36*
X4443148Y2680718D02*
X4442367Y2683443D01*
X4440022Y2685882D01*
X4436115Y2688033D01*
X4430645Y2689898D01*
X4423611Y2691476D01*
X4415015Y2692767D01*
X4393133Y2694488D01*
X4365000Y2695062D01*
Y2758562D01*
Y2822062D01*
X4379848Y2822205D01*
X4423611Y2825648D01*
X4430645Y2827225D01*
X4436115Y2829090D01*
X4440022Y2831241D01*
X4442367Y2833680D01*
X4443148Y2836405D01*
Y2680718D01*
D02*
G37*
G36*
X1351165Y3355063D02*
X1363601Y3321153D01*
X1356442Y3308753D01*
X1349600Y3283218D01*
Y3256782D01*
X1356442Y3231247D01*
X1369660Y3208353D01*
X1388353Y3189660D01*
X1411247Y3176442D01*
X1436782Y3169600D01*
X1463218D01*
X1488753Y3176442D01*
X1511647Y3189660D01*
X1530340Y3208353D01*
X1536028Y3218205D01*
X1678546D01*
X1728205Y3168546D01*
Y2733919D01*
X1727728Y2721639D01*
X1686279Y2679652D01*
X1660700Y2680740D01*
Y2680740D01*
X1254667D01*
X1254300Y2680740D01*
X1204667Y2681626D01*
Y2887743D01*
X1207318Y2890394D01*
X1254300Y2897679D01*
Y2897680D01*
X1660700D01*
Y3100880D01*
X1254300D01*
Y3088947D01*
X1189395D01*
X1166188Y3085891D01*
X1144562Y3076934D01*
X1125991Y3062684D01*
X1051596Y2988289D01*
X1037346Y2969718D01*
X1028388Y2948092D01*
X1025333Y2924885D01*
Y2332142D01*
X974659Y2281467D01*
X911560D01*
X895279Y2294829D01*
X868803Y2308981D01*
X840076Y2317695D01*
X810200Y2320637D01*
X657800D01*
X627924Y2317695D01*
X599197Y2308981D01*
X572721Y2294829D01*
X549516Y2275785D01*
X530471Y2252579D01*
X516320Y2226103D01*
X507605Y2197376D01*
X504663Y2167500D01*
X507605Y2137624D01*
X516320Y2108897D01*
X530471Y2082422D01*
X549516Y2059216D01*
X572721Y2040171D01*
X599197Y2026020D01*
X627924Y2017305D01*
X657800Y2014363D01*
X810200D01*
X840076Y2017305D01*
X868803Y2026020D01*
X895279Y2040171D01*
X918485Y2059216D01*
X937529Y2082422D01*
X948065Y2102133D01*
X1011800D01*
X1035008Y2105189D01*
X1056634Y2114146D01*
X1075204Y2128396D01*
X1178404Y2231596D01*
X1181440Y2235553D01*
X1231440Y2218580D01*
Y2057693D01*
X1492240D01*
Y2263493D01*
X1451507D01*
Y2477540D01*
X1660700D01*
Y2489473D01*
X1890989D01*
Y2464480D01*
X1984585D01*
X1999292Y2458388D01*
X2022500Y2455333D01*
X2348049D01*
X2350030Y2445378D01*
X2364064Y2424374D01*
X2412605Y2375833D01*
X2391894Y2325833D01*
X2319956D01*
X2309815Y2327145D01*
X2272500Y2351866D01*
X2264889Y2370241D01*
X2264888Y2370243D01*
X2262803Y2372328D01*
X2250823Y2384308D01*
X2235200Y2390779D01*
Y2341920D01*
Y2289275D01*
X2271265Y2254646D01*
Y2025833D01*
X2271265Y2025033D01*
Y1975833D01*
X2271265Y1975033D01*
Y1675033D01*
X2416251D01*
X2443140Y1631684D01*
X2443657Y1625033D01*
X2439608Y1609919D01*
X2439607Y1541370D01*
X2424770Y1502367D01*
X2378045Y1483663D01*
X2348971Y1507302D01*
X2339080Y1529039D01*
Y1560343D01*
X2336526Y1573179D01*
X2329255Y1584062D01*
X2318372Y1591334D01*
X2305535Y1593887D01*
X2123536D01*
X2110699Y1591334D01*
X2099816Y1584062D01*
X2092544Y1573179D01*
X2091151Y1566174D01*
X2041151Y1571099D01*
Y1677362D01*
X2077704D01*
Y1823162D01*
X1941783D01*
X1926904Y1823163D01*
X1887426Y1797763D01*
X1876904Y1797762D01*
X1865004D01*
Y1750262D01*
Y1702762D01*
X1887426Y1702762D01*
X1926904Y1677362D01*
X1963458Y1636340D01*
Y1360895D01*
X1925252Y1322689D01*
X1862494D01*
X1849765Y1342285D01*
X1841781Y1368902D01*
X1842260Y1373149D01*
X1843168Y1378732D01*
X1845080Y1388343D01*
Y1433343D01*
X1842526Y1446179D01*
X1835255Y1461469D01*
Y1487217D01*
X1842526Y1502506D01*
X1845080Y1515343D01*
Y1560343D01*
X1842526Y1573179D01*
X1835255Y1584062D01*
X1824372Y1591334D01*
X1811535Y1593887D01*
X1629535D01*
X1616699Y1591334D01*
X1605816Y1584062D01*
X1598544Y1573179D01*
X1595991Y1560343D01*
Y1554731D01*
X1595287Y1533657D01*
X1546301Y1512519D01*
X1505245Y1530388D01*
Y1541370D01*
X1204445D01*
Y1507317D01*
X1148319D01*
X1133932Y1531420D01*
X1124257Y1557317D01*
X1128359Y1567220D01*
X1030641D01*
X1034922Y1556883D01*
X1035069Y1549959D01*
X1033036Y1539570D01*
X1023752Y1512172D01*
X1017066Y1501661D01*
X1008502Y1495939D01*
X982531Y1469969D01*
X974111Y1457366D01*
X971154Y1442500D01*
Y1252805D01*
X968736Y1251251D01*
X921154Y1237477D01*
X917323Y1241308D01*
X901700Y1247779D01*
Y1198920D01*
X876300D01*
Y1247779D01*
X860677Y1241308D01*
X847486Y1228116D01*
X838286Y1221479D01*
X813186Y1204102D01*
X792807Y1200343D01*
X755042D01*
X718056Y1231761D01*
X718056Y1231762D01*
X718056D01*
X715610Y1250342D01*
X717741Y1250914D01*
X727868Y1253627D01*
X748562Y1265575D01*
X765458Y1282471D01*
X777406Y1303165D01*
X783388Y1325493D01*
X692840D01*
X602292D01*
X608275Y1303165D01*
X620222Y1282471D01*
X637118Y1265575D01*
X657812Y1253627D01*
X667939Y1250914D01*
X670070Y1250342D01*
X667624Y1231762D01*
X667625D01*
X667624Y1231761D01*
X630638Y1200343D01*
X576690D01*
Y968043D01*
X808990D01*
Y1045346D01*
X974193D01*
X989058Y1048303D01*
X1001661Y1056724D01*
X1037469Y1092531D01*
X1045889Y1105134D01*
X1048847Y1120000D01*
Y1426409D01*
X1052061Y1429624D01*
X1204445D01*
Y1395570D01*
X1232422D01*
X1252260Y1353047D01*
X1253725Y1345570D01*
X1246496Y1334751D01*
X1243539Y1319885D01*
Y1292747D01*
X1206985D01*
Y1146947D01*
X1243539D01*
Y1007592D01*
X1206985D01*
Y861792D01*
X1507785D01*
Y1007592D01*
X1554239Y1016153D01*
X1766371D01*
X1802304Y982192D01*
X1802304Y966153D01*
Y947392D01*
X1852304D01*
Y921992D01*
X1802304D01*
X1802304Y892433D01*
X1801491Y880668D01*
X1796380Y839646D01*
X1792641Y830620D01*
X1895583D01*
X1900319Y835333D01*
X1931567Y861792D01*
X1941783Y861792D01*
X2077704D01*
Y895846D01*
X2159263D01*
X2180112Y846242D01*
X2173641Y830620D01*
X2271359D01*
X2264888Y846242D01*
X2285737Y895846D01*
X2349363D01*
Y861792D01*
X2650163D01*
Y1006153D01*
X2921822D01*
Y861792D01*
X2966154D01*
Y842500D01*
X2969111Y827634D01*
X2977532Y815031D01*
X3031231Y761332D01*
X3043834Y752911D01*
X3058700Y749954D01*
X3946300D01*
X3961166Y752911D01*
X3973769Y761332D01*
X4032469Y820032D01*
X4036136Y825521D01*
X4055834Y847077D01*
X4066985Y846685D01*
X4106154Y828022D01*
Y780000D01*
X4109111Y765134D01*
X4117532Y752532D01*
X4155032Y715031D01*
X4167635Y706610D01*
X4182500Y703653D01*
X5190000D01*
X5204866Y706610D01*
X5217468Y715031D01*
X5271810Y769373D01*
X5280231Y781976D01*
X5283188Y796842D01*
Y861792D01*
X5474880D01*
Y906153D01*
X5566417D01*
X5567131Y906039D01*
X5568902Y905570D01*
X5570922Y904826D01*
X5573214Y903744D01*
X5575775Y902276D01*
X5578588Y900378D01*
X5581629Y898022D01*
X5584876Y895185D01*
X5588747Y891425D01*
X5590722Y890146D01*
X5596203Y884665D01*
X5613397Y874738D01*
X5632573Y869600D01*
X5652426D01*
X5691951Y837500D01*
X5695354Y831272D01*
Y562791D01*
X5656409Y523846D01*
X5594689D01*
X5593908Y523916D01*
X5593651Y523958D01*
X5580552Y546647D01*
X5561859Y565339D01*
X5538965Y578557D01*
X5513430Y585399D01*
X5486994D01*
X5461459Y578557D01*
X5438565Y565339D01*
X5419872Y546647D01*
X5406654Y523753D01*
X5399812Y498217D01*
Y471782D01*
X5406654Y446247D01*
X5413813Y433846D01*
X5401377Y399937D01*
X5388667Y383847D01*
X5002971D01*
X4988856Y428000D01*
X4988856Y433847D01*
Y638800D01*
X4778056D01*
Y433847D01*
X4778056Y428000D01*
X4763941Y383847D01*
X4184177D01*
X4122361Y445662D01*
X4121857Y446265D01*
X4121705Y446477D01*
X4128486Y471782D01*
Y498218D01*
X4121644Y523753D01*
X4108426Y546647D01*
X4089733Y565340D01*
X4066839Y578558D01*
X4041304Y585400D01*
X4014868D01*
X3989333Y578558D01*
X3966439Y565340D01*
X3947746Y546647D01*
X3934528Y523753D01*
X3927686Y498218D01*
Y471782D01*
X3934528Y446247D01*
X3947746Y423353D01*
X3966439Y404660D01*
X3989333Y391442D01*
X4014868Y384600D01*
X4041304D01*
X4066609Y391381D01*
X4066821Y391229D01*
X4067423Y390726D01*
X4140618Y317531D01*
X4153220Y309111D01*
X4168086Y306154D01*
X5730000D01*
X5744866Y309111D01*
X5757469Y317531D01*
X5786154Y346216D01*
X5836153Y325506D01*
Y38847D01*
X38847D01*
Y3371153D01*
X1338456D01*
X1351165Y3355063D01*
D02*
G37*
G36*
X5036231Y2725486D02*
X5031857Y2724978D01*
X5027942Y2723454D01*
X5024488Y2720914D01*
X5021495Y2717358D01*
X5018962Y2712786D01*
X5016890Y2707198D01*
X5015278Y2700594D01*
X5014127Y2692974D01*
X5013436Y2684338D01*
X5013206Y2674686D01*
X4962406D01*
X4962152Y2684382D01*
X4961390Y2693059D01*
X4960120Y2700717D01*
X4958342Y2707356D01*
X4956056Y2712976D01*
X4953262Y2717577D01*
X4949960Y2721159D01*
X4946150Y2723722D01*
X4941832Y2725266D01*
X4937006Y2725791D01*
X5036231Y2725486D01*
D02*
G37*
G36*
X4614345Y2759132D02*
X4616271Y2751128D01*
X4618710Y2743328D01*
X4621660Y2735731D01*
X4625121Y2728337D01*
X4629094Y2721147D01*
X4633578Y2714161D01*
X4638574Y2707378D01*
X4644081Y2700798D01*
X4650099Y2694422D01*
X4614178Y2658501D01*
X4607802Y2664520D01*
X4601223Y2670027D01*
X4594440Y2675022D01*
X4587453Y2679507D01*
X4580263Y2683479D01*
X4572870Y2686941D01*
X4565273Y2689890D01*
X4557472Y2692329D01*
X4549468Y2694256D01*
X4541261Y2695671D01*
X4612929Y2767339D01*
X4614345Y2759132D01*
D02*
G37*
G36*
X3235324Y2780372D02*
Y2720372D01*
X3170325Y2655372D01*
X2980324D01*
X2915325Y2720372D01*
Y2780372D01*
X2980324Y2845372D01*
X3170325D01*
X3235324Y2780372D01*
D02*
G37*
G36*
X5512129Y2598591D02*
X5512510Y2594221D01*
X5513145Y2590365D01*
X5514034Y2587024D01*
X5515177Y2584196D01*
X5516574Y2581883D01*
X5518225Y2580083D01*
X5520130Y2578798D01*
X5522289Y2578027D01*
X5524702Y2577770D01*
X5473902D01*
X5476315Y2578027D01*
X5478474Y2578798D01*
X5480379Y2580083D01*
X5482030Y2581883D01*
X5483427Y2584196D01*
X5484570Y2587024D01*
X5485459Y2590365D01*
X5486094Y2594221D01*
X5486475Y2598591D01*
X5486602Y2603475D01*
X5512002D01*
X5512129Y2598591D01*
D02*
G37*
G36*
X5013460Y2619179D02*
X5014222Y2610502D01*
X5015492Y2602844D01*
X5017270Y2596205D01*
X5019556Y2590585D01*
X5022350Y2585984D01*
X5025652Y2582402D01*
X5029462Y2579839D01*
X5033780Y2578295D01*
X5038606Y2577770D01*
X4939381Y2578075D01*
X4943756Y2578583D01*
X4947670Y2580107D01*
X4951124Y2582647D01*
X4954117Y2586203D01*
X4956650Y2590775D01*
X4958722Y2596363D01*
X4960334Y2602967D01*
X4961485Y2610587D01*
X4962176Y2619223D01*
X4962406Y2628875D01*
X5013206D01*
X5013460Y2619179D01*
D02*
G37*
G36*
X4657234Y2596366D02*
X4657292Y2596009D01*
X4657343Y2594937D01*
X4657539Y2560638D01*
X4606739D01*
X4606635Y2567475D01*
X4605809Y2578993D01*
X4605086Y2583674D01*
X4604157Y2587637D01*
X4603021Y2590881D01*
X4601678Y2593407D01*
X4600128Y2595213D01*
X4598373Y2596302D01*
X4596410Y2596671D01*
X4657234Y2596366D01*
D02*
G37*
G36*
X1805595Y2741196D02*
X1809771Y2676758D01*
X1810480Y2675152D01*
X1816830Y2667532D01*
X1825720Y2660928D01*
X1837150Y2655340D01*
X1851120Y2650768D01*
X1867630Y2647212D01*
X1908270Y2643148D01*
X1932400Y2642640D01*
X1780000Y2515640D01*
X1627600Y2642640D01*
X1651730Y2643148D01*
X1673320Y2644672D01*
X1692370Y2647212D01*
X1708880Y2650768D01*
X1722850Y2655340D01*
X1734280Y2660928D01*
X1743170Y2667532D01*
X1749520Y2675152D01*
X1750558Y2677504D01*
X1752842Y2700985D01*
X1754405Y2741196D01*
X1754600Y2764339D01*
X1805400D01*
X1805595Y2741196D01*
D02*
G37*
G36*
X5608481Y2513100D02*
X5607394Y2514065D01*
X5606124Y2514928D01*
X5604671Y2515690D01*
X5603035Y2516351D01*
X5601217Y2516910D01*
X5599216Y2517367D01*
X5597032Y2517722D01*
X5594665Y2517976D01*
X5589383Y2518180D01*
Y2543580D01*
X5592116Y2543630D01*
X5597032Y2544037D01*
X5599216Y2544392D01*
X5601217Y2544850D01*
X5603035Y2545408D01*
X5604671Y2546069D01*
X5606124Y2546831D01*
X5607394Y2547694D01*
X5608481Y2548660D01*
Y2513100D01*
D02*
G37*
G36*
X5548949Y2553867D02*
X5549720Y2551708D01*
X5551005Y2549803D01*
X5552805Y2548152D01*
X5555118Y2546755D01*
X5557946Y2545612D01*
X5561287Y2544723D01*
X5565143Y2544088D01*
X5569513Y2543707D01*
X5574397Y2543580D01*
Y2518180D01*
X5569513Y2518053D01*
X5565143Y2517672D01*
X5561287Y2517037D01*
X5557946Y2516148D01*
X5555118Y2515005D01*
X5552805Y2513608D01*
X5551005Y2511957D01*
X5549720Y2510052D01*
X5548949Y2507893D01*
X5548692Y2505480D01*
Y2556280D01*
X5548949Y2553867D01*
D02*
G37*
G36*
X3856843Y2484867D02*
X3856335Y2488532D01*
X3854811Y2491813D01*
X3852271Y2494707D01*
X3848715Y2497215D01*
X3844143Y2499338D01*
X3838555Y2501075D01*
X3831951Y2502425D01*
X3824331Y2503390D01*
X3815695Y2503969D01*
X3806043Y2504162D01*
Y2554962D01*
X3815695Y2555155D01*
X3831951Y2556698D01*
X3838555Y2558049D01*
X3844143Y2559785D01*
X3848715Y2561908D01*
X3852271Y2564416D01*
X3854811Y2567311D01*
X3856335Y2570591D01*
X3856843Y2574257D01*
Y2484867D01*
D02*
G37*
G36*
X5012987Y2483732D02*
X5010828Y2482961D01*
X5008923Y2481676D01*
X5007272Y2479876D01*
X5005875Y2477563D01*
X5004732Y2474735D01*
X5003843Y2471394D01*
X5003208Y2467538D01*
X5002827Y2463168D01*
X5002700Y2458284D01*
X4977300D01*
X4977173Y2463168D01*
X4976792Y2467538D01*
X4976157Y2471394D01*
X4975268Y2474735D01*
X4974125Y2477563D01*
X4972728Y2479876D01*
X4971077Y2481676D01*
X4969172Y2482961D01*
X4967013Y2483732D01*
X4964600Y2483989D01*
X5015400D01*
X5012987Y2483732D01*
D02*
G37*
G36*
X3384374Y2500305D02*
X3438765D01*
X3438423Y2499797D01*
X3438118Y2498273D01*
X3437849Y2495733D01*
X3437418Y2487605D01*
X3436970Y2449505D01*
X3386170D01*
X3384374Y2500305D01*
X3383866Y2503971D01*
X3382342Y2507251D01*
X3379802Y2510145D01*
X3376246Y2512654D01*
X3371674Y2514776D01*
X3366086Y2516513D01*
X3359482Y2517863D01*
X3351862Y2518828D01*
X3343226Y2519407D01*
X3333574Y2519600D01*
Y2570400D01*
X3343226Y2570593D01*
X3359482Y2572137D01*
X3366086Y2573487D01*
X3371674Y2575224D01*
X3376246Y2577346D01*
X3379802Y2579855D01*
X3382342Y2582749D01*
X3383866Y2586029D01*
X3384374Y2589695D01*
Y2500305D01*
D02*
G37*
G36*
X5394381Y2483179D02*
X5390250Y2481665D01*
X5386606Y2479141D01*
X5383448Y2475607D01*
X5380775Y2471063D01*
X5378589Y2465509D01*
X5376888Y2458946D01*
X5375673Y2451374D01*
X5374944Y2442791D01*
X5374701Y2433199D01*
X5323901D01*
X5323659Y2442791D01*
X5322930Y2451374D01*
X5321715Y2458946D01*
X5320014Y2465509D01*
X5317828Y2471063D01*
X5315155Y2475607D01*
X5311997Y2479141D01*
X5308353Y2481665D01*
X5304223Y2483179D01*
X5299606Y2483684D01*
X5398997D01*
X5394381Y2483179D01*
D02*
G37*
G36*
X4789381Y2483684D02*
X4888771D01*
X4884155Y2483176D01*
X4880025Y2481652D01*
X4876380Y2479112D01*
X4873222Y2475556D01*
X4870550Y2470984D01*
X4868363Y2465396D01*
X4866662Y2458792D01*
X4865448Y2451172D01*
X4864719Y2442536D01*
X4864476Y2432884D01*
X4813676D01*
X4813433Y2442536D01*
X4812704Y2451172D01*
X4811489Y2458792D01*
X4809789Y2465396D01*
X4807602Y2470984D01*
X4804930Y2475556D01*
X4801771Y2479112D01*
X4798127Y2481652D01*
X4793997Y2483176D01*
X4789381Y2483684D01*
X4788873Y2487826D01*
X4787349Y2491531D01*
X4784809Y2494800D01*
X4781253Y2497633D01*
X4776681Y2500031D01*
X4771093Y2501992D01*
X4764489Y2503518D01*
X4756869Y2504608D01*
X4748233Y2505262D01*
X4738581Y2505480D01*
Y2556280D01*
X4748233Y2556498D01*
X4756869Y2557151D01*
X4764489Y2558241D01*
X4771093Y2559767D01*
X4776681Y2561728D01*
X4781253Y2564126D01*
X4784809Y2566959D01*
X4787349Y2570229D01*
X4788873Y2573934D01*
X4789381Y2578075D01*
Y2483684D01*
D02*
G37*
G36*
X5002751Y2442005D02*
X5003157Y2437088D01*
X5003513Y2434904D01*
X5003970Y2432903D01*
X5004529Y2431085D01*
X5005189Y2429449D01*
X5005951Y2427996D01*
X5006815Y2426726D01*
X5007780Y2425639D01*
X4972220D01*
X4973185Y2426726D01*
X4974049Y2427996D01*
X4974811Y2429449D01*
X4975471Y2431085D01*
X4976030Y2432903D01*
X4976487Y2434904D01*
X4976843Y2437088D01*
X4977097Y2439455D01*
X4977300Y2444737D01*
X5002700D01*
X5002751Y2442005D01*
D02*
G37*
G36*
X4580344Y2560638D02*
X4584286Y2540817D01*
X4595514Y2524013D01*
X4625272Y2494256D01*
X4625272Y2494255D01*
X4642076Y2483027D01*
X4661897Y2479084D01*
X4750948D01*
X4754054Y2478849D01*
X4759732Y2478037D01*
X4763676Y2477126D01*
Y2457980D01*
X4784881D01*
X4785100Y2457419D01*
X4786107Y2453512D01*
X4786978Y2448042D01*
X4787281Y2444462D01*
Y2370924D01*
X4791223Y2351103D01*
X4802451Y2334299D01*
X4861333Y2275418D01*
X4840622Y2225418D01*
X4805190Y2225418D01*
X4804221Y2225611D01*
X4778516Y2225418D01*
X4729182Y2206813D01*
X4670071D01*
X4666330Y2207143D01*
X4660943Y2208041D01*
X4657134Y2209066D01*
X4656249Y2209429D01*
Y2240418D01*
X4496249D01*
X4495449Y2240418D01*
X4446249D01*
X4436632Y2253354D01*
X4454903Y2310442D01*
X4459401Y2311708D01*
X4467644Y2312065D01*
X4480177Y2299532D01*
X4495800Y2293061D01*
Y2341920D01*
Y2390779D01*
X4480177Y2384308D01*
X4467644Y2371775D01*
X4459401Y2372132D01*
X4417644Y2383887D01*
Y2570662D01*
X4580344D01*
Y2560638D01*
D02*
G37*
G36*
X3437224Y2277475D02*
X3437986Y2268787D01*
X3439256Y2261121D01*
X3441034Y2254478D01*
X3443320Y2248856D01*
X3446114Y2244257D01*
X3449416Y2240679D01*
X3453226Y2238124D01*
X3457544Y2236591D01*
X3462370Y2236080D01*
X3360770D01*
X3365596Y2236591D01*
X3369914Y2238124D01*
X3373724Y2240679D01*
X3377026Y2244257D01*
X3379820Y2248856D01*
X3382106Y2254478D01*
X3383884Y2261121D01*
X3385154Y2268787D01*
X3385916Y2277475D01*
X3386170Y2287185D01*
X3436970D01*
X3437224Y2277475D01*
D02*
G37*
G36*
X5394914Y2216194D02*
X5391364Y2219494D01*
X5387522Y2222447D01*
X5383390Y2225053D01*
X5378966Y2227311D01*
X5374252Y2229222D01*
X5369247Y2230785D01*
X5363951Y2232001D01*
X5358364Y2232869D01*
X5352487Y2233390D01*
X5346318Y2233564D01*
Y2284364D01*
X5352487Y2284538D01*
X5358364Y2285059D01*
X5363951Y2285927D01*
X5369247Y2287143D01*
X5374252Y2288706D01*
X5378966Y2290617D01*
X5383390Y2292875D01*
X5387522Y2295481D01*
X5391364Y2298434D01*
X5394914Y2301734D01*
Y2216194D01*
D02*
G37*
G36*
X4391503Y2255803D02*
X4392265Y2247115D01*
X4393535Y2239450D01*
X4395313Y2232806D01*
X4397599Y2227185D01*
X4400393Y2222585D01*
X4403695Y2219008D01*
X4407505Y2216453D01*
X4411823Y2214919D01*
X4416649Y2214408D01*
X4315049D01*
X4319875Y2214919D01*
X4324193Y2216453D01*
X4328003Y2219008D01*
X4331305Y2222585D01*
X4334099Y2227185D01*
X4336385Y2232806D01*
X4338163Y2239450D01*
X4339433Y2247115D01*
X4340195Y2255803D01*
X4340449Y2265513D01*
X4391249D01*
X4391503Y2255803D01*
D02*
G37*
G36*
X3484873Y2234693D02*
X3487828Y2234093D01*
X3491617Y2233563D01*
X3501695Y2232716D01*
X3531854Y2231869D01*
X3541477Y2231833D01*
Y2181033D01*
X3531854Y2180998D01*
X3484873Y2178173D01*
X3482751Y2177502D01*
Y2235364D01*
X3484873Y2234693D01*
D02*
G37*
G36*
X3347248Y2177502D02*
X3345126Y2178173D01*
X3342171Y2178773D01*
X3338382Y2179303D01*
X3328304Y2180151D01*
X3298145Y2180998D01*
X3288522Y2181033D01*
Y2231833D01*
X3298145Y2231869D01*
X3345126Y2234693D01*
X3347248Y2235364D01*
Y2177502D01*
D02*
G37*
G36*
X2456567Y2221407D02*
X2458100Y2217089D01*
X2460655Y2213279D01*
X2464232Y2209977D01*
X2468832Y2207183D01*
X2474453Y2204897D01*
X2481097Y2203119D01*
X2488763Y2201849D01*
X2497450Y2201087D01*
X2507160Y2200833D01*
Y2150033D01*
X2497450Y2149779D01*
X2488763Y2149017D01*
X2481097Y2147747D01*
X2474453Y2145969D01*
X2468832Y2143683D01*
X2464232Y2140889D01*
X2460655Y2137587D01*
X2458100Y2133777D01*
X2456567Y2129459D01*
X2456056Y2124633D01*
Y2226233D01*
X2456567Y2221407D01*
D02*
G37*
G36*
X4804221Y2110323D02*
X4803713Y2113989D01*
X4802189Y2117269D01*
X4799649Y2120163D01*
X4796093Y2122672D01*
X4791521Y2124794D01*
X4785933Y2126531D01*
X4779329Y2127881D01*
X4771709Y2128846D01*
X4763073Y2129425D01*
X4753421Y2129618D01*
Y2180418D01*
X4763073Y2180611D01*
X4779329Y2182155D01*
X4785933Y2183505D01*
X4791521Y2185242D01*
X4796093Y2187364D01*
X4799649Y2189873D01*
X4802189Y2192767D01*
X4803713Y2196047D01*
X4804221Y2199713D01*
Y2110323D01*
D02*
G37*
G36*
X4631052Y2200992D02*
X4632576Y2196674D01*
X4635116Y2192864D01*
X4638672Y2189562D01*
X4643244Y2186768D01*
X4648832Y2184482D01*
X4655436Y2182704D01*
X4663056Y2181434D01*
X4671692Y2180672D01*
X4681344Y2180418D01*
Y2129618D01*
X4671692Y2129364D01*
X4663056Y2128602D01*
X4655436Y2127332D01*
X4648832Y2125554D01*
X4643244Y2123268D01*
X4638672Y2120474D01*
X4635116Y2117172D01*
X4632576Y2113362D01*
X4631052Y2109044D01*
X4630544Y2104218D01*
Y2205818D01*
X4631052Y2200992D01*
D02*
G37*
G36*
X2782248Y2050502D02*
X2780126Y2051173D01*
X2777171Y2051773D01*
X2773382Y2052303D01*
X2763304Y2053151D01*
X2733145Y2053998D01*
X2723522Y2054033D01*
Y2104833D01*
X2733145Y2104869D01*
X2780126Y2107693D01*
X2782248Y2108364D01*
Y2050502D01*
D02*
G37*
G36*
X5570242Y2002500D02*
Y1977100D01*
X5508921Y2027900D01*
X5518796Y2028123D01*
X5528101Y2028793D01*
X5536838Y2029909D01*
X5545004Y2031471D01*
X5552601Y2033480D01*
X5559627Y2035935D01*
X5566085Y2038836D01*
X5571973Y2042184D01*
X5577291Y2045978D01*
X5582039Y2050219D01*
X5570242Y2002500D01*
D02*
G37*
G36*
X5233287Y2042512D02*
X5237010Y2039445D01*
X5241039Y2036739D01*
X5245375Y2034394D01*
X5250018Y2032410D01*
X5254969Y2030786D01*
X5260226Y2029524D01*
X5265790Y2028622D01*
X5271662Y2028080D01*
X5277840Y2027900D01*
X5275585Y1977100D01*
X5269425Y1976934D01*
X5263541Y1976435D01*
X5257934Y1975603D01*
X5252603Y1974439D01*
X5247549Y1972942D01*
X5242771Y1971113D01*
X5238269Y1968951D01*
X5234044Y1966456D01*
X5230095Y1963629D01*
X5226422Y1960469D01*
X5229872Y2045940D01*
X5233287Y2042512D01*
D02*
G37*
G36*
X4805066Y1804943D02*
X4804809Y1807356D01*
X4804038Y1809515D01*
X4802752Y1811420D01*
X4800953Y1813071D01*
X4798640Y1814468D01*
X4795812Y1815611D01*
X4792470Y1816500D01*
X4788615Y1817135D01*
X4784245Y1817516D01*
X4779361Y1817643D01*
Y1843043D01*
X4784245Y1843170D01*
X4788615Y1843551D01*
X4792470Y1844186D01*
X4795812Y1845075D01*
X4798640Y1846218D01*
X4800953Y1847615D01*
X4802752Y1849266D01*
X4804038Y1851171D01*
X4804809Y1853330D01*
X4805066Y1855743D01*
Y1804943D01*
D02*
G37*
G36*
X4630496Y1853330D02*
X4631268Y1851171D01*
X4632553Y1849266D01*
X4634352Y1847615D01*
X4636666Y1846218D01*
X4639493Y1845075D01*
X4642835Y1844186D01*
X4646690Y1843551D01*
X4651060Y1843170D01*
X4655944Y1843043D01*
Y1817643D01*
X4651060Y1817516D01*
X4646690Y1817135D01*
X4642835Y1816500D01*
X4639493Y1815611D01*
X4636666Y1814468D01*
X4634352Y1813071D01*
X4632553Y1811420D01*
X4631268Y1809515D01*
X4630496Y1807356D01*
X4630239Y1804943D01*
Y1855743D01*
X4630496Y1853330D01*
D02*
G37*
G36*
X3484873Y1853693D02*
X3487828Y1853093D01*
X3491617Y1852563D01*
X3501695Y1851716D01*
X3531854Y1850869D01*
X3541477Y1850833D01*
Y1800033D01*
X3531854Y1799998D01*
X3484873Y1797173D01*
X3482751Y1796502D01*
Y1854364D01*
X3484873Y1853693D01*
D02*
G37*
G36*
X2782248Y1796502D02*
X2780126Y1797173D01*
X2777171Y1797773D01*
X2773382Y1798303D01*
X2763304Y1799151D01*
X2733145Y1799998D01*
X2723522Y1800033D01*
Y1850833D01*
X2733145Y1850869D01*
X2780126Y1853693D01*
X2782248Y1854364D01*
Y1796502D01*
D02*
G37*
G36*
X4311154Y1779543D02*
X4310646Y1784369D01*
X4309122Y1788687D01*
X4306582Y1792497D01*
X4303026Y1795799D01*
X4298454Y1798593D01*
X4292866Y1800879D01*
X4286262Y1802657D01*
X4278642Y1803927D01*
X4270006Y1804689D01*
X4260354Y1804943D01*
Y1855743D01*
X4270006Y1855997D01*
X4278642Y1856759D01*
X4286262Y1858029D01*
X4292866Y1859807D01*
X4298454Y1862093D01*
X4303026Y1864887D01*
X4306582Y1868189D01*
X4309122Y1871999D01*
X4310646Y1876317D01*
X4311154Y1881143D01*
Y1779543D01*
D02*
G37*
G36*
X3981888Y1876317D02*
X3983422Y1871999D01*
X3985977Y1868189D01*
X3989554Y1864887D01*
X3994154Y1862093D01*
X3999775Y1859807D01*
X4006419Y1858029D01*
X4014084Y1856759D01*
X4022772Y1855997D01*
X4032482Y1855743D01*
Y1804943D01*
X4022772Y1804689D01*
X4014084Y1803927D01*
X4006419Y1802657D01*
X3999775Y1800879D01*
X3994154Y1798593D01*
X3989554Y1795799D01*
X3985977Y1792497D01*
X3983422Y1788687D01*
X3981888Y1784369D01*
X3981377Y1779543D01*
Y1881143D01*
X3981888Y1876317D01*
D02*
G37*
G36*
X3822292Y1774633D02*
X3821784Y1779459D01*
X3820260Y1783777D01*
X3817720Y1787587D01*
X3814164Y1790889D01*
X3809592Y1793683D01*
X3804004Y1795969D01*
X3797400Y1797747D01*
X3789780Y1799017D01*
X3781144Y1799779D01*
X3771492Y1800033D01*
Y1850833D01*
X3781144Y1851087D01*
X3789780Y1851849D01*
X3797400Y1853119D01*
X3804004Y1854897D01*
X3809592Y1857183D01*
X3814164Y1859977D01*
X3817720Y1863279D01*
X3820260Y1867089D01*
X3821784Y1871407D01*
X3822292Y1876233D01*
Y1774633D01*
D02*
G37*
G36*
X2456567Y1871407D02*
X2458100Y1867089D01*
X2460655Y1863279D01*
X2464232Y1859977D01*
X2468832Y1857183D01*
X2474453Y1854897D01*
X2481097Y1853119D01*
X2488763Y1851849D01*
X2497450Y1851087D01*
X2507160Y1850833D01*
Y1800033D01*
X2497450Y1799779D01*
X2488763Y1799017D01*
X2481097Y1797747D01*
X2474453Y1795969D01*
X2468832Y1793683D01*
X2464232Y1790889D01*
X2460655Y1787587D01*
X2458100Y1783777D01*
X2456567Y1779459D01*
X2456056Y1774633D01*
Y1876233D01*
X2456567Y1871407D01*
D02*
G37*
G36*
X2025291Y1703115D02*
X2023132Y1702344D01*
X2021227Y1701059D01*
X2019576Y1699259D01*
X2018179Y1696946D01*
X2017036Y1694118D01*
X2016147Y1690777D01*
X2015512Y1686921D01*
X2015131Y1682551D01*
X2015004Y1677667D01*
X1989604D01*
X1989477Y1682551D01*
X1989096Y1686921D01*
X1988461Y1690777D01*
X1987572Y1694118D01*
X1986429Y1696946D01*
X1985032Y1699259D01*
X1983381Y1701059D01*
X1981476Y1702344D01*
X1979317Y1703115D01*
X1976904Y1703372D01*
X2027704D01*
X2025291Y1703115D01*
D02*
G37*
G36*
X2531822Y1580766D02*
X2530959Y1579496D01*
X2530197Y1578043D01*
X2529536Y1576408D01*
X2528978Y1574589D01*
X2528520Y1572588D01*
X2528165Y1570404D01*
X2527911Y1568037D01*
X2527708Y1562755D01*
X2502308D01*
X2502257Y1565488D01*
X2501850Y1570404D01*
X2501495Y1572588D01*
X2501038Y1574589D01*
X2500479Y1576408D01*
X2499818Y1578043D01*
X2499056Y1579496D01*
X2498193Y1580766D01*
X2497228Y1581853D01*
X2532788D01*
X2531822Y1580766D01*
D02*
G37*
G36*
X2527835Y1536182D02*
X2528216Y1531812D01*
X2528851Y1527956D01*
X2529740Y1524614D01*
X2530883Y1521787D01*
X2532280Y1519473D01*
X2533931Y1517674D01*
X2535836Y1516389D01*
X2537995Y1515618D01*
X2540408Y1515361D01*
X2489608D01*
X2492021Y1515618D01*
X2494180Y1516389D01*
X2496085Y1517674D01*
X2497736Y1519473D01*
X2499133Y1521787D01*
X2500276Y1524614D01*
X2501165Y1527956D01*
X2501800Y1531812D01*
X2502181Y1536182D01*
X2502308Y1541065D01*
X2527708D01*
X2527835Y1536182D01*
D02*
G37*
G36*
X1479794Y1491457D02*
X1480556Y1489298D01*
X1481826Y1487393D01*
X1483604Y1485742D01*
X1485890Y1484345D01*
X1488684Y1483202D01*
X1491986Y1482313D01*
X1495796Y1481678D01*
X1500114Y1481297D01*
X1504940Y1481170D01*
Y1455770D01*
X1500114Y1455643D01*
X1495796Y1455262D01*
X1491986Y1454627D01*
X1488684Y1453738D01*
X1485890Y1452595D01*
X1483604Y1451198D01*
X1481826Y1449547D01*
X1480556Y1447642D01*
X1479794Y1445483D01*
X1479540Y1443070D01*
Y1493870D01*
X1479794Y1491457D01*
D02*
G37*
G36*
X1230455Y1443070D02*
X1230198Y1445483D01*
X1229427Y1447642D01*
X1228141Y1449547D01*
X1226342Y1451198D01*
X1224029Y1452595D01*
X1221201Y1453738D01*
X1217859Y1454627D01*
X1214004Y1455262D01*
X1209634Y1455643D01*
X1204750Y1455770D01*
Y1481170D01*
X1209634Y1481297D01*
X1214004Y1481678D01*
X1217859Y1482313D01*
X1221201Y1483202D01*
X1224029Y1484345D01*
X1226342Y1485742D01*
X1228141Y1487393D01*
X1229427Y1489298D01*
X1230198Y1491457D01*
X1230455Y1493870D01*
Y1443070D01*
D02*
G37*
G36*
X5487117Y1442146D02*
X5486863Y1443000D01*
X5486101Y1443764D01*
X5484831Y1444438D01*
X5483053Y1445023D01*
X5480767Y1445517D01*
X5477973Y1445922D01*
X5470861Y1446461D01*
X5461717Y1446641D01*
Y1472041D01*
X5466543Y1472086D01*
X5480767Y1473165D01*
X5483053Y1473659D01*
X5484831Y1474244D01*
X5486101Y1474918D01*
X5486863Y1475682D01*
X5487117Y1476536D01*
Y1442146D01*
D02*
G37*
G36*
X3949714Y1461309D02*
X3950095Y1456772D01*
X3950730Y1452797D01*
X3951619Y1449384D01*
X3952762Y1446532D01*
X3954159Y1444243D01*
X3955810Y1442515D01*
X3957715Y1441349D01*
X3959874Y1440746D01*
X3962287Y1440704D01*
X3917410Y1436480D01*
X3918698Y1438605D01*
X3919850Y1440923D01*
X3920866Y1443433D01*
X3921748Y1446137D01*
X3922493Y1449034D01*
X3923103Y1452123D01*
X3923916Y1458880D01*
X3924120Y1462548D01*
X3924187Y1466409D01*
X3949587D01*
X3949714Y1461309D01*
D02*
G37*
G36*
X1627435Y1453580D02*
X1636811Y1445616D01*
X1640951Y1442712D01*
X1644726Y1440526D01*
X1648135Y1439059D01*
X1651180Y1438310D01*
X1653859Y1438280D01*
X1656172Y1438968D01*
X1658120Y1440374D01*
X1622504Y1404758D01*
X1623910Y1406706D01*
X1624598Y1409020D01*
X1624568Y1411698D01*
X1623819Y1414743D01*
X1622352Y1418152D01*
X1620166Y1421927D01*
X1617262Y1426067D01*
X1613639Y1430572D01*
X1604239Y1440679D01*
X1622199Y1458639D01*
X1627435Y1453580D01*
D02*
G37*
G36*
X2687995Y1421323D02*
X2685836Y1420552D01*
X2683931Y1419266D01*
X2682280Y1417467D01*
X2680883Y1415154D01*
X2679740Y1412326D01*
X2678851Y1408984D01*
X2678216Y1405129D01*
X2677835Y1400759D01*
X2677708Y1395875D01*
X2652308D01*
X2652181Y1400759D01*
X2651800Y1405129D01*
X2651165Y1408984D01*
X2650276Y1412326D01*
X2649133Y1415154D01*
X2647736Y1417467D01*
X2646085Y1419266D01*
X2644180Y1420552D01*
X2642021Y1421323D01*
X2639608Y1421580D01*
X2690408D01*
X2687995Y1421323D01*
D02*
G37*
G36*
X1452832D02*
X1450673Y1420552D01*
X1448768Y1419266D01*
X1447117Y1417467D01*
X1445720Y1415154D01*
X1444577Y1412326D01*
X1443688Y1408984D01*
X1443053Y1405129D01*
X1442672Y1400759D01*
X1442545Y1395875D01*
X1417145D01*
X1417018Y1400759D01*
X1416637Y1405129D01*
X1416002Y1408984D01*
X1415113Y1412326D01*
X1413970Y1415154D01*
X1412573Y1417467D01*
X1410922Y1419266D01*
X1409017Y1420552D01*
X1406858Y1421323D01*
X1404445Y1421580D01*
X1455245D01*
X1452832Y1421323D01*
D02*
G37*
G36*
X3095279Y1433693D02*
X3096067Y1431562D01*
X3097381Y1429683D01*
X3099220Y1428054D01*
X3101585Y1426675D01*
X3104475Y1425548D01*
X3107891Y1424671D01*
X3111832Y1424044D01*
X3116298Y1423668D01*
X3121290Y1423543D01*
Y1398143D01*
X3116298Y1398018D01*
X3111832Y1397642D01*
X3107891Y1397015D01*
X3104475Y1396138D01*
X3101585Y1395010D01*
X3099220Y1393632D01*
X3097381Y1392003D01*
X3096067Y1390123D01*
X3095279Y1387993D01*
X3095016Y1385612D01*
Y1436073D01*
X3095279Y1433693D01*
D02*
G37*
G36*
X3397747Y1381565D02*
X3396156Y1382302D01*
X3393702Y1382961D01*
X3390386Y1383543D01*
X3386208Y1384047D01*
X3368503Y1385094D01*
X3343039Y1385443D01*
Y1436243D01*
X3352389Y1436282D01*
X3393702Y1438724D01*
X3396156Y1439383D01*
X3397747Y1440120D01*
Y1381565D01*
D02*
G37*
G36*
X5126761Y1410658D02*
X5127523Y1409894D01*
X5128793Y1409220D01*
X5130571Y1408635D01*
X5132857Y1408141D01*
X5135651Y1407736D01*
X5142763Y1407197D01*
X5151907Y1407017D01*
Y1381617D01*
X5147081Y1381572D01*
X5132857Y1380493D01*
X5130571Y1379999D01*
X5128793Y1379414D01*
X5127523Y1378740D01*
X5126761Y1377976D01*
X5126507Y1377122D01*
Y1411512D01*
X5126761Y1410658D01*
D02*
G37*
G36*
X5487117Y1312098D02*
X5486863Y1312952D01*
X5486101Y1313716D01*
X5484831Y1314390D01*
X5483053Y1314975D01*
X5480767Y1315469D01*
X5477973Y1315874D01*
X5470861Y1316413D01*
X5461717Y1316593D01*
Y1341993D01*
X5466543Y1342038D01*
X5480767Y1343117D01*
X5483053Y1343611D01*
X5484831Y1344196D01*
X5486101Y1344870D01*
X5486863Y1345634D01*
X5487117Y1346488D01*
Y1312098D01*
D02*
G37*
G36*
X1295212Y1287558D02*
X1295593Y1283188D01*
X1296228Y1279333D01*
X1297117Y1275991D01*
X1298260Y1273164D01*
X1299657Y1270850D01*
X1301308Y1269051D01*
X1303213Y1267766D01*
X1305372Y1266994D01*
X1307785Y1266737D01*
X1256985D01*
X1259398Y1266994D01*
X1261557Y1267766D01*
X1263462Y1269051D01*
X1265113Y1270850D01*
X1266510Y1273164D01*
X1267653Y1275991D01*
X1268542Y1279333D01*
X1269177Y1283188D01*
X1269558Y1287558D01*
X1269685Y1292442D01*
X1295085D01*
X1295212Y1287558D01*
D02*
G37*
G36*
X3394092Y1258612D02*
X3393829Y1260993D01*
X3393041Y1263123D01*
X3391728Y1265003D01*
X3389888Y1266632D01*
X3387524Y1268010D01*
X3384634Y1269138D01*
X3381218Y1270015D01*
X3377277Y1270642D01*
X3372810Y1271018D01*
X3367818Y1271143D01*
Y1296543D01*
X3372810Y1296668D01*
X3377277Y1297044D01*
X3381218Y1297671D01*
X3384634Y1298548D01*
X3387524Y1299675D01*
X3389888Y1301054D01*
X3391728Y1302683D01*
X3393041Y1304562D01*
X3393829Y1306693D01*
X3394092Y1309073D01*
Y1258612D01*
D02*
G37*
G36*
X2900092D02*
X2899829Y1260993D01*
X2899041Y1263123D01*
X2897728Y1265003D01*
X2895888Y1266632D01*
X2893524Y1268010D01*
X2890634Y1269138D01*
X2887218Y1270015D01*
X2883277Y1270642D01*
X2878810Y1271018D01*
X2873818Y1271143D01*
Y1296543D01*
X2878810Y1296668D01*
X2883277Y1297044D01*
X2887218Y1297671D01*
X2890634Y1298548D01*
X2893524Y1299675D01*
X2895888Y1301054D01*
X2897728Y1302683D01*
X2899041Y1304562D01*
X2899829Y1306693D01*
X2900092Y1309073D01*
Y1258612D01*
D02*
G37*
G36*
X2312260Y1306693D02*
X2313048Y1304562D01*
X2314362Y1302683D01*
X2316201Y1301054D01*
X2318566Y1299675D01*
X2321456Y1298548D01*
X2324872Y1297671D01*
X2328813Y1297044D01*
X2333279Y1296668D01*
X2338271Y1296543D01*
Y1271143D01*
X2333279Y1271018D01*
X2328813Y1270642D01*
X2324872Y1270015D01*
X2321456Y1269138D01*
X2318566Y1268010D01*
X2316201Y1266632D01*
X2314362Y1265003D01*
X2313048Y1263123D01*
X2312260Y1260993D01*
X2311997Y1258612D01*
Y1309073D01*
X2312260Y1306693D01*
D02*
G37*
G36*
X1818260D02*
X1819048Y1304562D01*
X1820362Y1302683D01*
X1822201Y1301054D01*
X1824566Y1299675D01*
X1827456Y1298548D01*
X1830872Y1297671D01*
X1834813Y1297044D01*
X1839279Y1296668D01*
X1844271Y1296543D01*
Y1271143D01*
X1839279Y1271018D01*
X1834813Y1270642D01*
X1830872Y1270015D01*
X1827456Y1269138D01*
X1824566Y1268010D01*
X1822201Y1266632D01*
X1820362Y1265003D01*
X1819048Y1263123D01*
X1818260Y1260993D01*
X1817997Y1258612D01*
Y1309073D01*
X1818260Y1306693D01*
D02*
G37*
G36*
X2677835Y1269260D02*
X2678216Y1264890D01*
X2678851Y1261034D01*
X2679740Y1257693D01*
X2680883Y1254865D01*
X2682280Y1252552D01*
X2683931Y1250752D01*
X2685836Y1249467D01*
X2687995Y1248696D01*
X2690408Y1248439D01*
X2639608D01*
X2642021Y1248696D01*
X2644180Y1249467D01*
X2646085Y1250752D01*
X2647736Y1252552D01*
X2649133Y1254865D01*
X2650276Y1257693D01*
X2651165Y1261034D01*
X2651800Y1264890D01*
X2652181Y1269260D01*
X2652308Y1274144D01*
X2677708D01*
X2677835Y1269260D01*
D02*
G37*
G36*
X4592483Y1244171D02*
X4592150Y1245655D01*
X4591545Y1246983D01*
X4590669Y1248154D01*
X4589520Y1249170D01*
X4588099Y1250029D01*
X4586405Y1250732D01*
X4584440Y1251279D01*
X4582202Y1251669D01*
X4579692Y1251904D01*
X4576911Y1251981D01*
Y1277381D01*
X4581230Y1277435D01*
X4592038Y1278244D01*
X4594924Y1278729D01*
X4597452Y1279323D01*
X4599621Y1280024D01*
X4601433Y1280832D01*
X4602886Y1281749D01*
X4603981Y1282774D01*
X4592483Y1244171D01*
D02*
G37*
G36*
X4679667Y1283733D02*
X4681688Y1282400D01*
X4684041Y1281224D01*
X4686727Y1280204D01*
X4689746Y1279342D01*
X4693097Y1278636D01*
X4696781Y1278087D01*
X4705148Y1277460D01*
X4709830Y1277381D01*
Y1251981D01*
X4706673Y1251871D01*
X4703802Y1251539D01*
X4701219Y1250985D01*
X4698924Y1250209D01*
X4696915Y1249212D01*
X4695194Y1247994D01*
X4693760Y1246554D01*
X4692613Y1244892D01*
X4691753Y1243009D01*
X4691181Y1240904D01*
X4677979Y1285223D01*
X4679667Y1283733D01*
D02*
G37*
G36*
X2470548Y1261645D02*
X2479924Y1253681D01*
X2484064Y1250777D01*
X2487839Y1248591D01*
X2491249Y1247124D01*
X2494293Y1246375D01*
X2496972Y1246345D01*
X2499285Y1247033D01*
X2501233Y1248439D01*
X2465617Y1212823D01*
X2467024Y1214771D01*
X2467711Y1217084D01*
X2467681Y1219763D01*
X2466932Y1222808D01*
X2465465Y1226217D01*
X2463279Y1229992D01*
X2460375Y1234132D01*
X2456752Y1238637D01*
X2447352Y1248744D01*
X2465312Y1266704D01*
X2470548Y1261645D01*
D02*
G37*
G36*
X4027987Y1191384D02*
X4025828Y1190613D01*
X4023923Y1189328D01*
X4022272Y1187528D01*
X4020875Y1185215D01*
X4019732Y1182387D01*
X4018843Y1179046D01*
X4018208Y1175190D01*
X4017827Y1170820D01*
X4017700Y1165936D01*
X3992300D01*
X3992173Y1170820D01*
X3991792Y1175190D01*
X3991157Y1179046D01*
X3990268Y1182387D01*
X3989125Y1185215D01*
X3987728Y1187528D01*
X3986077Y1189328D01*
X3984172Y1190613D01*
X3982013Y1191384D01*
X3979600Y1191641D01*
X4030400D01*
X4027987Y1191384D01*
D02*
G37*
G36*
X1455372Y1172699D02*
X1453213Y1171928D01*
X1451308Y1170643D01*
X1449657Y1168844D01*
X1448260Y1166530D01*
X1447117Y1163703D01*
X1446228Y1160361D01*
X1445593Y1156505D01*
X1445212Y1152136D01*
X1445085Y1147252D01*
X1419685D01*
X1419558Y1152136D01*
X1419177Y1156505D01*
X1418542Y1160361D01*
X1417653Y1163703D01*
X1416510Y1166530D01*
X1415113Y1168844D01*
X1413462Y1170643D01*
X1411557Y1171928D01*
X1409398Y1172699D01*
X1406985Y1172957D01*
X1457785D01*
X1455372Y1172699D01*
D02*
G37*
G36*
X1305372D02*
X1303213Y1171928D01*
X1301308Y1170643D01*
X1299657Y1168844D01*
X1298260Y1166530D01*
X1297117Y1163703D01*
X1296228Y1160361D01*
X1295593Y1156505D01*
X1295212Y1152136D01*
X1295085Y1147252D01*
X1269685D01*
X1269558Y1152136D01*
X1269177Y1156505D01*
X1268542Y1160361D01*
X1267653Y1163703D01*
X1266510Y1166530D01*
X1265113Y1168844D01*
X1263462Y1170643D01*
X1261557Y1171928D01*
X1259398Y1172699D01*
X1256985Y1172957D01*
X1307785D01*
X1305372Y1172699D01*
D02*
G37*
G36*
X2537994Y1154401D02*
X2535835Y1153630D01*
X2533930Y1152345D01*
X2532279Y1150545D01*
X2530882Y1148232D01*
X2529739Y1145404D01*
X2528850Y1142063D01*
X2528215Y1138207D01*
X2527834Y1133837D01*
X2527707Y1128953D01*
X2502307D01*
X2502180Y1133837D01*
X2501799Y1138207D01*
X2501164Y1142063D01*
X2500275Y1145404D01*
X2499132Y1148232D01*
X2497735Y1150545D01*
X2496084Y1152345D01*
X2494179Y1153630D01*
X2492020Y1154401D01*
X2489607Y1154658D01*
X2540407D01*
X2537994Y1154401D01*
D02*
G37*
G36*
X1815934Y1185383D02*
X1818388Y1184724D01*
X1821703Y1184143D01*
X1825881Y1183639D01*
X1843587Y1182592D01*
X1869051Y1182243D01*
Y1131443D01*
X1859701Y1131404D01*
X1818388Y1128961D01*
X1815934Y1128302D01*
X1814343Y1127565D01*
Y1186120D01*
X1815934Y1185383D01*
D02*
G37*
G36*
X783237Y1107180D02*
X784009Y1105021D01*
X785294Y1103116D01*
X787093Y1101465D01*
X789407Y1100068D01*
X792234Y1098925D01*
X795576Y1098036D01*
X799431Y1097401D01*
X803801Y1097020D01*
X808685Y1096893D01*
Y1071493D01*
X803801Y1071366D01*
X799431Y1070985D01*
X795576Y1070350D01*
X792234Y1069461D01*
X789407Y1068318D01*
X787093Y1066921D01*
X785294Y1065270D01*
X784009Y1063365D01*
X783237Y1061206D01*
X782980Y1058793D01*
Y1109593D01*
X783237Y1107180D01*
D02*
G37*
G36*
X1445339Y1088274D02*
X1446101Y1083956D01*
X1447371Y1080146D01*
X1449149Y1076844D01*
X1451435Y1074050D01*
X1454229Y1071764D01*
X1457531Y1069986D01*
X1461341Y1068716D01*
X1465659Y1067954D01*
X1470485Y1067700D01*
Y1042300D01*
X1465659Y1042046D01*
X1461341Y1041284D01*
X1457531Y1040014D01*
X1454229Y1038236D01*
X1451435Y1035950D01*
X1449149Y1033156D01*
X1447371Y1029854D01*
X1446101Y1026044D01*
X1445339Y1021726D01*
X1445085Y1016900D01*
X1419685Y1055000D01*
X1445085Y1093100D01*
X1445339Y1088274D01*
D02*
G37*
G36*
X3690643Y1338672D02*
Y1293673D01*
X3693196Y1280836D01*
X3700468Y1269953D01*
X3711350Y1262681D01*
X3724187Y1260128D01*
X3833653D01*
Y1041314D01*
X3797621Y1007592D01*
X3661701D01*
X3646822Y1007593D01*
X3607343Y982193D01*
X3596822Y982192D01*
X3584921D01*
Y934692D01*
X3559521D01*
Y982192D01*
X3522222D01*
Y930717D01*
X3519525Y928991D01*
X3472222Y915389D01*
X3468323Y919288D01*
X3452700Y925759D01*
Y876900D01*
X3440000D01*
Y864200D01*
X3387422D01*
X3353215Y827647D01*
X3285940D01*
X3250818Y874474D01*
X3259367Y895846D01*
X3289692D01*
X3304558Y898803D01*
X3317161Y907224D01*
X3342469Y932532D01*
X3350889Y945134D01*
X3353846Y960000D01*
Y1065849D01*
X3363864Y1076940D01*
X3400554Y1100798D01*
X3403847Y1100798D01*
X3582554D01*
X3595391Y1103352D01*
X3606274Y1110623D01*
X3613545Y1121506D01*
X3616099Y1134343D01*
Y1179343D01*
X3614187Y1188954D01*
X3613280Y1194537D01*
X3610364Y1220343D01*
X3613280Y1246149D01*
X3614187Y1251732D01*
X3616099Y1261343D01*
Y1306343D01*
X3615561Y1309047D01*
X3635515Y1346133D01*
X3645433Y1358302D01*
X3690643Y1338672D01*
D02*
G37*
G36*
X5691480Y988199D02*
X5689507Y986138D01*
X5686404Y982330D01*
X5685273Y980584D01*
X5684423Y978942D01*
X5683854Y977405D01*
X5683566Y975973D01*
X5683558Y974646D01*
X5683831Y973423D01*
X5684386Y972306D01*
X5653972Y993666D01*
X5655195Y993549D01*
X5656581Y993735D01*
X5658129Y994225D01*
X5659840Y995019D01*
X5661713Y996116D01*
X5663749Y997518D01*
X5665948Y999223D01*
X5670833Y1003543D01*
X5673520Y1006159D01*
X5691480Y988199D01*
D02*
G37*
G36*
X4157508Y1002404D02*
X4157889Y998034D01*
X4158524Y994178D01*
X4159413Y990836D01*
X4160556Y988009D01*
X4161953Y985696D01*
X4163604Y983896D01*
X4165509Y982611D01*
X4167668Y981840D01*
X4170081Y981583D01*
X4119281D01*
X4121694Y981840D01*
X4123853Y982611D01*
X4125758Y983896D01*
X4127409Y985696D01*
X4128806Y988009D01*
X4129949Y990836D01*
X4130838Y994178D01*
X4131473Y998034D01*
X4131854Y1002404D01*
X4131981Y1007288D01*
X4157381D01*
X4157508Y1002404D01*
D02*
G37*
G36*
X2605721Y1000885D02*
X2606046Y996834D01*
X2606588Y993260D01*
X2607345Y990162D01*
X2608320Y987540D01*
X2609511Y985396D01*
X2610918Y983728D01*
X2612542Y982536D01*
X2614382Y981821D01*
X2616439Y981583D01*
X2569388D01*
X2571444Y981821D01*
X2573285Y982536D01*
X2574909Y983728D01*
X2576316Y985396D01*
X2577507Y987540D01*
X2578481Y990162D01*
X2579239Y993260D01*
X2579780Y996834D01*
X2580105Y1000885D01*
X2580213Y1005413D01*
X2605613D01*
X2605721Y1000885D01*
D02*
G37*
G36*
X1445212Y1002404D02*
X1445593Y998034D01*
X1446228Y994178D01*
X1447117Y990836D01*
X1448260Y988009D01*
X1449657Y985696D01*
X1451308Y983896D01*
X1453213Y982611D01*
X1455372Y981840D01*
X1457785Y981583D01*
X1406985D01*
X1409398Y981840D01*
X1411557Y982611D01*
X1413462Y983896D01*
X1415113Y985696D01*
X1416510Y988009D01*
X1417653Y990836D01*
X1418542Y994178D01*
X1419177Y998034D01*
X1419558Y1002404D01*
X1419685Y1007288D01*
X1445085D01*
X1445212Y1002404D01*
D02*
G37*
G36*
X1295212D02*
X1295593Y998034D01*
X1296228Y994178D01*
X1297117Y990836D01*
X1298260Y988009D01*
X1299657Y985696D01*
X1301308Y983896D01*
X1303213Y982611D01*
X1305372Y981840D01*
X1307785Y981583D01*
X1256985D01*
X1259398Y981840D01*
X1261557Y982611D01*
X1263462Y983896D01*
X1265113Y985696D01*
X1266510Y988009D01*
X1267653Y990836D01*
X1268542Y994178D01*
X1269177Y998034D01*
X1269558Y1002404D01*
X1269685Y1007288D01*
X1295085D01*
X1295212Y1002404D01*
D02*
G37*
G36*
X5606793Y910000D02*
X5602432Y914237D01*
X5598092Y918028D01*
X5593774Y921373D01*
X5589476Y924272D01*
X5585200Y926725D01*
X5580946Y928732D01*
X5576712Y930293D01*
X5572500Y931408D01*
X5568309Y932077D01*
X5564140Y932300D01*
Y957700D01*
X5568309Y957923D01*
X5572500Y958592D01*
X5576712Y959707D01*
X5580946Y961268D01*
X5585200Y963275D01*
X5589476Y965728D01*
X5593774Y968627D01*
X5598092Y971972D01*
X5602432Y975763D01*
X5606793Y980000D01*
Y910000D01*
D02*
G37*
G36*
X3771869Y957679D02*
X3772640Y955520D01*
X3773925Y953615D01*
X3775725Y951964D01*
X3778038Y950567D01*
X3780866Y949424D01*
X3784207Y948535D01*
X3788063Y947900D01*
X3792433Y947519D01*
X3797317Y947392D01*
Y921992D01*
X3792433Y921865D01*
X3788063Y921484D01*
X3784207Y920849D01*
X3780866Y919960D01*
X3778038Y918817D01*
X3775725Y917420D01*
X3773925Y915769D01*
X3772640Y913864D01*
X3771869Y911705D01*
X3771612Y909292D01*
Y960092D01*
X3771869Y957679D01*
D02*
G37*
G36*
X3196870D02*
X3197641Y955520D01*
X3198926Y953615D01*
X3200726Y951964D01*
X3203039Y950567D01*
X3205867Y949424D01*
X3209208Y948535D01*
X3213064Y947900D01*
X3217434Y947519D01*
X3222318Y947392D01*
Y921992D01*
X3217434Y921865D01*
X3213064Y921484D01*
X3209208Y920849D01*
X3205867Y919960D01*
X3203039Y918817D01*
X3200726Y917420D01*
X3198926Y915769D01*
X3197641Y913864D01*
X3196870Y911705D01*
X3196613Y909292D01*
Y960092D01*
X3196870Y957679D01*
D02*
G37*
G36*
X2375373Y909292D02*
X2375116Y911705D01*
X2374345Y913864D01*
X2373060Y915769D01*
X2371260Y917420D01*
X2368947Y918817D01*
X2366119Y919960D01*
X2362778Y920849D01*
X2358922Y921484D01*
X2354552Y921865D01*
X2349668Y921992D01*
Y947392D01*
X2354552Y947519D01*
X2358922Y947900D01*
X2362778Y948535D01*
X2366119Y949424D01*
X2368947Y950567D01*
X2371260Y951964D01*
X2373060Y953615D01*
X2374345Y955520D01*
X2375116Y957679D01*
X2375373Y960092D01*
Y909292D01*
D02*
G37*
G36*
X2052253Y957679D02*
X2053015Y955520D01*
X2054285Y953615D01*
X2056063Y951964D01*
X2058349Y950567D01*
X2061143Y949424D01*
X2064445Y948535D01*
X2068255Y947900D01*
X2072573Y947519D01*
X2077399Y947392D01*
Y921992D01*
X2072573Y921865D01*
X2068255Y921484D01*
X2064445Y920849D01*
X2061143Y919960D01*
X2058349Y918817D01*
X2056063Y917420D01*
X2054285Y915769D01*
X2053015Y913864D01*
X2052253Y911705D01*
X2051999Y909292D01*
Y960092D01*
X2052253Y957679D01*
D02*
G37*
G36*
X5267329Y887545D02*
X5265170Y886774D01*
X5263265Y885488D01*
X5261614Y883689D01*
X5260217Y881376D01*
X5259074Y878548D01*
X5258185Y875207D01*
X5257550Y871351D01*
X5257169Y866981D01*
X5257042Y862097D01*
X5231642D01*
X5231515Y866981D01*
X5231134Y871351D01*
X5230499Y875207D01*
X5229610Y878548D01*
X5228467Y881376D01*
X5227070Y883689D01*
X5225419Y885488D01*
X5223514Y886774D01*
X5221355Y887545D01*
X5218942Y887802D01*
X5269742D01*
X5267329Y887545D01*
D02*
G37*
G36*
X4317668D02*
X4315509Y886774D01*
X4313604Y885488D01*
X4311953Y883689D01*
X4310556Y881376D01*
X4309413Y878548D01*
X4308524Y875207D01*
X4307889Y871351D01*
X4307508Y866981D01*
X4307381Y862097D01*
X4281981D01*
X4281854Y866981D01*
X4281473Y871351D01*
X4280838Y875207D01*
X4279949Y878548D01*
X4278806Y881376D01*
X4277409Y883689D01*
X4275758Y885488D01*
X4273853Y886774D01*
X4271694Y887545D01*
X4269281Y887802D01*
X4320081D01*
X4317668Y887545D01*
D02*
G37*
G36*
X4167668D02*
X4165509Y886774D01*
X4163604Y885488D01*
X4161953Y883689D01*
X4160556Y881376D01*
X4159413Y878548D01*
X4158524Y875207D01*
X4157889Y871351D01*
X4157508Y866981D01*
X4157381Y862097D01*
X4131981D01*
X4131854Y866981D01*
X4131473Y871351D01*
X4130838Y875207D01*
X4129949Y878548D01*
X4128806Y881376D01*
X4127409Y883689D01*
X4125758Y885488D01*
X4123853Y886774D01*
X4121694Y887545D01*
X4119281Y887802D01*
X4170081D01*
X4167668Y887545D01*
D02*
G37*
G36*
X3027987D02*
X3025828Y886774D01*
X3023923Y885488D01*
X3022272Y883689D01*
X3020875Y881376D01*
X3019732Y878548D01*
X3018843Y875207D01*
X3018208Y871351D01*
X3017827Y866981D01*
X3017700Y862097D01*
X2992300D01*
X2992173Y866981D01*
X2991792Y871351D01*
X2991157Y875207D01*
X2990268Y878548D01*
X2989125Y881376D01*
X2987728Y883689D01*
X2986077Y885488D01*
X2984172Y886774D01*
X2982013Y887545D01*
X2979600Y887802D01*
X3030400D01*
X3027987Y887545D01*
D02*
G37*
G36*
X5571890Y507987D02*
X5573393Y505828D01*
X5575287Y503923D01*
X5577574Y502272D01*
X5580253Y500875D01*
X5583324Y499732D01*
X5586787Y498843D01*
X5590642Y498208D01*
X5594889Y497827D01*
X5599529Y497700D01*
Y472300D01*
X5594889Y472173D01*
X5590642Y471792D01*
X5586787Y471157D01*
X5583324Y470268D01*
X5580253Y469125D01*
X5577574Y467728D01*
X5575287Y466077D01*
X5573393Y464172D01*
X5571890Y462013D01*
X5570780Y459600D01*
Y510400D01*
X5571890Y507987D01*
D02*
G37*
G36*
X4095025Y450570D02*
X4094560Y447981D01*
X4094553Y445295D01*
X4095002Y442510D01*
X4095909Y439628D01*
X4097272Y436648D01*
X4099092Y433571D01*
X4101369Y430396D01*
X4104103Y427123D01*
X4107294Y423753D01*
X4089333Y405792D01*
X4085963Y408983D01*
X4082690Y411717D01*
X4079515Y413994D01*
X4076438Y415814D01*
X4073458Y417177D01*
X4070576Y418084D01*
X4067792Y418533D01*
X4065105Y418526D01*
X4062516Y418062D01*
X4060025Y417140D01*
X4095946Y453062D01*
X4095025Y450570D01*
D02*
G37*
%LPC*%
G36*
X3094847Y3209415D02*
X3080048D01*
Y3177115D01*
X3094847D01*
Y3209415D01*
D02*
G37*
G36*
X3054648D02*
X3039848D01*
Y3177115D01*
X3054648D01*
Y3209415D01*
D02*
G37*
G36*
X3094847Y3151715D02*
X3080048D01*
Y3119416D01*
X3094847D01*
Y3151715D01*
D02*
G37*
G36*
X3054648D02*
X3039848D01*
Y3119416D01*
X3054648D01*
Y3151715D01*
D02*
G37*
G36*
X5664200Y3152779D02*
Y3116620D01*
X5700359D01*
X5693888Y3132243D01*
X5679823Y3146308D01*
X5664200Y3152779D01*
D02*
G37*
G36*
X5638800D02*
X5623177Y3146308D01*
X5609112Y3132243D01*
X5602641Y3116620D01*
X5638800D01*
Y3152779D01*
D02*
G37*
G36*
X4521200D02*
Y3116620D01*
X4557359D01*
X4550888Y3132243D01*
X4536823Y3146308D01*
X4521200Y3152779D01*
D02*
G37*
G36*
X4495800D02*
X4480177Y3146308D01*
X4466112Y3132243D01*
X4459641Y3116620D01*
X4495800D01*
Y3152779D01*
D02*
G37*
G36*
X4140200D02*
Y3116620D01*
X4176359D01*
X4169888Y3132243D01*
X4155823Y3146308D01*
X4140200Y3152779D01*
D02*
G37*
G36*
X4114800D02*
X4099177Y3146308D01*
X4085112Y3132243D01*
X4078641Y3116620D01*
X4114800D01*
Y3152779D01*
D02*
G37*
G36*
X3759200D02*
Y3116620D01*
X3795359D01*
X3788888Y3132243D01*
X3774823Y3146308D01*
X3759200Y3152779D01*
D02*
G37*
G36*
X3733800D02*
X3718177Y3146308D01*
X3704112Y3132243D01*
X3697641Y3116620D01*
X3733800D01*
Y3152779D01*
D02*
G37*
G36*
X3378200D02*
Y3116620D01*
X3414359D01*
X3407888Y3132243D01*
X3393823Y3146308D01*
X3378200Y3152779D01*
D02*
G37*
G36*
X3352800D02*
X3337177Y3146308D01*
X3323112Y3132243D01*
X3316641Y3116620D01*
X3352800D01*
Y3152779D01*
D02*
G37*
G36*
X2616200D02*
Y3116620D01*
X2652359D01*
X2645888Y3132243D01*
X2631823Y3146308D01*
X2616200Y3152779D01*
D02*
G37*
G36*
X2590800D02*
X2575177Y3146308D01*
X2561112Y3132243D01*
X2554641Y3116620D01*
X2590800D01*
Y3152779D01*
D02*
G37*
G36*
X2235200D02*
Y3116620D01*
X2271359D01*
X2264888Y3132243D01*
X2250823Y3146308D01*
X2235200Y3152779D01*
D02*
G37*
G36*
X2209800D02*
X2194177Y3146308D01*
X2180112Y3132243D01*
X2173641Y3116620D01*
X2209800D01*
Y3152779D01*
D02*
G37*
G36*
X5700359Y3091220D02*
X5664200D01*
Y3055061D01*
X5679823Y3061532D01*
X5693888Y3075597D01*
X5700359Y3091220D01*
D02*
G37*
G36*
X5638800D02*
X5602641D01*
X5609112Y3075597D01*
X5623177Y3061532D01*
X5638800Y3055061D01*
Y3091220D01*
D02*
G37*
G36*
X4557359D02*
X4521200D01*
Y3055061D01*
X4536823Y3061532D01*
X4550888Y3075597D01*
X4557359Y3091220D01*
D02*
G37*
G36*
X4495800D02*
X4459641D01*
X4466112Y3075597D01*
X4480177Y3061532D01*
X4495800Y3055061D01*
Y3091220D01*
D02*
G37*
G36*
X4176359D02*
X4140200D01*
Y3055061D01*
X4155823Y3061532D01*
X4169888Y3075597D01*
X4176359Y3091220D01*
D02*
G37*
G36*
X3795359D02*
X3759200D01*
Y3055061D01*
X3774823Y3061532D01*
X3788888Y3075597D01*
X3795359Y3091220D01*
D02*
G37*
G36*
X3733800D02*
X3697641D01*
X3704112Y3075597D01*
X3718177Y3061532D01*
X3733800Y3055061D01*
Y3091220D01*
D02*
G37*
G36*
X2271359D02*
X2235200D01*
Y3055061D01*
X2250823Y3061532D01*
X2264888Y3075597D01*
X2271359Y3091220D01*
D02*
G37*
G36*
X2209800D02*
X2173641D01*
X2180112Y3075597D01*
X2194177Y3061532D01*
X2209800Y3055061D01*
Y3091220D01*
D02*
G37*
G36*
X5256923Y3085573D02*
Y3050773D01*
X5294223D01*
Y3085573D01*
X5256923D01*
D02*
G37*
G36*
X4114800Y3091220D02*
X4078641D01*
X4084440Y3077217D01*
X4079221Y3066437D01*
X4057437Y3032562D01*
X4026487Y3032562D01*
X3976739D01*
Y3000261D01*
X4071539D01*
X4071539Y3020614D01*
X4072079Y3023734D01*
X4073013Y3025036D01*
X4107837Y3053235D01*
X4114800Y3053725D01*
Y3091220D01*
D02*
G37*
G36*
X3951339Y3032562D02*
X3856539D01*
Y3000261D01*
X3951339D01*
Y3032562D01*
D02*
G37*
G36*
X2076389Y3109880D02*
X2009089D01*
Y2992581D01*
X2076389D01*
Y3109880D01*
D02*
G37*
G36*
X1983689D02*
X1916389D01*
Y2992581D01*
X1983689D01*
Y3109880D01*
D02*
G37*
G36*
X5294223Y3025373D02*
X5256923D01*
Y2990573D01*
X5294223D01*
Y3025373D01*
D02*
G37*
G36*
X3414359Y3091220D02*
X3316641D01*
X3323112Y3075597D01*
X3323113Y3075596D01*
X3337177Y3061532D01*
X3352528Y3055101D01*
X3381988Y3020921D01*
X3381992Y3020916D01*
X3384610Y3007717D01*
X3384610Y2986245D01*
X3412110D01*
X3439610D01*
Y3018545D01*
X3433437D01*
X3430783Y3018545D01*
X3423236Y3018939D01*
X3415153Y3020489D01*
X3407414Y3035381D01*
X3400836Y3068544D01*
X3404254Y3071963D01*
X3407888Y3075597D01*
X3414359Y3091220D01*
D02*
G37*
G36*
X2427285Y3018544D02*
X2412485D01*
Y2986244D01*
X2427285D01*
Y3018544D01*
D02*
G37*
G36*
X2387085D02*
X2372286D01*
Y2986244D01*
X2387085D01*
Y3018544D01*
D02*
G37*
G36*
X4071538Y2974861D02*
X3976739D01*
Y2942562D01*
X4071538D01*
Y2974861D01*
D02*
G37*
G36*
X3951339D02*
X3856539D01*
Y2942562D01*
X3951339D01*
Y2974861D01*
D02*
G37*
G36*
X3439610Y2960845D02*
X3424810D01*
Y2928545D01*
X3439610D01*
Y2960845D01*
D02*
G37*
G36*
X3399410D02*
X3384610D01*
Y2928545D01*
X3399410D01*
Y2960845D01*
D02*
G37*
G36*
X2427285Y2960844D02*
X2412485D01*
Y2928544D01*
X2427285D01*
Y2960844D01*
D02*
G37*
G36*
X2387085D02*
X2372286D01*
Y2928544D01*
X2387085D01*
Y2960844D01*
D02*
G37*
G36*
X2076389Y2967181D02*
X2009089D01*
Y2849880D01*
X2076389D01*
Y2967181D01*
D02*
G37*
G36*
X1983689D02*
X1916389D01*
Y2849880D01*
X1983689D01*
Y2967181D01*
D02*
G37*
G36*
X2427285Y2803562D02*
X2412486D01*
Y2771262D01*
X2427285D01*
Y2803562D01*
D02*
G37*
G36*
X2387086D02*
X2372286D01*
Y2771262D01*
X2387086D01*
Y2803562D01*
D02*
G37*
G36*
X3424270Y2803562D02*
Y2771262D01*
X3439070D01*
Y2803562D01*
X3424270D01*
D02*
G37*
G36*
X2812624Y2780372D02*
X2735325D01*
Y2763072D01*
X2812624D01*
Y2780372D01*
D02*
G37*
G36*
Y2737672D02*
X2735325D01*
Y2720372D01*
X2812624D01*
Y2737672D01*
D02*
G37*
G36*
X2427285Y2745862D02*
X2412486D01*
Y2713562D01*
X2427285D01*
Y2745862D01*
D02*
G37*
G36*
X2387086D02*
X2372286D01*
Y2713562D01*
X2387086D01*
Y2745862D01*
D02*
G37*
G36*
X3439070Y2745862D02*
X3424270D01*
Y2713562D01*
X3439070D01*
Y2745862D01*
D02*
G37*
G36*
X3584069Y2590000D02*
X3569269D01*
Y2557700D01*
X3584069D01*
Y2590000D01*
D02*
G37*
G36*
X2556945D02*
Y2557700D01*
X2571745D01*
Y2590000D01*
X2556945D01*
D02*
G37*
G36*
X3543869D02*
X3529070D01*
Y2557700D01*
X3543869D01*
Y2590000D01*
D02*
G37*
G36*
X3584069Y2532300D02*
X3569269D01*
Y2500000D01*
X3584069D01*
Y2532300D01*
D02*
G37*
G36*
X3543869D02*
X3529070D01*
Y2500000D01*
X3543869D01*
Y2532300D01*
D02*
G37*
G36*
X4140200Y2390779D02*
Y2354620D01*
X4176359D01*
X4169888Y2370243D01*
X4155823Y2384308D01*
X4140200Y2390779D01*
D02*
G37*
G36*
X4114800D02*
X4099177Y2384308D01*
X4085112Y2370243D01*
X4078641Y2354620D01*
X4114800D01*
Y2390779D01*
D02*
G37*
G36*
X2997200D02*
Y2354620D01*
X3033359D01*
X3026888Y2370243D01*
X3012823Y2384308D01*
X2997200Y2390779D01*
D02*
G37*
G36*
X2971800D02*
X2956177Y2384308D01*
X2942112Y2370243D01*
X2935641Y2354620D01*
X2971800D01*
Y2390779D01*
D02*
G37*
G36*
X4176359Y2329220D02*
X4140200D01*
Y2293061D01*
X4155823Y2299532D01*
X4169888Y2313597D01*
X4176359Y2329220D01*
D02*
G37*
G36*
X4114800D02*
X4078641D01*
X4085112Y2313597D01*
X4099177Y2299532D01*
X4114800Y2293061D01*
Y2329220D01*
D02*
G37*
G36*
X3981987Y2300433D02*
X3914687D01*
Y2188133D01*
X3981987D01*
Y2300433D01*
D02*
G37*
G36*
X3889287D02*
X3821987D01*
Y2188133D01*
X3889287D01*
Y2300433D01*
D02*
G37*
G36*
X5003916Y2142318D02*
X4989116D01*
Y2110018D01*
X5003916D01*
Y2142318D01*
D02*
G37*
G36*
X4963716D02*
X4948916D01*
Y2110018D01*
X4963716D01*
Y2142318D01*
D02*
G37*
G36*
X3981987Y2162733D02*
X3914687D01*
Y2050433D01*
X3981987D01*
Y2162733D01*
D02*
G37*
G36*
X3889287D02*
X3821987D01*
Y2050433D01*
X3889287D01*
Y2162733D01*
D02*
G37*
G36*
X4711700Y2009779D02*
Y1973620D01*
X4747859D01*
X4741388Y1989243D01*
X4727323Y2003308D01*
X4711700Y2009779D01*
D02*
G37*
G36*
X4686300D02*
X4670677Y2003308D01*
X4656612Y1989243D01*
X4650141Y1973620D01*
X4686300D01*
Y2009779D01*
D02*
G37*
G36*
X5004456Y1873923D02*
X4989656D01*
Y1841623D01*
X5004456D01*
Y1873923D01*
D02*
G37*
G36*
X4964256D02*
X4949456D01*
Y1841623D01*
X4964256D01*
Y1873923D01*
D02*
G37*
G36*
X5004456Y1816223D02*
X4989656D01*
Y1783923D01*
X5004456D01*
Y1816223D01*
D02*
G37*
G36*
X4964256D02*
X4949456D01*
Y1783923D01*
X4964256D01*
Y1816223D01*
D02*
G37*
G36*
X5425848Y1812064D02*
X5377448D01*
Y1763664D01*
X5425848D01*
Y1812064D01*
D02*
G37*
G36*
X5499648Y1738264D02*
X5451248D01*
Y1689864D01*
X5499648D01*
Y1738264D01*
D02*
G37*
G36*
X5425848D02*
X5377448D01*
Y1689864D01*
X5425848D01*
Y1738264D01*
D02*
G37*
G36*
X711200Y3152779D02*
Y3116620D01*
X747359D01*
X740888Y3132243D01*
X726823Y3146308D01*
X711200Y3152779D01*
D02*
G37*
G36*
X685800D02*
X670177Y3146308D01*
X656112Y3132243D01*
X649641Y3116620D01*
X685800D01*
Y3152779D01*
D02*
G37*
G36*
X330200D02*
Y3116620D01*
X366359D01*
X359888Y3132243D01*
X345823Y3146308D01*
X330200Y3152779D01*
D02*
G37*
G36*
X304800D02*
X289177Y3146308D01*
X275112Y3132243D01*
X268641Y3116620D01*
X304800D01*
Y3152779D01*
D02*
G37*
G36*
X1009639Y3141100D02*
Y3104941D01*
X1045798D01*
X1039327Y3120564D01*
X1025262Y3134629D01*
X1009639Y3141100D01*
D02*
G37*
G36*
X984239D02*
X968616Y3134629D01*
X954551Y3120564D01*
X948080Y3104941D01*
X984239D01*
Y3141100D01*
D02*
G37*
G36*
X747359Y3091220D02*
X711200D01*
Y3055061D01*
X726823Y3061532D01*
X740888Y3075597D01*
X747359Y3091220D01*
D02*
G37*
G36*
X685800D02*
X649641D01*
X656112Y3075597D01*
X670177Y3061532D01*
X685800Y3055061D01*
Y3091220D01*
D02*
G37*
G36*
X366359D02*
X330200D01*
Y3055061D01*
X345823Y3061532D01*
X359888Y3075597D01*
X366359Y3091220D01*
D02*
G37*
G36*
X304800D02*
X268641D01*
X275112Y3075597D01*
X289177Y3061532D01*
X304800Y3055061D01*
Y3091220D01*
D02*
G37*
G36*
X1045798Y3079541D02*
X1009639D01*
Y3043382D01*
X1025262Y3049853D01*
X1039327Y3063918D01*
X1045798Y3079541D01*
D02*
G37*
G36*
X984239D02*
X948080D01*
X954551Y3063918D01*
X968616Y3049853D01*
X984239Y3043382D01*
Y3079541D01*
D02*
G37*
G36*
X810200Y2930596D02*
X746700D01*
Y2815200D01*
X936624D01*
X933931Y2835654D01*
X921134Y2866548D01*
X900777Y2893078D01*
X874248Y2913434D01*
X843354Y2926231D01*
X810200Y2930596D01*
D02*
G37*
G36*
X721300D02*
X657800D01*
X624646Y2926231D01*
X593752Y2913434D01*
X567223Y2893078D01*
X546866Y2866548D01*
X534069Y2835654D01*
X531376Y2815200D01*
X721300D01*
Y2930596D01*
D02*
G37*
G36*
X185000Y2776720D02*
Y2740561D01*
X221159D01*
X214688Y2756184D01*
X200623Y2770249D01*
X185000Y2776720D01*
D02*
G37*
G36*
X159600D02*
X143977Y2770249D01*
X129912Y2756184D01*
X123441Y2740561D01*
X159600D01*
Y2776720D01*
D02*
G37*
G36*
X221159Y2715161D02*
X185000D01*
Y2679002D01*
X200623Y2685473D01*
X214688Y2699538D01*
X221159Y2715161D01*
D02*
G37*
G36*
X159600D02*
X123441D01*
X129912Y2699538D01*
X143977Y2685473D01*
X159600Y2679002D01*
Y2715161D01*
D02*
G37*
G36*
X936624Y2789800D02*
X746700D01*
Y2674404D01*
X810200D01*
X843354Y2678769D01*
X874248Y2691566D01*
X900777Y2711923D01*
X921134Y2738452D01*
X933931Y2769347D01*
X936624Y2789800D01*
D02*
G37*
G36*
X721300D02*
X531376D01*
X534069Y2769347D01*
X546866Y2738452D01*
X567223Y2711923D01*
X593752Y2691566D01*
X624646Y2678769D01*
X657800Y2674404D01*
X721300D01*
Y2789800D01*
D02*
G37*
G36*
X804639Y2521100D02*
Y2484941D01*
X840798D01*
X834327Y2500564D01*
X820262Y2514629D01*
X804639Y2521100D01*
D02*
G37*
G36*
X779239D02*
X763616Y2514629D01*
X749551Y2500564D01*
X743080Y2484941D01*
X779239D01*
Y2521100D01*
D02*
G37*
G36*
X238700Y2624124D02*
Y2434200D01*
X354096D01*
Y2497700D01*
X349731Y2530854D01*
X336934Y2561748D01*
X316577Y2588278D01*
X290048Y2608634D01*
X259154Y2621431D01*
X238700Y2624124D01*
D02*
G37*
G36*
X213300D02*
X192846Y2621431D01*
X161952Y2608634D01*
X135423Y2588278D01*
X115066Y2561748D01*
X102269Y2530854D01*
X97904Y2497700D01*
Y2434200D01*
X213300D01*
Y2624124D01*
D02*
G37*
G36*
X840798Y2459541D02*
X804639D01*
Y2423382D01*
X820262Y2429853D01*
X834327Y2443918D01*
X840798Y2459541D01*
D02*
G37*
G36*
X779239D02*
X743080D01*
X749551Y2443918D01*
X763616Y2429853D01*
X779239Y2423382D01*
Y2459541D01*
D02*
G37*
G36*
X2209800Y2390779D02*
X2194177Y2384308D01*
X2180112Y2370243D01*
X2173641Y2354620D01*
X2209800D01*
Y2390779D01*
D02*
G37*
G36*
X1854200D02*
Y2354620D01*
X1890359D01*
X1883888Y2370243D01*
X1869823Y2384308D01*
X1854200Y2390779D01*
D02*
G37*
G36*
X1828800D02*
X1813177Y2384308D01*
X1799112Y2370243D01*
X1792641Y2354620D01*
X1828800D01*
Y2390779D01*
D02*
G37*
G36*
X2209800Y2329220D02*
X2173641D01*
X2180112Y2313597D01*
X2194177Y2299532D01*
X2209800Y2293061D01*
Y2329220D01*
D02*
G37*
G36*
X1890359D02*
X1854200D01*
Y2293061D01*
X1869823Y2299532D01*
X1883888Y2313597D01*
X1890359Y2329220D01*
D02*
G37*
G36*
X1828800D02*
X1792641D01*
X1799112Y2313597D01*
X1813177Y2299532D01*
X1828800Y2293061D01*
Y2329220D01*
D02*
G37*
G36*
X354096Y2408800D02*
X238700D01*
Y2218876D01*
X259154Y2221569D01*
X290048Y2234366D01*
X316577Y2254723D01*
X336934Y2281252D01*
X349731Y2312147D01*
X354096Y2345300D01*
Y2408800D01*
D02*
G37*
G36*
X213300D02*
X97904D01*
Y2345300D01*
X102269Y2312147D01*
X115066Y2281252D01*
X135423Y2254723D01*
X161952Y2234366D01*
X192846Y2221569D01*
X213300Y2218876D01*
Y2408800D01*
D02*
G37*
G36*
X1906840Y2238093D02*
X1814540D01*
Y2173293D01*
X1906840D01*
Y2238093D01*
D02*
G37*
G36*
X1789140D02*
X1696840D01*
Y2173293D01*
X1789140D01*
Y2238093D01*
D02*
G37*
G36*
X1906840Y2147893D02*
X1814540D01*
Y2083093D01*
X1906840D01*
Y2147893D01*
D02*
G37*
G36*
X1789140D02*
X1696840D01*
Y2083093D01*
X1789140D01*
Y2147893D01*
D02*
G37*
G36*
X184639Y2111100D02*
Y2074941D01*
X220798D01*
X214327Y2090564D01*
X200262Y2104629D01*
X184639Y2111100D01*
D02*
G37*
G36*
X159239D02*
X143616Y2104629D01*
X129551Y2090564D01*
X123080Y2074941D01*
X159239D01*
Y2111100D01*
D02*
G37*
G36*
X220798Y2049541D02*
X184639D01*
Y2013382D01*
X200262Y2019853D01*
X214327Y2033918D01*
X220798Y2049541D01*
D02*
G37*
G36*
X159239D02*
X123080D01*
X129551Y2033918D01*
X143616Y2019853D01*
X159239Y2013382D01*
Y2049541D01*
D02*
G37*
G36*
X2044700Y2009779D02*
Y1973620D01*
X2080859D01*
X2074388Y1989243D01*
X2060323Y2003308D01*
X2044700Y2009779D01*
D02*
G37*
G36*
X2019300D02*
X2003677Y2003308D01*
X1989612Y1989243D01*
X1983141Y1973620D01*
X2019300D01*
Y2009779D01*
D02*
G37*
G36*
X1663700D02*
Y1973620D01*
X1699859D01*
X1693388Y1989243D01*
X1679323Y2003308D01*
X1663700Y2009779D01*
D02*
G37*
G36*
X1638300D02*
X1622677Y2003308D01*
X1608612Y1989243D01*
X1602141Y1973620D01*
X1638300D01*
Y2009779D01*
D02*
G37*
G36*
X2080859Y1948220D02*
X2044700D01*
Y1912061D01*
X2060323Y1918532D01*
X2074388Y1932597D01*
X2080859Y1948220D01*
D02*
G37*
G36*
X2019300D02*
X1983141D01*
X1989612Y1932597D01*
X2003677Y1918532D01*
X2019300Y1912061D01*
Y1948220D01*
D02*
G37*
G36*
X1699859D02*
X1663700D01*
Y1912061D01*
X1679323Y1918532D01*
X1693388Y1932597D01*
X1699859Y1948220D01*
D02*
G37*
G36*
X1638300D02*
X1602141D01*
X1608612Y1932597D01*
X1622677Y1918532D01*
X1638300Y1912061D01*
Y1948220D01*
D02*
G37*
G36*
X824812Y1822962D02*
X782513D01*
Y1775662D01*
X824812D01*
Y1822962D01*
D02*
G37*
G36*
X757113D02*
X714813D01*
Y1775662D01*
X757113D01*
Y1822962D01*
D02*
G37*
G36*
X1839604Y1797762D02*
X1802304D01*
Y1762962D01*
X1839604D01*
Y1797762D01*
D02*
G37*
G36*
X824812Y1750262D02*
X782513D01*
Y1702963D01*
X824812D01*
Y1750262D01*
D02*
G37*
G36*
X757113D02*
X714813D01*
Y1702963D01*
X757113D01*
Y1750262D01*
D02*
G37*
G36*
X1839604Y1737562D02*
X1802304D01*
Y1702762D01*
X1839604D01*
Y1737562D01*
D02*
G37*
G36*
X1370000Y1961347D02*
X322500D01*
X307634Y1958390D01*
X295032Y1949969D01*
X230032Y1884969D01*
X221611Y1872366D01*
X218654Y1857500D01*
Y412500D01*
X221611Y397634D01*
X230032Y385031D01*
X405031Y210031D01*
X417634Y201610D01*
X432500Y198653D01*
X1779438D01*
X1794304Y201610D01*
X1806907Y210031D01*
X1987601Y390725D01*
X1988204Y391229D01*
X1988415Y391381D01*
X2013721Y384600D01*
X2040156D01*
X2065692Y391442D01*
X2088586Y404660D01*
X2107278Y423353D01*
X2120496Y446247D01*
X2127338Y471782D01*
Y498218D01*
X2120496Y523753D01*
X2107278Y546647D01*
X2088586Y565340D01*
X2065692Y578558D01*
X2040156Y585400D01*
X2013721D01*
X1988186Y578558D01*
X1965291Y565340D01*
X1946599Y546647D01*
X1933381Y523753D01*
X1926539Y498218D01*
Y471782D01*
X1933319Y446477D01*
X1933167Y446265D01*
X1932664Y445663D01*
X1763348Y276346D01*
X448591D01*
X296347Y428590D01*
Y1841409D01*
X338591Y1883654D01*
X864031D01*
X899412Y1848362D01*
X899413Y1833653D01*
Y1677563D01*
X1060213D01*
Y1724116D01*
X1222365D01*
Y1692563D01*
X1317365D01*
X1328165Y1692562D01*
X1367365D01*
X1378165Y1692563D01*
X1423165D01*
X1446491Y1692562D01*
X1447460Y1692369D01*
X1473165Y1692562D01*
X1522499Y1711167D01*
X1566682D01*
X1568239Y1711007D01*
X1571074Y1710563D01*
X1573299Y1710073D01*
X1574898Y1709597D01*
X1575851Y1709223D01*
X1576029Y1709132D01*
X1576698Y1708542D01*
X1578199Y1707670D01*
X1583241Y1702627D01*
X1600434Y1692701D01*
X1619611Y1687563D01*
X1639464D01*
X1658641Y1692701D01*
X1675834Y1702627D01*
X1689873Y1716666D01*
X1699799Y1733859D01*
X1704937Y1753036D01*
Y1772889D01*
X1699799Y1792066D01*
X1689873Y1809259D01*
X1675834Y1823298D01*
X1658641Y1833224D01*
X1639464Y1838362D01*
X1619611D01*
X1600434Y1833224D01*
X1583241Y1823298D01*
X1578199Y1818255D01*
X1576698Y1817383D01*
X1576029Y1816792D01*
X1575851Y1816702D01*
X1574898Y1816328D01*
X1573300Y1815852D01*
X1571073Y1815362D01*
X1568542Y1814965D01*
X1565919Y1814758D01*
X1484933D01*
X1482467Y1814923D01*
X1476579Y1815668D01*
X1473165Y1816366D01*
Y1833362D01*
X1459112D01*
Y1872235D01*
X1456155Y1887101D01*
X1447734Y1899704D01*
X1397469Y1949969D01*
X1384866Y1958390D01*
X1370000Y1961347D01*
D02*
G37*
G36*
X1092200Y1628779D02*
Y1592620D01*
X1128359D01*
X1121888Y1608243D01*
X1107823Y1622308D01*
X1092200Y1628779D01*
D02*
G37*
G36*
X1066800D02*
X1051177Y1622308D01*
X1037112Y1608243D01*
X1030641Y1592620D01*
X1066800D01*
Y1628779D01*
D02*
G37*
G36*
X711200D02*
Y1592620D01*
X747359D01*
X740888Y1608243D01*
X726823Y1622308D01*
X711200Y1628779D01*
D02*
G37*
G36*
X685800D02*
X670177Y1622308D01*
X656112Y1608243D01*
X649641Y1592620D01*
X685800D01*
Y1628779D01*
D02*
G37*
G36*
X747359Y1567220D02*
X711200D01*
Y1531061D01*
X726823Y1537532D01*
X740888Y1551597D01*
X747359Y1567220D01*
D02*
G37*
G36*
X685800D02*
X649641D01*
X656112Y1551597D01*
X670177Y1537532D01*
X685800Y1531061D01*
Y1567220D01*
D02*
G37*
G36*
X705540Y1428741D02*
Y1350893D01*
X783388D01*
X777406Y1373221D01*
X765458Y1393914D01*
X748562Y1410811D01*
X727868Y1422758D01*
X705540Y1428741D01*
D02*
G37*
G36*
X680140D02*
X657812Y1422758D01*
X637118Y1410811D01*
X620222Y1393914D01*
X608275Y1373221D01*
X602292Y1350893D01*
X680140D01*
Y1428741D01*
D02*
G37*
G36*
X1092200Y866779D02*
Y830620D01*
X1128359D01*
X1121888Y846243D01*
X1107823Y860308D01*
X1092200Y866779D01*
D02*
G37*
G36*
X1066800D02*
X1051177Y860308D01*
X1037112Y846243D01*
X1030641Y830620D01*
X1066800D01*
Y866779D01*
D02*
G37*
G36*
X711200D02*
Y830620D01*
X747359D01*
X740888Y846243D01*
X726823Y860308D01*
X711200Y866779D01*
D02*
G37*
G36*
X685800D02*
X670177Y860308D01*
X656112Y846243D01*
X649641Y830620D01*
X685800D01*
Y866779D01*
D02*
G37*
G36*
X2271359Y805220D02*
X2235200D01*
Y769061D01*
X2250823Y775532D01*
X2264888Y789597D01*
X2271359Y805220D01*
D02*
G37*
G36*
X2209800D02*
X2173641D01*
X2180112Y789597D01*
X2194177Y775532D01*
X2209800Y769061D01*
Y805220D01*
D02*
G37*
G36*
X1890359D02*
X1854200D01*
Y769061D01*
X1869823Y775532D01*
X1883888Y789597D01*
X1890359Y805220D01*
D02*
G37*
G36*
X1828800D02*
X1792641D01*
X1799112Y789597D01*
X1813177Y775532D01*
X1828800Y769061D01*
Y805220D01*
D02*
G37*
G36*
X1128359D02*
X1092200D01*
Y769061D01*
X1107823Y775532D01*
X1121888Y789597D01*
X1128359Y805220D01*
D02*
G37*
G36*
X1066800D02*
X1030641D01*
X1037112Y789597D01*
X1051177Y775532D01*
X1066800Y769061D01*
Y805220D01*
D02*
G37*
G36*
X747359D02*
X711200D01*
Y769061D01*
X726823Y775532D01*
X740888Y789597D01*
X747359Y805220D01*
D02*
G37*
G36*
X685800D02*
X649641D01*
X656112Y789597D01*
X670177Y775532D01*
X685800Y769061D01*
Y805220D01*
D02*
G37*
G36*
X5557139Y798600D02*
Y762441D01*
X5593298D01*
X5586827Y778064D01*
X5572762Y792129D01*
X5557139Y798600D01*
D02*
G37*
G36*
X5531739D02*
X5516116Y792129D01*
X5502051Y778064D01*
X5495580Y762441D01*
X5531739D01*
Y798600D01*
D02*
G37*
G36*
X5593298Y737041D02*
X5557139D01*
Y700882D01*
X5572762Y707353D01*
X5586827Y721418D01*
X5593298Y737041D01*
D02*
G37*
G36*
X5531739D02*
X5495580D01*
X5502051Y721418D01*
X5516116Y707353D01*
X5531739Y700882D01*
Y737041D01*
D02*
G37*
G36*
X4449639Y626100D02*
Y589941D01*
X4485798D01*
X4479327Y605564D01*
X4465262Y619629D01*
X4449639Y626100D01*
D02*
G37*
G36*
X4424239D02*
X4408616Y619629D01*
X4394551Y605564D01*
X4388080Y589941D01*
X4424239D01*
Y626100D01*
D02*
G37*
G36*
X4485798Y564541D02*
X4449639D01*
Y528382D01*
X4465262Y534853D01*
X4479327Y548918D01*
X4485798Y564541D01*
D02*
G37*
G36*
X4424239D02*
X4388080D01*
X4394551Y548918D01*
X4408616Y534853D01*
X4424239Y528382D01*
Y564541D01*
D02*
G37*
G36*
X705540Y559243D02*
Y497700D01*
X767083D01*
X762729Y513949D01*
X752855Y531051D01*
X738891Y545015D01*
X721789Y554889D01*
X705540Y559243D01*
D02*
G37*
G36*
X680140D02*
X663891Y554889D01*
X646789Y545015D01*
X632825Y531051D01*
X622951Y513949D01*
X618597Y497700D01*
X680140D01*
Y559243D01*
D02*
G37*
G36*
X3062139Y486100D02*
Y449941D01*
X3098298D01*
X3091827Y465564D01*
X3077762Y479629D01*
X3062139Y486100D01*
D02*
G37*
G36*
X3036739D02*
X3021116Y479629D01*
X3007051Y465564D01*
X3000580Y449941D01*
X3036739D01*
Y486100D01*
D02*
G37*
G36*
X3568700Y485779D02*
Y449620D01*
X3604859D01*
X3598388Y465243D01*
X3584323Y479308D01*
X3568700Y485779D01*
D02*
G37*
G36*
X2425700D02*
Y449620D01*
X2461859D01*
X2455388Y465243D01*
X2441323Y479308D01*
X2425700Y485779D01*
D02*
G37*
G36*
X2400300D02*
X2384677Y479308D01*
X2370612Y465243D01*
X2364141Y449620D01*
X2400300D01*
Y485779D01*
D02*
G37*
G36*
X901700D02*
Y449620D01*
X937859D01*
X931388Y465243D01*
X917323Y479308D01*
X901700Y485779D01*
D02*
G37*
G36*
X876300D02*
X860677Y479308D01*
X846612Y465243D01*
X840141Y449620D01*
X876300D01*
Y485779D01*
D02*
G37*
G36*
X520700D02*
Y449620D01*
X556859D01*
X550388Y465243D01*
X536323Y479308D01*
X520700Y485779D01*
D02*
G37*
G36*
X495300D02*
X479677Y479308D01*
X465612Y465243D01*
X459141Y449620D01*
X495300D01*
Y485779D01*
D02*
G37*
G36*
X767083Y472300D02*
X705540D01*
Y410757D01*
X721789Y415111D01*
X738891Y424985D01*
X752855Y438949D01*
X762729Y456051D01*
X767083Y472300D01*
D02*
G37*
G36*
X680140D02*
X618597D01*
X622951Y456051D01*
X632825Y438949D01*
X646789Y424985D01*
X663891Y415111D01*
X680140Y410757D01*
Y472300D01*
D02*
G37*
G36*
X3098298Y424541D02*
X3062139D01*
Y388382D01*
X3077762Y394853D01*
X3091827Y408918D01*
X3098298Y424541D01*
D02*
G37*
G36*
X3036739D02*
X3000580D01*
X3007051Y408918D01*
X3021116Y394853D01*
X3036739Y388382D01*
Y424541D01*
D02*
G37*
G36*
X3604859Y424220D02*
X3568700D01*
Y388061D01*
X3584323Y394532D01*
X3598388Y408597D01*
X3604859Y424220D01*
D02*
G37*
G36*
X3374255Y585400D02*
X3347819D01*
X3322284Y578558D01*
X3299390Y565340D01*
X3280697Y546647D01*
X3267479Y523753D01*
X3260637Y498218D01*
Y471782D01*
X3267479Y446247D01*
X3280697Y423353D01*
X3299390Y404660D01*
X3322284Y391442D01*
X3347819Y384600D01*
X3374255D01*
X3399790Y391442D01*
X3422684Y404660D01*
X3441377Y423353D01*
X3444052Y427986D01*
X3499592Y434127D01*
X3504077Y429121D01*
X3506505Y425754D01*
X3513611Y408599D01*
X3513612Y408597D01*
X3527677Y394532D01*
X3543300Y388061D01*
Y436920D01*
Y485779D01*
X3527677Y479308D01*
X3524029Y477086D01*
X3465462Y490310D01*
X3461437Y498218D01*
X3454595Y523753D01*
X3441377Y546647D01*
X3422684Y565340D01*
X3399790Y578558D01*
X3374255Y585400D01*
D02*
G37*
G36*
X2461859Y424220D02*
X2425700D01*
Y388061D01*
X2441323Y394532D01*
X2455388Y408597D01*
X2461859Y424220D01*
D02*
G37*
G36*
X2400300D02*
X2364141D01*
X2370612Y408597D01*
X2384677Y394532D01*
X2400300Y388061D01*
Y424220D01*
D02*
G37*
G36*
X937859D02*
X901700D01*
Y388061D01*
X917323Y394532D01*
X931388Y408597D01*
X937859Y424220D01*
D02*
G37*
G36*
X876300D02*
X840141D01*
X846612Y408597D01*
X860677Y394532D01*
X876300Y388061D01*
Y424220D01*
D02*
G37*
G36*
X556859D02*
X520700D01*
Y388061D01*
X536323Y394532D01*
X550388Y408597D01*
X556859Y424220D01*
D02*
G37*
G36*
X495300D02*
X459141D01*
X465612Y408597D01*
X479677Y394532D01*
X495300Y388061D01*
Y424220D01*
D02*
G37*
G36*
X2707206Y585400D02*
X2680770D01*
X2655235Y578558D01*
X2632341Y565340D01*
X2613648Y546647D01*
X2600430Y523753D01*
X2593588Y498218D01*
Y471782D01*
X2600430Y446247D01*
X2613648Y423353D01*
X2632341Y404660D01*
X2655235Y391442D01*
X2680770Y384600D01*
X2707206D01*
X2732741Y391442D01*
X2755635Y404660D01*
X2774328Y423353D01*
X2787546Y446247D01*
X2794388Y471782D01*
Y498218D01*
X2787546Y523753D01*
X2774328Y546647D01*
X2755635Y565340D01*
X2732741Y578558D01*
X2707206Y585400D01*
D02*
G37*
G36*
X1373107D02*
X1346671D01*
X1321136Y578558D01*
X1298242Y565340D01*
X1279549Y546647D01*
X1266331Y523753D01*
X1259489Y498218D01*
Y471782D01*
X1266331Y446247D01*
X1279549Y423353D01*
X1298242Y404660D01*
X1321136Y391442D01*
X1346671Y384600D01*
X1373107D01*
X1398642Y391442D01*
X1421536Y404660D01*
X1440229Y423353D01*
X1453447Y446247D01*
X1460289Y471782D01*
Y498218D01*
X1453447Y523753D01*
X1440229Y546647D01*
X1421536Y565340D01*
X1398642Y578558D01*
X1373107Y585400D01*
D02*
G37*
%LPD*%
G36*
X1432984Y1832320D02*
X1433092Y1828174D01*
X1433473Y1823804D01*
X1434108Y1819948D01*
X1434997Y1816606D01*
X1436140Y1813779D01*
X1437537Y1811466D01*
X1439188Y1809666D01*
X1441093Y1808381D01*
X1443252Y1807610D01*
X1445665Y1807353D01*
X1434271D01*
X1435548Y1788065D01*
X1436339Y1784795D01*
X1437235Y1782410D01*
X1438237Y1780912D01*
X1402293D01*
X1403295Y1782410D01*
X1404191Y1784795D01*
X1404982Y1788065D01*
X1405667Y1792221D01*
X1406722Y1803190D01*
X1406864Y1807353D01*
X1394865D01*
X1397278Y1807610D01*
X1399437Y1808381D01*
X1401342Y1809666D01*
X1402993Y1811466D01*
X1404390Y1813779D01*
X1405533Y1816606D01*
X1406422Y1819948D01*
X1407057Y1823804D01*
X1407438Y1828174D01*
X1407546Y1832320D01*
X1407565Y1835760D01*
X1432965D01*
X1432984Y1832320D01*
D02*
G37*
G36*
X1248375Y1737562D02*
X1248118Y1739975D01*
X1247347Y1742134D01*
X1246062Y1744039D01*
X1244262Y1745690D01*
X1241949Y1747087D01*
X1239121Y1748230D01*
X1235780Y1749119D01*
X1231924Y1749754D01*
X1227554Y1750135D01*
X1222670Y1750262D01*
Y1775662D01*
X1227554Y1775789D01*
X1231924Y1776170D01*
X1235780Y1776805D01*
X1239121Y1777694D01*
X1241949Y1778837D01*
X1244262Y1780234D01*
X1246062Y1781885D01*
X1247347Y1783790D01*
X1248118Y1785949D01*
X1248375Y1788362D01*
Y1737562D01*
D02*
G37*
G36*
X1034460Y1785949D02*
X1035231Y1783790D01*
X1036516Y1781885D01*
X1038316Y1780234D01*
X1040629Y1778837D01*
X1043457Y1777694D01*
X1046798Y1776805D01*
X1050654Y1776170D01*
X1055024Y1775789D01*
X1059908Y1775662D01*
Y1750262D01*
X1055024Y1750135D01*
X1050654Y1749754D01*
X1046798Y1749119D01*
X1043457Y1748230D01*
X1040629Y1747087D01*
X1038316Y1745690D01*
X1036516Y1744039D01*
X1035231Y1742134D01*
X1034460Y1739975D01*
X1034203Y1737562D01*
Y1788362D01*
X1034460Y1785949D01*
D02*
G37*
G36*
X1593830Y1727963D02*
X1591763Y1729786D01*
X1589325Y1731418D01*
X1586516Y1732858D01*
X1583336Y1734107D01*
X1579785Y1735162D01*
X1575864Y1736026D01*
X1571571Y1736698D01*
X1566908Y1737178D01*
X1556470Y1737562D01*
Y1788362D01*
X1561874Y1788458D01*
X1571571Y1789227D01*
X1575864Y1789898D01*
X1579785Y1790762D01*
X1583336Y1791818D01*
X1586516Y1793067D01*
X1589325Y1794506D01*
X1591763Y1796138D01*
X1593830Y1797962D01*
Y1727963D01*
D02*
G37*
G36*
X1447968Y1803992D02*
X1449492Y1800711D01*
X1452032Y1797817D01*
X1455588Y1795309D01*
X1460160Y1793186D01*
X1465748Y1791450D01*
X1472352Y1790099D01*
X1479972Y1789134D01*
X1488608Y1788555D01*
X1498260Y1788362D01*
Y1737562D01*
X1488608Y1737369D01*
X1472352Y1735826D01*
X1465748Y1734475D01*
X1460160Y1732739D01*
X1455588Y1730616D01*
X1452032Y1728108D01*
X1449492Y1725213D01*
X1447968Y1721933D01*
X1447460Y1718267D01*
Y1807658D01*
X1447968Y1803992D01*
D02*
G37*
G36*
X1995000Y417140D02*
X1992509Y418062D01*
X1989920Y418526D01*
X1987233Y418533D01*
X1984448Y418084D01*
X1981567Y417177D01*
X1978587Y415814D01*
X1975509Y413994D01*
X1972334Y411717D01*
X1969062Y408983D01*
X1965691Y405792D01*
X1947731Y423753D01*
X1950921Y427123D01*
X1953655Y430396D01*
X1955932Y433571D01*
X1957752Y436648D01*
X1959116Y439628D01*
X1960022Y442510D01*
X1960472Y445295D01*
X1960464Y447981D01*
X1960000Y450570D01*
X1959079Y453062D01*
X1995000Y417140D01*
D02*
G37*
%LPC*%
G36*
X4521200Y2390779D02*
Y2354620D01*
X4557359D01*
X4550888Y2370243D01*
X4536823Y2384308D01*
X4521200Y2390779D01*
D02*
G37*
G36*
X4557359Y2329220D02*
X4521200D01*
Y2293061D01*
X4536823Y2299532D01*
X4550888Y2313597D01*
X4557359Y2329220D01*
D02*
G37*
G36*
X3427300Y925759D02*
X3411677Y919288D01*
X3397612Y905223D01*
X3391141Y889600D01*
X3427300D01*
Y925759D01*
D02*
G37*
%LPD*%
D10*
X5094223Y3038073D02*
D03*
X5244223D02*
D03*
X5399480Y934692D02*
D03*
X5249479D02*
D03*
X1432385D02*
D03*
X1282385D02*
D03*
X1852304D02*
D03*
X2002304D02*
D03*
X5349301Y2530880D02*
D03*
X5499302D02*
D03*
X5349301Y2772682D02*
D03*
X5499302D02*
D03*
X2424763Y934692D02*
D03*
X2574763D02*
D03*
X3147223D02*
D03*
X2997222D02*
D03*
X2665008Y1468470D02*
D03*
X2515008D02*
D03*
X2515007Y1201549D02*
D03*
X2665008D02*
D03*
X4867140Y934692D02*
D03*
X4717140D02*
D03*
X4836536Y2772682D02*
D03*
X4986536D02*
D03*
X4989076Y2530880D02*
D03*
X4839076D02*
D03*
X4294681Y934692D02*
D03*
X4144681D02*
D03*
X3722222D02*
D03*
X3572221D02*
D03*
X1279845Y1468470D02*
D03*
X1429845D02*
D03*
X1852304Y1750262D02*
D03*
X2002304D02*
D03*
X1282385Y1219847D02*
D03*
X1432385D02*
D03*
D11*
X1450000Y3270000D02*
D03*
X1359889Y485000D02*
D03*
X3361037D02*
D03*
X2693988D02*
D03*
X5500212Y485000D02*
D03*
X4028086Y485000D02*
D03*
X2026939D02*
D03*
X692840D02*
D03*
D12*
X1996389Y2619880D02*
D03*
Y2979880D02*
D03*
D13*
X4575849Y2155018D02*
D03*
X4365849D02*
D03*
X4575849Y1830343D02*
D03*
X4365849D02*
D03*
X979813Y1762962D02*
D03*
X769813D02*
D03*
D14*
X1720535Y1537843D02*
D03*
Y1410843D02*
D03*
Y1283843D02*
D03*
Y1156843D02*
D03*
X2214535D02*
D03*
Y1283843D02*
D03*
Y1410843D02*
D03*
Y1537843D02*
D03*
X3491554D02*
D03*
Y1410843D02*
D03*
Y1283843D02*
D03*
Y1156843D02*
D03*
X2997554D02*
D03*
Y1283843D02*
D03*
Y1410843D02*
D03*
Y1537843D02*
D03*
X4305158Y1539509D02*
D03*
Y1412509D02*
D03*
Y1285509D02*
D03*
Y1158509D02*
D03*
X4799158D02*
D03*
Y1285509D02*
D03*
Y1412509D02*
D03*
Y1539509D02*
D03*
D15*
X3415000Y1825433D02*
D03*
Y1952433D02*
D03*
Y2079433D02*
D03*
Y2206433D02*
D03*
X2850000Y1825433D02*
D03*
Y1952433D02*
D03*
Y2079433D02*
D03*
Y2206433D02*
D03*
D16*
X1361840Y2160593D02*
D03*
X1801840D02*
D03*
D17*
X2376665Y2175433D02*
D03*
Y1825433D02*
D03*
X3901987Y2175433D02*
D03*
Y1825433D02*
D03*
D18*
X2544785Y2973544D02*
D03*
X2399785D02*
D03*
X2399245Y2545000D02*
D03*
X2544245D02*
D03*
X2544785Y2758562D02*
D03*
X2399785D02*
D03*
X3067347Y3164416D02*
D03*
X2922347D02*
D03*
X3556570Y2758562D02*
D03*
X3411570D02*
D03*
X3557110Y2973545D02*
D03*
X3412110D02*
D03*
X4976956Y1828923D02*
D03*
X4831956D02*
D03*
X4831416Y2155018D02*
D03*
X4976416D02*
D03*
X3411570Y2545000D02*
D03*
X3556569D02*
D03*
X1420265Y1762962D02*
D03*
X1275265D02*
D03*
D19*
X2805325Y2600372D02*
D03*
Y2900372D02*
D03*
D20*
X2825325Y2750372D02*
D03*
D21*
X5541812Y1459341D02*
D03*
Y1394317D02*
D03*
Y1329293D02*
D03*
Y1264269D02*
D03*
X5071812D02*
D03*
Y1329293D02*
D03*
Y1394317D02*
D03*
Y1459341D02*
D03*
D22*
X4550039Y2758562D02*
D03*
D23*
X3964039Y2529562D02*
D03*
Y2758562D02*
D03*
Y2987562D02*
D03*
D24*
X3782687Y1316172D02*
D03*
X3982687Y1411172D02*
D03*
Y1221172D02*
D03*
D25*
X1457500Y2999280D02*
D03*
Y2579140D02*
D03*
D26*
X4868073Y3038073D02*
X5094223D01*
X4836536Y3006536D02*
X4868073Y3038073D01*
X5409787Y945000D02*
X5642500D01*
X5399480Y934692D02*
X5409787Y945000D01*
X5734200Y546700D02*
Y1515800D01*
X5785000Y400000D02*
Y1910000D01*
X5244342Y796842D02*
Y929554D01*
X5249479Y934692D01*
X5190000Y742500D02*
X5244342Y796842D01*
X5672499Y485000D02*
X5734200Y546700D01*
X5730000Y345000D02*
X5785000Y400000D01*
X5692500Y2002500D02*
X5785000Y1910000D01*
X5680001Y1570000D02*
X5734200Y1515800D01*
X5642500Y945000D02*
Y957179D01*
X5682500Y997179D01*
X5648183Y1394317D02*
X5682500Y1360000D01*
Y997179D02*
Y1360000D01*
X5541812Y1394317D02*
X5648183D01*
X4320000Y817500D02*
X5085000D01*
X5126200Y858700D02*
Y1080121D01*
X5085000Y817500D02*
X5126200Y858700D01*
X4967500Y1065239D02*
Y1155121D01*
X5210000Y1170000D02*
X5264341Y1224341D01*
X4982379Y1170000D02*
X5210000D01*
X4967500Y1155121D02*
X4982379Y1170000D01*
X5141079Y1095000D02*
X5297500D01*
X4867447Y935000D02*
X5038100D01*
X5126200Y1080121D02*
X5141079Y1095000D01*
X4867140Y934692D02*
X4867447Y935000D01*
X3440000Y876900D02*
X3460187D01*
X3483179Y899892D01*
X3005000Y842500D02*
X3058700Y788800D01*
X3483179Y899892D02*
X3537421D01*
X3058700Y788800D02*
X3946300D01*
X4005000Y847500D01*
X3537421Y899892D02*
X3572221Y934692D01*
X4989076Y2530880D02*
X4990000Y2529956D01*
X4987806Y2532150D02*
X4989076Y2530880D01*
X5071812Y1264635D02*
Y1329293D01*
X4970365Y1264635D02*
X4975000D01*
X5068946Y1262135D02*
X5071446Y1264635D01*
X4977135Y1262135D02*
X5068946D01*
X4975000Y1260000D02*
X4977135Y1262135D01*
X4709830Y1264681D02*
X4730658Y1285509D01*
X4656366Y1264681D02*
X4709830D01*
X4730658Y1285509D02*
X4799158D01*
X4642092Y1250407D02*
X4656366Y1264681D01*
X4576911D02*
X4627818D01*
X4642092Y1250407D01*
X4481991Y1285509D02*
X4717140Y1050360D01*
X4305158Y1285509D02*
X4481991D01*
X4429083Y1412509D02*
X4576911Y1264681D01*
X4305158Y1412509D02*
X4429083D01*
X4717140Y934692D02*
Y1050360D01*
X4112500Y1312500D02*
X4144681Y1280319D01*
Y934692D02*
Y1280319D01*
X3924503Y1312500D02*
X4112500D01*
X257500Y412500D02*
X432500Y237500D01*
X257500Y1857500D02*
X322500Y1922500D01*
X257500Y412500D02*
Y1857500D01*
X3155000Y1085000D02*
Y1412500D01*
X3315000Y960000D02*
Y1265000D01*
X5412584Y1725000D02*
X5438548Y1750964D01*
X4970000Y1265000D02*
X4970365Y1264635D01*
X5067012Y1399117D02*
X5071812Y1394317D01*
X5264341Y1224341D02*
Y1421841D01*
X5071812Y1394317D02*
X5179317D01*
X5202500Y1417500D01*
X5325000Y1295000D02*
X5359293Y1329293D01*
X5202500Y1417500D02*
Y1532500D01*
X5325000Y1122500D02*
Y1295000D01*
X5264341Y1421841D02*
X5301841Y1459341D01*
X5541812D01*
X5202500Y1532500D02*
X5240000Y1570000D01*
X1432385Y1055000D02*
X2477500D01*
X2515007Y1092508D01*
X4182500Y742500D02*
X5190000D01*
X4168086Y345000D02*
X5730000D01*
X4028086Y485000D02*
X4168086Y345000D01*
X3155000Y1582500D02*
X3202500Y1630000D01*
X3155000Y1412500D02*
Y1582500D01*
X3202500Y1630000D02*
X3935000D01*
X4927500D01*
X4962500Y1442271D02*
Y1595000D01*
X4927500Y1630000D02*
X4962500Y1595000D01*
Y1442271D02*
X5005654Y1399117D01*
X2515008Y1468470D02*
Y1599992D01*
X3153343Y1410843D02*
X3155000Y1412500D01*
X2997554Y1410843D02*
X3153343D01*
X4990000Y2407500D02*
Y2529956D01*
X3360000Y482500D02*
X3361037Y483537D01*
Y485000D01*
X2693988Y483988D02*
Y485000D01*
X3005000Y842500D02*
Y926915D01*
X3987700Y1221172D02*
X4005000Y1203872D01*
Y847500D02*
Y1203872D01*
X3982687Y1221172D02*
X3987700D01*
X2997222Y934692D02*
X3005000Y926915D01*
X2632500Y1045000D02*
X3115000D01*
X3155000Y1085000D01*
X3289692Y934692D02*
X3315000Y960000D01*
X3333843Y1283843D02*
X3491554D01*
X3315000Y1265000D02*
X3333843Y1283843D01*
X2666351D02*
X2997554D01*
X2665008Y1282500D02*
X2666351Y1283843D01*
X3935000Y1630000D02*
X3936887Y1628113D01*
Y1428472D02*
Y1628113D01*
X4575849Y1830343D02*
X4830536D01*
X4831956Y1828923D01*
X5499302Y2530880D02*
X5626620D01*
X1779438Y237500D02*
X2026939Y485000D01*
X432500Y237500D02*
X1779438D01*
X322500Y1922500D02*
X1370000D01*
X1420265Y1872235D01*
Y1762962D02*
Y1872235D01*
X2214535Y1283843D02*
X2430213D01*
X2512507Y1201549D01*
X2515007D01*
X3872500Y982500D02*
Y1260497D01*
X3924503Y1312500D01*
X4952621Y1050360D02*
X4967500Y1065239D01*
X4717140Y1050360D02*
X4952621D01*
X5005654Y1399117D02*
X5067012D01*
X3936887Y1428472D02*
X3954187Y1411172D01*
X3982687D01*
X3722222Y934692D02*
X3824692D01*
X3872500Y982500D01*
X5297500Y1095000D02*
X5325000Y1122500D01*
X5359293Y1329293D02*
X5541812D01*
X5499302Y2530880D02*
Y2772682D01*
X4836536D02*
Y3006536D01*
X4144681Y845320D02*
X4145000Y845000D01*
X4144681Y845320D02*
Y934692D01*
X4145000Y780000D02*
Y845000D01*
Y780000D02*
X4182500Y742500D01*
X4294681Y842819D02*
Y934692D01*
Y842819D02*
X4320000Y817500D01*
X3147223Y934692D02*
X3289692D01*
X5500212Y485000D02*
X5672499D01*
X5240000Y1570000D02*
X5680001D01*
X2002304Y1344804D02*
Y1750262D01*
X1282385Y934692D02*
Y1319885D01*
X979813Y1762962D02*
X1275265D01*
X2002304Y1750262D02*
X2006997Y1745570D01*
X692840Y1084193D02*
X974193D01*
X1010000Y1120000D01*
X1432385Y934692D02*
Y1055000D01*
X1594408Y1468470D02*
X1652035Y1410843D01*
X1720535D01*
Y1283843D02*
X1941343D01*
X2002304Y1344804D01*
X1010000Y1120000D02*
Y1442500D01*
X1035970Y1468470D01*
X1414966Y1347500D02*
X1429845Y1362379D01*
X1035970Y1468470D02*
X1279845D01*
X1282385Y1319885D02*
X1310000Y1347500D01*
X1429845Y1362379D02*
Y1468470D01*
X1310000Y1347500D02*
X1414966D01*
X1429845Y1468470D02*
X1594408D01*
X1432385Y1055000D02*
Y1219847D01*
X2665008Y1201549D02*
X2665008Y1201549D01*
Y1282500D01*
Y1468470D01*
X2515007Y1092508D02*
Y1201549D01*
X2574763Y934692D02*
X2592913Y952842D01*
Y1005413D02*
X2632500Y1045000D01*
X2592913Y952842D02*
Y1005413D01*
X2002304Y934692D02*
X2424763D01*
D27*
X1450000Y3270000D02*
X1700000D01*
X1780000Y3190000D01*
X4558745Y1413755D02*
X4797913D01*
X4557500Y1415000D02*
X4558745Y1413755D01*
X4797913D02*
X4799158Y1412509D01*
X4306913Y1156755D02*
X4460145D01*
X4305158Y1158509D02*
X4306913Y1156755D01*
X4460145D02*
X4461900Y1155000D01*
X3762706Y1410843D02*
X3841287D01*
X5438322Y2258738D02*
X5438548Y2258964D01*
X5438322Y2113322D02*
Y2258738D01*
X2366657Y1410843D02*
X2370000Y1407500D01*
X2214535Y1410843D02*
X2366657D01*
X3491554D02*
X3762706D01*
X3782687Y1316172D02*
X3818687D01*
X3762706Y1320772D02*
Y1410843D01*
X3767306Y1316172D02*
X3782687D01*
X3762706Y1320772D02*
X3767306Y1316172D01*
X2819343Y1156843D02*
X2997554D01*
X5540000Y1147500D02*
Y1256369D01*
X3637500Y1825433D02*
X3901987D01*
X3415000D02*
X3637500D01*
X3645000Y1725000D02*
Y1817933D01*
X3637500Y1825433D02*
X3645000Y1817933D01*
X3250843Y1410843D02*
X3491554D01*
X2376665Y1825433D02*
X2850000D01*
X2665567Y2079433D02*
X2850000D01*
X2569567Y2175433D02*
X2665567Y2079433D01*
X5349301Y2433199D02*
Y2530880D01*
X5388401Y2394099D02*
X5540901D01*
X5600000Y2335000D01*
X5349301Y2433199D02*
X5388401Y2394099D01*
X5600000Y2032258D02*
Y2335000D01*
X3906897Y1830343D02*
X4365849D01*
X3901987Y1825433D02*
X3906897Y1830343D01*
X4839076Y2370924D02*
X4951036Y2258964D01*
X4839076Y2370924D02*
Y2530880D01*
X4951036Y2258964D02*
X5438548D01*
X3411570Y2210683D02*
X3415819Y2206433D01*
X4365000Y2758562D02*
X4365849Y2757713D01*
X4632139Y2560638D02*
X4661897Y2530880D01*
X4986536Y2772682D02*
X5349301D01*
X4986536D02*
X4987806Y2771412D01*
Y2532150D02*
Y2771412D01*
X4632139Y2560638D02*
Y2676461D01*
X4550039Y2758562D02*
X4632139Y2676461D01*
X5184548Y2004964D02*
X5187012Y2002500D01*
X4661897Y2530880D02*
X4839076D01*
X5570242Y2002500D02*
X5600000Y2032258D01*
X5570242Y2002500D02*
X5692500D01*
X5187012D02*
X5570242D01*
X3881720Y2758562D02*
X3901539Y2778380D01*
X3556570Y2758562D02*
X3881720D01*
X3556840Y2973274D02*
X3557110Y2973545D01*
X3697500Y2477500D02*
X3749561Y2529562D01*
X3964039D01*
X3697500Y2255000D02*
Y2477500D01*
X3556840Y2758832D02*
Y2973274D01*
X3556570Y2758562D02*
X3556840Y2758832D01*
X4365849Y2155018D02*
Y2757713D01*
X3415819Y2206433D02*
X3648933D01*
X4575849Y2155018D02*
X4831416D01*
X3648933Y2206433D02*
X3697500Y2255000D01*
X1780000Y2579140D02*
Y3190000D01*
X2544785Y2758562D02*
Y2897500D01*
X2805325Y2900372D02*
X3257128D01*
X3300000Y2857500D01*
Y2574758D02*
X3329758Y2545000D01*
X3300000Y2574758D02*
Y2857500D01*
X3329758Y2545000D02*
X3411570D01*
Y2210683D02*
Y2545000D01*
X2859758Y3164416D02*
X2922347D01*
X2805325Y2900372D02*
Y2965000D01*
Y3109982D02*
X2859758Y3164416D01*
X2796781Y2973544D02*
X2805325Y2965000D01*
Y3109982D01*
X2544785Y2897500D02*
X2547658Y2900372D01*
X2805325D01*
X2544785Y2897500D02*
Y2973544D01*
X1420265Y1762962D02*
X1629538D01*
X3253567Y2206433D02*
X3415000D01*
X2376665Y2175433D02*
X2569567D01*
X1720535Y1156843D02*
X1921843D01*
D28*
X1115000Y2924885D02*
X1189395Y2999280D01*
X1115000Y2295000D02*
Y2924885D01*
X1189395Y2999280D02*
X1457500D01*
X1011800Y2191800D02*
X1115000Y2295000D01*
X734000Y2167500D02*
X758300Y2191800D01*
X1011800D01*
X4365000Y2758562D02*
X4550039D01*
X3964039D02*
X4365000D01*
X1361840Y2566440D02*
X1374540Y2579140D01*
X1780000D02*
X1979889D01*
X1361840Y2160593D02*
Y2566440D01*
X1374540Y2579140D02*
X1457500D01*
X2022500Y2545000D02*
X2399245D01*
X1457500Y2579140D02*
X1780000D01*
D29*
X2409845Y2470155D02*
X2482500Y2397500D01*
X2760000D01*
X2805325Y2442824D01*
Y2600372D01*
X2409845Y2470155D02*
Y2538100D01*
X2402945Y2545000D02*
X2409845Y2538100D01*
X2399245Y2545000D02*
X2402945D01*
D30*
X734000Y2167500D02*
D03*
Y2802500D02*
D03*
D31*
X226000Y2421500D02*
D03*
D32*
X4883456Y533400D02*
D03*
D33*
X5438548Y2258964D02*
D03*
X5184548Y2004964D02*
D03*
D34*
X5438548Y1750964D02*
D03*
D35*
X692840Y1338193D02*
D03*
D36*
Y1084193D02*
D03*
D37*
X996939Y3092241D02*
D03*
X791939Y2472241D02*
D03*
X5544439Y749741D02*
D03*
X4436939Y577241D02*
D03*
X171939Y2062241D02*
D03*
X3049439Y437241D02*
D03*
X317500Y3103920D02*
D03*
X172300Y2727861D02*
D03*
X3440000Y876900D02*
D03*
X4975000Y1260000D02*
D03*
X5651500Y3103920D02*
D03*
X4699000Y1960920D02*
D03*
X4508500Y3103920D02*
D03*
Y2341920D02*
D03*
X4127500Y3103920D02*
D03*
Y2341920D02*
D03*
X3746500Y3103920D02*
D03*
X3556000Y436920D02*
D03*
X3365500Y3103920D02*
D03*
X2984500Y2341920D02*
D03*
X2603500Y3103920D02*
D03*
X2413000Y436920D02*
D03*
X2222500Y3103920D02*
D03*
Y2341920D02*
D03*
X2032000Y1960920D02*
D03*
X2222500Y817920D02*
D03*
X1841500Y2341920D02*
D03*
X1651000Y1960920D02*
D03*
X1841500Y817920D02*
D03*
X1079500Y1579920D02*
D03*
X889000Y1198920D02*
D03*
X1079500Y817920D02*
D03*
X889000Y436920D02*
D03*
X698500Y3103920D02*
D03*
Y1579920D02*
D03*
Y817920D02*
D03*
X508000Y436920D02*
D03*
D38*
X5642500Y945000D02*
D03*
X5038100Y935000D02*
D03*
X4642092Y1250407D02*
D03*
X4557500Y1415000D02*
D03*
X4461900Y1155000D02*
D03*
X3841287Y1410843D02*
D03*
X5438322Y2113322D02*
D03*
X2370000Y1407500D02*
D03*
X2819343Y1156843D02*
D03*
X5540000Y1147500D02*
D03*
X1359889Y485000D02*
D03*
X3645000Y1725000D02*
D03*
X3250843Y1410843D02*
D03*
X2515008Y1599992D02*
D03*
X4990000Y2407500D02*
D03*
X3360000Y482500D02*
D03*
X2693988Y483988D02*
D03*
X3243157Y1156843D02*
D03*
X5626620Y2530880D02*
D03*
X5595000Y1890000D02*
D03*
X1921843Y1156843D02*
D03*
X3253567Y2206433D02*
D03*
X1629538Y1762962D02*
D03*
%TF.MD5,818ac5e1dd8c4cf1b301863b3c4b4739*%
M02*
