%TF.GenerationSoftware,Altium Limited,Altium Designer,24.9.1 (31)*%
G04 Layer_Color=255*
%FSLAX45Y45*%
%MOMM*%
%TF.SameCoordinates,1ED834A1-E46C-4F5A-A45D-C8FB9AE456DD*%
%TF.FilePolarity,Positive*%
%TF.FileFunction,Pads,Top*%
%TF.Part,Single*%
G01*
G75*
%TA.AperFunction,SMDPad,CuDef*%
%ADD10R,1.00000X0.95000*%
%ADD11C,1.50000*%
%ADD12R,1.60000X2.60000*%
%ADD13R,1.10000X1.20000*%
G04:AMPARAMS|DCode=14|XSize=1.97mm|YSize=0.6mm|CornerRadius=0.075mm|HoleSize=0mm|Usage=FLASHONLY|Rotation=0.000|XOffset=0mm|YOffset=0mm|HoleType=Round|Shape=RoundedRectangle|*
%AMROUNDEDRECTD14*
21,1,1.97000,0.45000,0,0,0.0*
21,1,1.82000,0.60000,0,0,0.0*
1,1,0.15000,0.91000,-0.22500*
1,1,0.15000,-0.91000,-0.22500*
1,1,0.15000,-0.91000,0.22500*
1,1,0.15000,0.91000,0.22500*
%
%ADD14ROUNDEDRECTD14*%
%ADD15O,1.80000X0.60000*%
%ADD16R,2.10000X1.55000*%
%ADD17R,1.60000X2.50000*%
%ADD18R,0.55000X0.90000*%
%ADD19R,1.40000X0.60000*%
%ADD20R,1.80000X0.60000*%
%ADD21R,1.10000X0.35000*%
%ADD22R,2.15000X3.25000*%
%ADD23R,2.15000X0.90000*%
G04:AMPARAMS|DCode=24|XSize=1.32mm|YSize=0.6mm|CornerRadius=0.075mm|HoleSize=0mm|Usage=FLASHONLY|Rotation=180.000|XOffset=0mm|YOffset=0mm|HoleType=Round|Shape=RoundedRectangle|*
%AMROUNDEDRECTD24*
21,1,1.32000,0.45000,0,0,180.0*
21,1,1.17000,0.60000,0,0,180.0*
1,1,0.15000,-0.58500,0.22500*
1,1,0.15000,0.58500,0.22500*
1,1,0.15000,0.58500,-0.22500*
1,1,0.15000,-0.58500,-0.22500*
%
%ADD24ROUNDEDRECTD24*%
%ADD25R,3.55600X1.52400*%
%TA.AperFunction,ComponentPad*%
%ADD30O,4.06400X2.54000*%
%ADD31O,2.54000X4.06400*%
%ADD32R,1.60000X1.60000*%
%ADD33C,1.22200*%
%ADD34R,1.22200X1.22200*%
%ADD35C,1.81500*%
%ADD36R,1.81500X1.81500*%
D10*
X5094223Y3038073D02*
D03*
X5244223D02*
D03*
X5399480Y934692D02*
D03*
X5249479D02*
D03*
X1432385D02*
D03*
X1282385D02*
D03*
X1852304D02*
D03*
X2002304D02*
D03*
X5349301Y2530880D02*
D03*
X5499302D02*
D03*
X5349301Y2772682D02*
D03*
X5499302D02*
D03*
X2424763Y934692D02*
D03*
X2574763D02*
D03*
X3147223D02*
D03*
X2997222D02*
D03*
X2665008Y1468470D02*
D03*
X2515008D02*
D03*
X2515007Y1201549D02*
D03*
X2665008D02*
D03*
X4867140Y934692D02*
D03*
X4717140D02*
D03*
X4836536Y2772682D02*
D03*
X4986536D02*
D03*
X4989076Y2530880D02*
D03*
X4839076D02*
D03*
X4294681Y934692D02*
D03*
X4144681D02*
D03*
X3722222D02*
D03*
X3572221D02*
D03*
X1279845Y1468470D02*
D03*
X1429845D02*
D03*
X1852304Y1750262D02*
D03*
X2002304D02*
D03*
X1282385Y1219847D02*
D03*
X1432385D02*
D03*
D11*
X1450000Y3270000D02*
D03*
X1359889Y485000D02*
D03*
X3361037D02*
D03*
X2693988D02*
D03*
X5500212Y485000D02*
D03*
X4028086Y485000D02*
D03*
X2026939D02*
D03*
X692840D02*
D03*
D12*
X1996389Y2619880D02*
D03*
Y2979880D02*
D03*
D13*
X4575849Y2155018D02*
D03*
X4365849D02*
D03*
X4575849Y1830343D02*
D03*
X4365849D02*
D03*
X979813Y1762962D02*
D03*
X769813D02*
D03*
D14*
X1720535Y1537843D02*
D03*
Y1410843D02*
D03*
Y1283843D02*
D03*
Y1156843D02*
D03*
X2214535D02*
D03*
Y1283843D02*
D03*
Y1410843D02*
D03*
Y1537843D02*
D03*
X3491554D02*
D03*
Y1410843D02*
D03*
Y1283843D02*
D03*
Y1156843D02*
D03*
X2997554D02*
D03*
Y1283843D02*
D03*
Y1410843D02*
D03*
Y1537843D02*
D03*
X4305158Y1539509D02*
D03*
Y1412509D02*
D03*
Y1285509D02*
D03*
Y1158509D02*
D03*
X4799158D02*
D03*
Y1285509D02*
D03*
Y1412509D02*
D03*
Y1539509D02*
D03*
D15*
X3415000Y1825433D02*
D03*
Y1952433D02*
D03*
Y2079433D02*
D03*
Y2206433D02*
D03*
X2850000Y1825433D02*
D03*
Y1952433D02*
D03*
Y2079433D02*
D03*
Y2206433D02*
D03*
D16*
X1361840Y2160593D02*
D03*
X1801840D02*
D03*
D17*
X2376665Y2175433D02*
D03*
Y1825433D02*
D03*
X3901987Y2175433D02*
D03*
Y1825433D02*
D03*
D18*
X2544785Y2973544D02*
D03*
X2399785D02*
D03*
X2399245Y2545000D02*
D03*
X2544245D02*
D03*
X2544785Y2758562D02*
D03*
X2399785D02*
D03*
X3067347Y3164416D02*
D03*
X2922347D02*
D03*
X3556570Y2758562D02*
D03*
X3411570D02*
D03*
X3557110Y2973545D02*
D03*
X3412110D02*
D03*
X4976956Y1828923D02*
D03*
X4831956D02*
D03*
X4831416Y2155018D02*
D03*
X4976416D02*
D03*
X3411570Y2545000D02*
D03*
X3556569D02*
D03*
X1420265Y1762962D02*
D03*
X1275265D02*
D03*
D19*
X2805325Y2600372D02*
D03*
Y2900372D02*
D03*
D20*
X2825325Y2750372D02*
D03*
D21*
X5541812Y1459341D02*
D03*
Y1394317D02*
D03*
Y1329293D02*
D03*
Y1264269D02*
D03*
X5071812D02*
D03*
Y1329293D02*
D03*
Y1394317D02*
D03*
Y1459341D02*
D03*
D22*
X4550039Y2758562D02*
D03*
D23*
X3964039Y2529562D02*
D03*
Y2758562D02*
D03*
Y2987562D02*
D03*
D24*
X3782687Y1316172D02*
D03*
X3982687Y1411172D02*
D03*
Y1221172D02*
D03*
D25*
X1457500Y2999280D02*
D03*
Y2579140D02*
D03*
D30*
X734000Y2167500D02*
D03*
Y2802500D02*
D03*
D31*
X226000Y2421500D02*
D03*
D32*
X4883456Y533400D02*
D03*
D33*
X5438548Y2258964D02*
D03*
X5184548Y2004964D02*
D03*
D34*
X5438548Y1750964D02*
D03*
D35*
X692840Y1338193D02*
D03*
D36*
Y1084193D02*
D03*
%TF.MD5,a362c6cabd47c2a41644ac01667cdcd9*%
M02*
